<?xml version="1.0" encoding="UTF-8" standalone="no"?>
<!DOCTYPE svg PUBLIC "-//W3C//DTD SVG 1.1//EN"
 "http://www.w3.org/Graphics/SVG/1.1/DTD/svg11.dtd">
<!-- Generated by graphviz version 3.0.0 (0)
 -->
<!-- Title: G Pages: 1 -->
<svg width="1651pt" height="116pt"
 viewBox="0.00 0.00 1651.14 116.00" xmlns="http://www.w3.org/2000/svg" xmlns:xlink="http://www.w3.org/1999/xlink">
<g id="graph0" class="graph" transform="scale(1 1) rotate(0) translate(4 112)">
<title>G</title>
<polygon fill="white" stroke="transparent" points="-4,4 -4,-112 1647.14,-112 1647.14,4 -4,4"/>
<!-- Ambre -->
<g id="node1" class="node">
<title>Ambre</title>
<ellipse fill="none" stroke="black" cx="41.6" cy="-90" rx="41.69" ry="18"/>
<text text-anchor="middle" x="41.6" y="-86.3" font-family="Times,serif" font-size="14.00">Ambre</text>
</g>
<!-- Lalie -->
<g id="node2" class="node">
<title>Lalie</title>
<ellipse fill="none" stroke="black" cx="134.6" cy="-90" rx="33.29" ry="18"/>
<text text-anchor="middle" x="134.6" y="-86.3" font-family="Times,serif" font-size="14.00">Lalie</text>
</g>
<!-- Alice -->
<g id="node3" class="node">
<title>Alice</title>
<ellipse fill="none" stroke="black" cx="218.6" cy="-90" rx="33.29" ry="18"/>
<text text-anchor="middle" x="218.6" y="-86.3" font-family="Times,serif" font-size="14.00">Alice</text>
</g>
<!-- Alain -->
<g id="node4" class="node">
<title>Alain</title>
<ellipse fill="none" stroke="black" cx="304.6" cy="-90" rx="34.39" ry="18"/>
<text text-anchor="middle" x="304.6" y="-86.3" font-family="Times,serif" font-size="14.00">Alain</text>
</g>
<!-- Lina -->
<g id="node5" class="node">
<title>Lina</title>
<ellipse fill="none" stroke="black" cx="304.6" cy="-18" rx="30.59" ry="18"/>
<text text-anchor="middle" x="304.6" y="-14.3" font-family="Times,serif" font-size="14.00">Lina</text>
</g>
<!-- Alain&#45;&gt;Lina -->
<g id="edge1" class="edge">
<title>Alain&#45;&gt;Lina</title>
<path fill="none" stroke="black" d="M304.6,-71.7C304.6,-63.98 304.6,-54.71 304.6,-46.11"/>
<polygon fill="black" stroke="black" points="308.1,-46.1 304.6,-36.1 301.1,-46.1 308.1,-46.1"/>
</g>
<!-- Zoe -->
<g id="node6" class="node">
<title>Zoe</title>
<ellipse fill="none" stroke="black" cx="384.6" cy="-90" rx="27.9" ry="18"/>
<text text-anchor="middle" x="384.6" y="-86.3" font-family="Times,serif" font-size="14.00">Zoe</text>
</g>
<!-- Ines -->
<g id="node7" class="node">
<title>Ines</title>
<ellipse fill="none" stroke="black" cx="460.6" cy="-90" rx="30.59" ry="18"/>
<text text-anchor="middle" x="460.6" y="-86.3" font-family="Times,serif" font-size="14.00">Ines</text>
</g>
<!-- Pauline -->
<g id="node8" class="node">
<title>Pauline</title>
<ellipse fill="none" stroke="black" cx="553.6" cy="-90" rx="44.69" ry="18"/>
<text text-anchor="middle" x="553.6" y="-86.3" font-family="Times,serif" font-size="14.00">Pauline</text>
</g>
<!-- Soukaina -->
<g id="node9" class="node">
<title>Soukaina</title>
<ellipse fill="none" stroke="black" cx="669.6" cy="-90" rx="53.09" ry="18"/>
<text text-anchor="middle" x="669.6" y="-86.3" font-family="Times,serif" font-size="14.00">Soukaina</text>
</g>
<!-- Anna -->
<g id="node10" class="node">
<title>Anna</title>
<ellipse fill="none" stroke="black" cx="775.6" cy="-90" rx="34.39" ry="18"/>
<text text-anchor="middle" x="775.6" y="-86.3" font-family="Times,serif" font-size="14.00">Anna</text>
</g>
<!-- Lou -->
<g id="node11" class="node">
<title>Lou</title>
<ellipse fill="none" stroke="black" cx="855.6" cy="-90" rx="27.9" ry="18"/>
<text text-anchor="middle" x="855.6" y="-86.3" font-family="Times,serif" font-size="14.00">Lou</text>
</g>
<!-- Jade -->
<g id="node12" class="node">
<title>Jade</title>
<ellipse fill="none" stroke="black" cx="931.6" cy="-90" rx="30.59" ry="18"/>
<text text-anchor="middle" x="931.6" y="-86.3" font-family="Times,serif" font-size="14.00">Jade</text>
</g>
<!-- Camille -->
<g id="node13" class="node">
<title>Camille</title>
<ellipse fill="none" stroke="black" cx="1026.6" cy="-90" rx="46.29" ry="18"/>
<text text-anchor="middle" x="1026.6" y="-86.3" font-family="Times,serif" font-size="14.00">Camille</text>
</g>
<!-- Ghita -->
<g id="node14" class="node">
<title>Ghita</title>
<ellipse fill="none" stroke="black" cx="1127.6" cy="-90" rx="36.29" ry="18"/>
<text text-anchor="middle" x="1127.6" y="-86.3" font-family="Times,serif" font-size="14.00">Ghita</text>
</g>
<!-- Valerie -->
<g id="node15" class="node">
<title>Valerie</title>
<ellipse fill="none" stroke="black" cx="1224.6" cy="-90" rx="42.79" ry="18"/>
<text text-anchor="middle" x="1224.6" y="-86.3" font-family="Times,serif" font-size="14.00">Valerie</text>
</g>
<!-- Lea -->
<g id="node16" class="node">
<title>Lea</title>
<ellipse fill="none" stroke="black" cx="1312.6" cy="-90" rx="27.1" ry="18"/>
<text text-anchor="middle" x="1312.6" y="-86.3" font-family="Times,serif" font-size="14.00">Lea</text>
</g>
<!-- Sophie -->
<g id="node17" class="node">
<title>Sophie</title>
<ellipse fill="none" stroke="black" cx="1400.6" cy="-90" rx="42.49" ry="18"/>
<text text-anchor="middle" x="1400.6" y="-86.3" font-family="Times,serif" font-size="14.00">Sophie</text>
</g>
<!-- Iris -->
<g id="node18" class="node">
<title>Iris</title>
<ellipse fill="none" stroke="black" cx="1499.6" cy="-18" rx="27" ry="18"/>
<text text-anchor="middle" x="1499.6" y="-14.3" font-family="Times,serif" font-size="14.00">Iris</text>
</g>
<!-- Helene -->
<g id="node19" class="node">
<title>Helene</title>
<ellipse fill="none" stroke="black" cx="1599.6" cy="-90" rx="43.59" ry="18"/>
<text text-anchor="middle" x="1599.6" y="-86.3" font-family="Times,serif" font-size="14.00">Helene</text>
</g>
<!-- Aaron -->
<g id="node20" class="node">
<title>Aaron</title>
<ellipse fill="none" stroke="black" cx="1499.6" cy="-90" rx="38.19" ry="18"/>
<text text-anchor="middle" x="1499.6" y="-86.3" font-family="Times,serif" font-size="14.00">Aaron</text>
</g>
<!-- Aaron&#45;&gt;Iris -->
<g id="edge2" class="edge">
<title>Aaron&#45;&gt;Iris</title>
<path fill="none" stroke="black" d="M1499.6,-71.7C1499.6,-63.98 1499.6,-54.71 1499.6,-46.11"/>
<polygon fill="black" stroke="black" points="1503.1,-46.1 1499.6,-36.1 1496.1,-46.1 1503.1,-46.1"/>
</g>
</g>
</svg>
