<?xml version="1.0" encoding="UTF-8" standalone="no"?>
<!DOCTYPE svg PUBLIC "-//W3C//DTD SVG 1.1//EN"
 "http://www.w3.org/Graphics/SVG/1.1/DTD/svg11.dtd">
<!-- Generated by graphviz version 3.0.0 (0)
 -->
<!-- Title: G Pages: 1 -->
<svg width="2458pt" height="188pt"
 viewBox="0.00 0.00 2458.19 188.00" xmlns="http://www.w3.org/2000/svg" xmlns:xlink="http://www.w3.org/1999/xlink">
<g id="graph0" class="graph" transform="scale(1 1) rotate(0) translate(4 184)">
<title>G</title>
<polygon fill="white" stroke="transparent" points="-4,4 -4,-184 2454.19,-184 2454.19,4 -4,4"/>
<!-- Sophie -->
<g id="node1" class="node">
<title>Sophie</title>
<ellipse fill="none" stroke="black" cx="42.25" cy="-18" rx="42.49" ry="18"/>
<text text-anchor="middle" x="42.25" y="-14.3" font-family="Times,serif" font-size="14.00">Sophie</text>
</g>
<!-- Julie -->
<g id="node2" class="node">
<title>Julie</title>
<ellipse fill="none" stroke="black" cx="135.25" cy="-90" rx="31.4" ry="18"/>
<text text-anchor="middle" x="135.25" y="-86.3" font-family="Times,serif" font-size="14.00">Julie</text>
</g>
<!-- Lalie -->
<g id="node3" class="node">
<title>Lalie</title>
<ellipse fill="none" stroke="black" cx="253.25" cy="-162" rx="33.29" ry="18"/>
<text text-anchor="middle" x="253.25" y="-158.3" font-family="Times,serif" font-size="14.00">Lalie</text>
</g>
<!-- Lina -->
<g id="node4" class="node">
<title>Lina</title>
<ellipse fill="none" stroke="black" cx="335.25" cy="-162" rx="30.59" ry="18"/>
<text text-anchor="middle" x="335.25" y="-158.3" font-family="Times,serif" font-size="14.00">Lina</text>
</g>
<!-- Ambre -->
<g id="node5" class="node">
<title>Ambre</title>
<ellipse fill="none" stroke="black" cx="425.25" cy="-162" rx="41.69" ry="18"/>
<text text-anchor="middle" x="425.25" y="-158.3" font-family="Times,serif" font-size="14.00">Ambre</text>
</g>
<!-- Mia -->
<g id="node18" class="node">
<title>Mia</title>
<ellipse fill="none" stroke="black" cx="425.25" cy="-90" rx="28.7" ry="18"/>
<text text-anchor="middle" x="425.25" y="-86.3" font-family="Times,serif" font-size="14.00">Mia</text>
</g>
<!-- Ambre&#45;&gt;Mia -->
<g id="edge2" class="edge">
<title>Ambre&#45;&gt;Mia</title>
<path fill="none" stroke="black" d="M425.25,-143.7C425.25,-135.98 425.25,-126.71 425.25,-118.11"/>
<polygon fill="black" stroke="black" points="428.75,-118.1 425.25,-108.1 421.75,-118.1 428.75,-118.1"/>
</g>
<!-- Lamia -->
<g id="node6" class="node">
<title>Lamia</title>
<ellipse fill="none" stroke="black" cx="524.25" cy="-162" rx="38.99" ry="18"/>
<text text-anchor="middle" x="524.25" y="-158.3" font-family="Times,serif" font-size="14.00">Lamia</text>
</g>
<!-- Caroline -->
<g id="node7" class="node">
<title>Caroline</title>
<ellipse fill="none" stroke="black" cx="631.25" cy="-162" rx="50.09" ry="18"/>
<text text-anchor="middle" x="631.25" y="-158.3" font-family="Times,serif" font-size="14.00">Caroline</text>
</g>
<!-- Zoe -->
<g id="node8" class="node">
<title>Zoe</title>
<ellipse fill="none" stroke="black" cx="727.25" cy="-162" rx="27.9" ry="18"/>
<text text-anchor="middle" x="727.25" y="-158.3" font-family="Times,serif" font-size="14.00">Zoe</text>
</g>
<!-- Julia -->
<g id="node14" class="node">
<title>Julia</title>
<ellipse fill="none" stroke="black" cx="765.25" cy="-90" rx="31.4" ry="18"/>
<text text-anchor="middle" x="765.25" y="-86.3" font-family="Times,serif" font-size="14.00">Julia</text>
</g>
<!-- Zoe&#45;&gt;Julia -->
<g id="edge1" class="edge">
<title>Zoe&#45;&gt;Julia</title>
<path fill="none" stroke="black" d="M736.06,-144.76C740.6,-136.4 746.24,-126.02 751.35,-116.61"/>
<polygon fill="black" stroke="black" points="754.52,-118.09 756.22,-107.63 748.37,-114.75 754.52,-118.09"/>
</g>
<!-- Alice -->
<g id="node9" class="node">
<title>Alice</title>
<ellipse fill="none" stroke="black" cx="885.25" cy="-162" rx="33.29" ry="18"/>
<text text-anchor="middle" x="885.25" y="-158.3" font-family="Times,serif" font-size="14.00">Alice</text>
</g>
<!-- Valerie -->
<g id="node10" class="node">
<title>Valerie</title>
<ellipse fill="none" stroke="black" cx="979.25" cy="-162" rx="42.79" ry="18"/>
<text text-anchor="middle" x="979.25" y="-158.3" font-family="Times,serif" font-size="14.00">Valerie</text>
</g>
<!-- Marie -->
<g id="node28" class="node">
<title>Marie</title>
<ellipse fill="none" stroke="black" cx="979.25" cy="-90" rx="38.19" ry="18"/>
<text text-anchor="middle" x="979.25" y="-86.3" font-family="Times,serif" font-size="14.00">Marie</text>
</g>
<!-- Valerie&#45;&gt;Marie -->
<g id="edge8" class="edge">
<title>Valerie&#45;&gt;Marie</title>
<path fill="none" stroke="black" d="M979.25,-143.7C979.25,-135.98 979.25,-126.71 979.25,-118.11"/>
<polygon fill="black" stroke="black" points="982.75,-118.1 979.25,-108.1 975.75,-118.1 982.75,-118.1"/>
</g>
<!-- Ines -->
<g id="node11" class="node">
<title>Ines</title>
<ellipse fill="none" stroke="black" cx="803.25" cy="-162" rx="30.59" ry="18"/>
<text text-anchor="middle" x="803.25" y="-158.3" font-family="Times,serif" font-size="14.00">Ines</text>
</g>
<!-- Ines&#45;&gt;Julia -->
<g id="edge3" class="edge">
<title>Ines&#45;&gt;Julia</title>
<path fill="none" stroke="black" d="M794.43,-144.76C789.89,-136.4 784.25,-126.02 779.15,-116.61"/>
<polygon fill="black" stroke="black" points="782.12,-114.75 774.28,-107.63 775.97,-118.09 782.12,-114.75"/>
</g>
<!-- Chloe -->
<g id="node12" class="node">
<title>Chloe</title>
<ellipse fill="none" stroke="black" cx="1077.25" cy="-162" rx="37.09" ry="18"/>
<text text-anchor="middle" x="1077.25" y="-158.3" font-family="Times,serif" font-size="14.00">Chloe</text>
</g>
<!-- Anna -->
<g id="node13" class="node">
<title>Anna</title>
<ellipse fill="none" stroke="black" cx="1166.25" cy="-162" rx="34.39" ry="18"/>
<text text-anchor="middle" x="1166.25" y="-158.3" font-family="Times,serif" font-size="14.00">Anna</text>
</g>
<!-- Camille -->
<g id="node15" class="node">
<title>Camille</title>
<ellipse fill="none" stroke="black" cx="1265.25" cy="-162" rx="46.29" ry="18"/>
<text text-anchor="middle" x="1265.25" y="-158.3" font-family="Times,serif" font-size="14.00">Camille</text>
</g>
<!-- Lou -->
<g id="node16" class="node">
<title>Lou</title>
<ellipse fill="none" stroke="black" cx="42.25" cy="-90" rx="27.9" ry="18"/>
<text text-anchor="middle" x="42.25" y="-86.3" font-family="Times,serif" font-size="14.00">Lou</text>
</g>
<!-- Lou&#45;&gt;Sophie -->
<g id="edge7" class="edge">
<title>Lou&#45;&gt;Sophie</title>
<path fill="none" stroke="black" d="M42.25,-71.7C42.25,-63.98 42.25,-54.71 42.25,-46.11"/>
<polygon fill="black" stroke="black" points="45.75,-46.1 42.25,-36.1 38.75,-46.1 45.75,-46.1"/>
</g>
<!-- Mathilde -->
<g id="node17" class="node">
<title>Mathilde</title>
<ellipse fill="none" stroke="black" cx="1381.25" cy="-162" rx="51.99" ry="18"/>
<text text-anchor="middle" x="1381.25" y="-158.3" font-family="Times,serif" font-size="14.00">Mathilde</text>
</g>
<!-- Iris -->
<g id="node19" class="node">
<title>Iris</title>
<ellipse fill="none" stroke="black" cx="1503.25" cy="-90" rx="27" ry="18"/>
<text text-anchor="middle" x="1503.25" y="-86.3" font-family="Times,serif" font-size="14.00">Iris</text>
</g>
<!-- David -->
<g id="node20" class="node">
<title>David</title>
<ellipse fill="none" stroke="black" cx="42.25" cy="-162" rx="37.89" ry="18"/>
<text text-anchor="middle" x="42.25" y="-158.3" font-family="Times,serif" font-size="14.00">David</text>
</g>
<!-- David&#45;&gt;Lou -->
<g id="edge4" class="edge">
<title>David&#45;&gt;Lou</title>
<path fill="none" stroke="black" d="M42.25,-143.7C42.25,-135.98 42.25,-126.71 42.25,-118.11"/>
<polygon fill="black" stroke="black" points="45.75,-118.1 42.25,-108.1 38.75,-118.1 45.75,-118.1"/>
</g>
<!-- Soukaina -->
<g id="node21" class="node">
<title>Soukaina</title>
<ellipse fill="none" stroke="black" cx="1626.25" cy="-162" rx="53.09" ry="18"/>
<text text-anchor="middle" x="1626.25" y="-158.3" font-family="Times,serif" font-size="14.00">Soukaina</text>
</g>
<!-- Jade -->
<g id="node22" class="node">
<title>Jade</title>
<ellipse fill="none" stroke="black" cx="1728.25" cy="-162" rx="30.59" ry="18"/>
<text text-anchor="middle" x="1728.25" y="-158.3" font-family="Times,serif" font-size="14.00">Jade</text>
</g>
<!-- Aude -->
<g id="node23" class="node">
<title>Aude</title>
<ellipse fill="none" stroke="black" cx="1811.25" cy="-162" rx="34.39" ry="18"/>
<text text-anchor="middle" x="1811.25" y="-158.3" font-family="Times,serif" font-size="14.00">Aude</text>
</g>
<!-- Marcelin -->
<g id="node24" class="node">
<title>Marcelin</title>
<ellipse fill="none" stroke="black" cx="1503.25" cy="-162" rx="51.99" ry="18"/>
<text text-anchor="middle" x="1503.25" y="-158.3" font-family="Times,serif" font-size="14.00">Marcelin</text>
</g>
<!-- Marcelin&#45;&gt;Iris -->
<g id="edge5" class="edge">
<title>Marcelin&#45;&gt;Iris</title>
<path fill="none" stroke="black" d="M1503.25,-143.7C1503.25,-135.98 1503.25,-126.71 1503.25,-118.11"/>
<polygon fill="black" stroke="black" points="1506.75,-118.1 1503.25,-108.1 1499.75,-118.1 1506.75,-118.1"/>
</g>
<!-- Lena -->
<g id="node25" class="node">
<title>Lena</title>
<ellipse fill="none" stroke="black" cx="1897.25" cy="-162" rx="33.29" ry="18"/>
<text text-anchor="middle" x="1897.25" y="-158.3" font-family="Times,serif" font-size="14.00">Lena</text>
</g>
<!-- Veronique -->
<g id="node26" class="node">
<title>Veronique</title>
<ellipse fill="none" stroke="black" cx="2006.25" cy="-162" rx="57.69" ry="18"/>
<text text-anchor="middle" x="2006.25" y="-158.3" font-family="Times,serif" font-size="14.00">Veronique</text>
</g>
<!-- Ange -->
<g id="node27" class="node">
<title>Ange</title>
<ellipse fill="none" stroke="black" cx="2116.25" cy="-162" rx="34.39" ry="18"/>
<text text-anchor="middle" x="2116.25" y="-158.3" font-family="Times,serif" font-size="14.00">Ange</text>
</g>
<!-- Delphine -->
<g id="node29" class="node">
<title>Delphine</title>
<ellipse fill="none" stroke="black" cx="150.25" cy="-162" rx="51.99" ry="18"/>
<text text-anchor="middle" x="150.25" y="-158.3" font-family="Times,serif" font-size="14.00">Delphine</text>
</g>
<!-- Delphine&#45;&gt;Julie -->
<g id="edge9" class="edge">
<title>Delphine&#45;&gt;Julie</title>
<path fill="none" stroke="black" d="M146.54,-143.7C144.89,-135.98 142.9,-126.71 141.06,-118.11"/>
<polygon fill="black" stroke="black" points="144.43,-117.15 138.91,-108.1 137.58,-118.62 144.43,-117.15"/>
</g>
<!-- Charlotte -->
<g id="node30" class="node">
<title>Charlotte</title>
<ellipse fill="none" stroke="black" cx="239.25" cy="-90" rx="54.69" ry="18"/>
<text text-anchor="middle" x="239.25" y="-86.3" font-family="Times,serif" font-size="14.00">Charlotte</text>
</g>
<!-- Delphine&#45;&gt;Charlotte -->
<g id="edge6" class="edge">
<title>Delphine&#45;&gt;Charlotte</title>
<path fill="none" stroke="black" d="M170.44,-145.12C182.5,-135.63 198,-123.44 211.24,-113.03"/>
<polygon fill="black" stroke="black" points="213.43,-115.75 219.13,-106.82 209.11,-110.25 213.43,-115.75"/>
</g>
<!-- Helene -->
<g id="node31" class="node">
<title>Helene</title>
<ellipse fill="none" stroke="black" cx="2212.25" cy="-162" rx="43.59" ry="18"/>
<text text-anchor="middle" x="2212.25" y="-158.3" font-family="Times,serif" font-size="14.00">Helene</text>
</g>
<!-- Mila -->
<g id="node32" class="node">
<title>Mila</title>
<ellipse fill="none" stroke="black" cx="2312.25" cy="-90" rx="31.4" ry="18"/>
<text text-anchor="middle" x="2312.25" y="-86.3" font-family="Times,serif" font-size="14.00">Mila</text>
</g>
<!-- Louise -->
<g id="node33" class="node">
<title>Louise</title>
<ellipse fill="none" stroke="black" cx="2409.25" cy="-162" rx="40.89" ry="18"/>
<text text-anchor="middle" x="2409.25" y="-158.3" font-family="Times,serif" font-size="14.00">Louise</text>
</g>
<!-- Aaron -->
<g id="node34" class="node">
<title>Aaron</title>
<ellipse fill="none" stroke="black" cx="2312.25" cy="-162" rx="38.19" ry="18"/>
<text text-anchor="middle" x="2312.25" y="-158.3" font-family="Times,serif" font-size="14.00">Aaron</text>
</g>
<!-- Aaron&#45;&gt;Mila -->
<g id="edge10" class="edge">
<title>Aaron&#45;&gt;Mila</title>
<path fill="none" stroke="black" d="M2312.25,-143.7C2312.25,-135.98 2312.25,-126.71 2312.25,-118.11"/>
<polygon fill="black" stroke="black" points="2315.75,-118.1 2312.25,-108.1 2308.75,-118.1 2315.75,-118.1"/>
</g>
</g>
</svg>
