<?xml version="1.0" encoding="UTF-8" standalone="no"?>
<!DOCTYPE svg PUBLIC "-//W3C//DTD SVG 1.1//EN"
 "http://www.w3.org/Graphics/SVG/1.1/DTD/svg11.dtd">
<!-- Generated by graphviz version 3.0.0 (0)
 -->
<!-- Title: G Pages: 1 -->
<svg width="2814pt" height="116pt"
 viewBox="0.00 0.00 2814.39 116.00" xmlns="http://www.w3.org/2000/svg" xmlns:xlink="http://www.w3.org/1999/xlink">
<g id="graph0" class="graph" transform="scale(1 1) rotate(0) translate(4 112)">
<title>G</title>
<polygon fill="white" stroke="transparent" points="-4,4 -4,-112 2810.39,-112 2810.39,4 -4,4"/>
<!-- Sophie -->
<g id="node1" class="node">
<title>Sophie</title>
<ellipse fill="none" stroke="black" cx="44.2" cy="-90" rx="42.49" ry="18"/>
<text text-anchor="middle" x="44.2" y="-86.3" font-family="Times,serif" font-size="14.00">Sophie</text>
</g>
<!-- Aurelie -->
<g id="node31" class="node">
<title>Aurelie</title>
<ellipse fill="none" stroke="black" cx="44.2" cy="-18" rx="44.39" ry="18"/>
<text text-anchor="middle" x="44.2" y="-14.3" font-family="Times,serif" font-size="14.00">Aurelie</text>
</g>
<!-- Sophie&#45;&gt;Aurelie -->
<g id="edge3" class="edge">
<title>Sophie&#45;&gt;Aurelie</title>
<path fill="none" stroke="black" d="M44.2,-71.7C44.2,-63.98 44.2,-54.71 44.2,-46.11"/>
<polygon fill="black" stroke="black" points="47.7,-46.1 44.2,-36.1 40.7,-46.1 47.7,-46.1"/>
</g>
<!-- Lamia -->
<g id="node2" class="node">
<title>Lamia</title>
<ellipse fill="none" stroke="black" cx="143.2" cy="-90" rx="38.99" ry="18"/>
<text text-anchor="middle" x="143.2" y="-86.3" font-family="Times,serif" font-size="14.00">Lamia</text>
</g>
<!-- Ines -->
<g id="node3" class="node">
<title>Ines</title>
<ellipse fill="none" stroke="black" cx="231.2" cy="-90" rx="30.59" ry="18"/>
<text text-anchor="middle" x="231.2" y="-86.3" font-family="Times,serif" font-size="14.00">Ines</text>
</g>
<!-- Lalie -->
<g id="node4" class="node">
<title>Lalie</title>
<ellipse fill="none" stroke="black" cx="231.2" cy="-18" rx="33.29" ry="18"/>
<text text-anchor="middle" x="231.2" y="-14.3" font-family="Times,serif" font-size="14.00">Lalie</text>
</g>
<!-- Ines&#45;&gt;Lalie -->
<g id="edge1" class="edge">
<title>Ines&#45;&gt;Lalie</title>
<path fill="none" stroke="black" d="M231.2,-71.7C231.2,-63.98 231.2,-54.71 231.2,-46.11"/>
<polygon fill="black" stroke="black" points="234.7,-46.1 231.2,-36.1 227.7,-46.1 234.7,-46.1"/>
</g>
<!-- Emma -->
<g id="node5" class="node">
<title>Emma</title>
<ellipse fill="none" stroke="black" cx="320.2" cy="-90" rx="40.09" ry="18"/>
<text text-anchor="middle" x="320.2" y="-86.3" font-family="Times,serif" font-size="14.00">Emma</text>
</g>
<!-- Caroline -->
<g id="node6" class="node">
<title>Caroline</title>
<ellipse fill="none" stroke="black" cx="428.2" cy="-90" rx="50.09" ry="18"/>
<text text-anchor="middle" x="428.2" y="-86.3" font-family="Times,serif" font-size="14.00">Caroline</text>
</g>
<!-- Alice -->
<g id="node7" class="node">
<title>Alice</title>
<ellipse fill="none" stroke="black" cx="503.2" cy="-18" rx="33.29" ry="18"/>
<text text-anchor="middle" x="503.2" y="-14.3" font-family="Times,serif" font-size="14.00">Alice</text>
</g>
<!-- Marie -->
<g id="node8" class="node">
<title>Marie</title>
<ellipse fill="none" stroke="black" cx="592.2" cy="-18" rx="38.19" ry="18"/>
<text text-anchor="middle" x="592.2" y="-14.3" font-family="Times,serif" font-size="14.00">Marie</text>
</g>
<!-- Chloe -->
<g id="node9" class="node">
<title>Chloe</title>
<ellipse fill="none" stroke="black" cx="655.2" cy="-90" rx="37.09" ry="18"/>
<text text-anchor="middle" x="655.2" y="-86.3" font-family="Times,serif" font-size="14.00">Chloe</text>
</g>
<!-- Mathilde -->
<g id="node10" class="node">
<title>Mathilde</title>
<ellipse fill="none" stroke="black" cx="762.2" cy="-90" rx="51.99" ry="18"/>
<text text-anchor="middle" x="762.2" y="-86.3" font-family="Times,serif" font-size="14.00">Mathilde</text>
</g>
<!-- Valerie -->
<g id="node11" class="node">
<title>Valerie</title>
<ellipse fill="none" stroke="black" cx="875.2" cy="-90" rx="42.79" ry="18"/>
<text text-anchor="middle" x="875.2" y="-86.3" font-family="Times,serif" font-size="14.00">Valerie</text>
</g>
<!-- Mia -->
<g id="node12" class="node">
<title>Mia</title>
<ellipse fill="none" stroke="black" cx="964.2" cy="-90" rx="28.7" ry="18"/>
<text text-anchor="middle" x="964.2" y="-86.3" font-family="Times,serif" font-size="14.00">Mia</text>
</g>
<!-- Julia -->
<g id="node13" class="node">
<title>Julia</title>
<ellipse fill="none" stroke="black" cx="1042.2" cy="-90" rx="31.4" ry="18"/>
<text text-anchor="middle" x="1042.2" y="-86.3" font-family="Times,serif" font-size="14.00">Julia</text>
</g>
<!-- Agathe -->
<g id="node14" class="node">
<title>Agathe</title>
<ellipse fill="none" stroke="black" cx="1135.2" cy="-90" rx="43.59" ry="18"/>
<text text-anchor="middle" x="1135.2" y="-86.3" font-family="Times,serif" font-size="14.00">Agathe</text>
</g>
<!-- Camille -->
<g id="node15" class="node">
<title>Camille</title>
<ellipse fill="none" stroke="black" cx="1243.2" cy="-90" rx="46.29" ry="18"/>
<text text-anchor="middle" x="1243.2" y="-86.3" font-family="Times,serif" font-size="14.00">Camille</text>
</g>
<!-- Lou -->
<g id="node16" class="node">
<title>Lou</title>
<ellipse fill="none" stroke="black" cx="1335.2" cy="-90" rx="27.9" ry="18"/>
<text text-anchor="middle" x="1335.2" y="-86.3" font-family="Times,serif" font-size="14.00">Lou</text>
</g>
<!-- Anna -->
<g id="node17" class="node">
<title>Anna</title>
<ellipse fill="none" stroke="black" cx="1415.2" cy="-90" rx="34.39" ry="18"/>
<text text-anchor="middle" x="1415.2" y="-86.3" font-family="Times,serif" font-size="14.00">Anna</text>
</g>
<!-- Iris -->
<g id="node18" class="node">
<title>Iris</title>
<ellipse fill="none" stroke="black" cx="1494.2" cy="-90" rx="27" ry="18"/>
<text text-anchor="middle" x="1494.2" y="-86.3" font-family="Times,serif" font-size="14.00">Iris</text>
</g>
<!-- Jade -->
<g id="node19" class="node">
<title>Jade</title>
<ellipse fill="none" stroke="black" cx="1570.2" cy="-90" rx="30.59" ry="18"/>
<text text-anchor="middle" x="1570.2" y="-86.3" font-family="Times,serif" font-size="14.00">Jade</text>
</g>
<!-- Pauline -->
<g id="node20" class="node">
<title>Pauline</title>
<ellipse fill="none" stroke="black" cx="1663.2" cy="-90" rx="44.69" ry="18"/>
<text text-anchor="middle" x="1663.2" y="-86.3" font-family="Times,serif" font-size="14.00">Pauline</text>
</g>
<!-- Lena -->
<g id="node21" class="node">
<title>Lena</title>
<ellipse fill="none" stroke="black" cx="1759.2" cy="-90" rx="33.29" ry="18"/>
<text text-anchor="middle" x="1759.2" y="-86.3" font-family="Times,serif" font-size="14.00">Lena</text>
</g>
<!-- Veronique -->
<g id="node22" class="node">
<title>Veronique</title>
<ellipse fill="none" stroke="black" cx="1868.2" cy="-90" rx="57.69" ry="18"/>
<text text-anchor="middle" x="1868.2" y="-86.3" font-family="Times,serif" font-size="14.00">Veronique</text>
</g>
<!-- Ange -->
<g id="node23" class="node">
<title>Ange</title>
<ellipse fill="none" stroke="black" cx="1978.2" cy="-90" rx="34.39" ry="18"/>
<text text-anchor="middle" x="1978.2" y="-86.3" font-family="Times,serif" font-size="14.00">Ange</text>
</g>
<!-- Delphine -->
<g id="node24" class="node">
<title>Delphine</title>
<ellipse fill="none" stroke="black" cx="548.2" cy="-90" rx="51.99" ry="18"/>
<text text-anchor="middle" x="548.2" y="-86.3" font-family="Times,serif" font-size="14.00">Delphine</text>
</g>
<!-- Delphine&#45;&gt;Alice -->
<g id="edge4" class="edge">
<title>Delphine&#45;&gt;Alice</title>
<path fill="none" stroke="black" d="M537.3,-72.05C531.86,-63.59 525.18,-53.19 519.17,-43.84"/>
<polygon fill="black" stroke="black" points="522.03,-41.83 513.68,-35.31 516.14,-45.61 522.03,-41.83"/>
</g>
<!-- Delphine&#45;&gt;Marie -->
<g id="edge2" class="edge">
<title>Delphine&#45;&gt;Marie</title>
<path fill="none" stroke="black" d="M558.85,-72.05C564.04,-63.8 570.38,-53.7 576.14,-44.54"/>
<polygon fill="black" stroke="black" points="579.28,-46.12 581.64,-35.79 573.36,-42.39 579.28,-46.12"/>
</g>
<!-- Ambre -->
<g id="node25" class="node">
<title>Ambre</title>
<ellipse fill="none" stroke="black" cx="2072.2" cy="-90" rx="41.69" ry="18"/>
<text text-anchor="middle" x="2072.2" y="-86.3" font-family="Times,serif" font-size="14.00">Ambre</text>
</g>
<!-- Helene -->
<g id="node26" class="node">
<title>Helene</title>
<ellipse fill="none" stroke="black" cx="2175.2" cy="-90" rx="43.59" ry="18"/>
<text text-anchor="middle" x="2175.2" y="-86.3" font-family="Times,serif" font-size="14.00">Helene</text>
</g>
<!-- Ghita -->
<g id="node27" class="node">
<title>Ghita</title>
<ellipse fill="none" stroke="black" cx="2273.2" cy="-90" rx="36.29" ry="18"/>
<text text-anchor="middle" x="2273.2" y="-86.3" font-family="Times,serif" font-size="14.00">Ghita</text>
</g>
<!-- Charlotte -->
<g id="node28" class="node">
<title>Charlotte</title>
<ellipse fill="none" stroke="black" cx="2382.2" cy="-90" rx="54.69" ry="18"/>
<text text-anchor="middle" x="2382.2" y="-86.3" font-family="Times,serif" font-size="14.00">Charlotte</text>
</g>
<!-- Aude -->
<g id="node29" class="node">
<title>Aude</title>
<ellipse fill="none" stroke="black" cx="2489.2" cy="-90" rx="34.39" ry="18"/>
<text text-anchor="middle" x="2489.2" y="-86.3" font-family="Times,serif" font-size="14.00">Aude</text>
</g>
<!-- Manon -->
<g id="node30" class="node">
<title>Manon</title>
<ellipse fill="none" stroke="black" cx="2584.2" cy="-90" rx="42.49" ry="18"/>
<text text-anchor="middle" x="2584.2" y="-86.3" font-family="Times,serif" font-size="14.00">Manon</text>
</g>
<!-- Louise -->
<g id="node32" class="node">
<title>Louise</title>
<ellipse fill="none" stroke="black" cx="2685.2" cy="-90" rx="40.89" ry="18"/>
<text text-anchor="middle" x="2685.2" y="-86.3" font-family="Times,serif" font-size="14.00">Louise</text>
</g>
<!-- Mila -->
<g id="node33" class="node">
<title>Mila</title>
<ellipse fill="none" stroke="black" cx="2775.2" cy="-90" rx="31.4" ry="18"/>
<text text-anchor="middle" x="2775.2" y="-86.3" font-family="Times,serif" font-size="14.00">Mila</text>
</g>
</g>
</svg>
