<?xml version="1.0" encoding="UTF-8" standalone="no"?>
<!DOCTYPE svg PUBLIC "-//W3C//DTD SVG 1.1//EN"
 "http://www.w3.org/Graphics/SVG/1.1/DTD/svg11.dtd">
<!-- Generated by graphviz version 3.0.0 (0)
 -->
<!-- Title: G Pages: 1 -->
<svg width="2632pt" height="188pt"
 viewBox="0.00 0.00 2632.19 188.00" xmlns="http://www.w3.org/2000/svg" xmlns:xlink="http://www.w3.org/1999/xlink">
<g id="graph0" class="graph" transform="scale(1 1) rotate(0) translate(4 184)">
<title>G</title>
<polygon fill="white" stroke="transparent" points="-4,4 -4,-184 2628.19,-184 2628.19,4 -4,4"/>
<!-- Sophie -->
<g id="node1" class="node">
<title>Sophie</title>
<ellipse fill="none" stroke="black" cx="42.25" cy="-162" rx="42.49" ry="18"/>
<text text-anchor="middle" x="42.25" y="-158.3" font-family="Times,serif" font-size="14.00">Sophie</text>
</g>
<!-- Lina -->
<g id="node2" class="node">
<title>Lina</title>
<ellipse fill="none" stroke="black" cx="133.25" cy="-90" rx="30.59" ry="18"/>
<text text-anchor="middle" x="133.25" y="-86.3" font-family="Times,serif" font-size="14.00">Lina</text>
</g>
<!-- Ines -->
<g id="node3" class="node">
<title>Ines</title>
<ellipse fill="none" stroke="black" cx="133.25" cy="-162" rx="30.59" ry="18"/>
<text text-anchor="middle" x="133.25" y="-158.3" font-family="Times,serif" font-size="14.00">Ines</text>
</g>
<!-- Ines&#45;&gt;Lina -->
<g id="edge3" class="edge">
<title>Ines&#45;&gt;Lina</title>
<path fill="none" stroke="black" d="M133.25,-143.7C133.25,-135.98 133.25,-126.71 133.25,-118.11"/>
<polygon fill="black" stroke="black" points="136.75,-118.1 133.25,-108.1 129.75,-118.1 136.75,-118.1"/>
</g>
<!-- Lalie -->
<g id="node4" class="node">
<title>Lalie</title>
<ellipse fill="none" stroke="black" cx="220.25" cy="-162" rx="33.29" ry="18"/>
<text text-anchor="middle" x="220.25" y="-158.3" font-family="Times,serif" font-size="14.00">Lalie</text>
</g>
<!-- Alice -->
<g id="node5" class="node">
<title>Alice</title>
<ellipse fill="none" stroke="black" cx="420.25" cy="-18" rx="33.29" ry="18"/>
<text text-anchor="middle" x="420.25" y="-14.3" font-family="Times,serif" font-size="14.00">Alice</text>
</g>
<!-- Ambre -->
<g id="node6" class="node">
<title>Ambre</title>
<ellipse fill="none" stroke="black" cx="533.25" cy="-162" rx="41.69" ry="18"/>
<text text-anchor="middle" x="533.25" y="-158.3" font-family="Times,serif" font-size="14.00">Ambre</text>
</g>
<!-- Emma -->
<g id="node7" class="node">
<title>Emma</title>
<ellipse fill="none" stroke="black" cx="630.25" cy="-90" rx="40.09" ry="18"/>
<text text-anchor="middle" x="630.25" y="-86.3" font-family="Times,serif" font-size="14.00">Emma</text>
</g>
<!-- Caroline -->
<g id="node8" class="node">
<title>Caroline</title>
<ellipse fill="none" stroke="black" cx="312.25" cy="-90" rx="50.09" ry="18"/>
<text text-anchor="middle" x="312.25" y="-86.3" font-family="Times,serif" font-size="14.00">Caroline</text>
</g>
<!-- Caroline&#45;&gt;Alice -->
<g id="edge4" class="edge">
<title>Caroline&#45;&gt;Alice</title>
<path fill="none" stroke="black" d="M335.41,-73.98C351.67,-63.45 373.53,-49.28 390.99,-37.96"/>
<polygon fill="black" stroke="black" points="393.18,-40.71 399.67,-32.34 389.37,-34.84 393.18,-40.71"/>
</g>
<!-- Zoe -->
<g id="node9" class="node">
<title>Zoe</title>
<ellipse fill="none" stroke="black" cx="630.25" cy="-162" rx="27.9" ry="18"/>
<text text-anchor="middle" x="630.25" y="-158.3" font-family="Times,serif" font-size="14.00">Zoe</text>
</g>
<!-- Zoe&#45;&gt;Emma -->
<g id="edge1" class="edge">
<title>Zoe&#45;&gt;Emma</title>
<path fill="none" stroke="black" d="M630.25,-143.7C630.25,-135.98 630.25,-126.71 630.25,-118.11"/>
<polygon fill="black" stroke="black" points="633.75,-118.1 630.25,-108.1 626.75,-118.1 633.75,-118.1"/>
</g>
<!-- Lea -->
<g id="node10" class="node">
<title>Lea</title>
<ellipse fill="none" stroke="black" cx="303.25" cy="-162" rx="27.1" ry="18"/>
<text text-anchor="middle" x="303.25" y="-158.3" font-family="Times,serif" font-size="14.00">Lea</text>
</g>
<!-- Lea&#45;&gt;Caroline -->
<g id="edge8" class="edge">
<title>Lea&#45;&gt;Caroline</title>
<path fill="none" stroke="black" d="M305.42,-144.05C306.42,-136.35 307.61,-127.03 308.73,-118.36"/>
<polygon fill="black" stroke="black" points="312.22,-118.64 310.03,-108.28 305.28,-117.75 312.22,-118.64"/>
</g>
<!-- Julie -->
<g id="node19" class="node">
<title>Julie</title>
<ellipse fill="none" stroke="black" cx="213.25" cy="-90" rx="31.4" ry="18"/>
<text text-anchor="middle" x="213.25" y="-86.3" font-family="Times,serif" font-size="14.00">Julie</text>
</g>
<!-- Lea&#45;&gt;Julie -->
<g id="edge2" class="edge">
<title>Lea&#45;&gt;Julie</title>
<path fill="none" stroke="black" d="M286.32,-147.83C273,-137.47 254.22,-122.87 239.03,-111.06"/>
<polygon fill="black" stroke="black" points="241.06,-108.2 231.02,-104.83 236.77,-113.73 241.06,-108.2"/>
</g>
<!-- Didier -->
<g id="node11" class="node">
<title>Didier</title>
<ellipse fill="none" stroke="black" cx="716.25" cy="-162" rx="39.79" ry="18"/>
<text text-anchor="middle" x="716.25" y="-158.3" font-family="Times,serif" font-size="14.00">Didier</text>
</g>
<!-- Juliette -->
<g id="node12" class="node">
<title>Juliette</title>
<ellipse fill="none" stroke="black" cx="818.25" cy="-162" rx="44.39" ry="18"/>
<text text-anchor="middle" x="818.25" y="-158.3" font-family="Times,serif" font-size="14.00">Juliette</text>
</g>
<!-- Mathilde -->
<g id="node13" class="node">
<title>Mathilde</title>
<ellipse fill="none" stroke="black" cx="932.25" cy="-162" rx="51.99" ry="18"/>
<text text-anchor="middle" x="932.25" y="-158.3" font-family="Times,serif" font-size="14.00">Mathilde</text>
</g>
<!-- Anna -->
<g id="node14" class="node">
<title>Anna</title>
<ellipse fill="none" stroke="black" cx="1030.25" cy="-90" rx="34.39" ry="18"/>
<text text-anchor="middle" x="1030.25" y="-86.3" font-family="Times,serif" font-size="14.00">Anna</text>
</g>
<!-- Pauline -->
<g id="node15" class="node">
<title>Pauline</title>
<ellipse fill="none" stroke="black" cx="527.25" cy="-90" rx="44.69" ry="18"/>
<text text-anchor="middle" x="527.25" y="-86.3" font-family="Times,serif" font-size="14.00">Pauline</text>
</g>
<!-- Pauline&#45;&gt;Alice -->
<g id="edge5" class="edge">
<title>Pauline&#45;&gt;Alice</title>
<path fill="none" stroke="black" d="M504.82,-74.33C488.74,-63.81 466.94,-49.55 449.5,-38.14"/>
<polygon fill="black" stroke="black" points="451.12,-35.02 440.84,-32.47 447.29,-40.87 451.12,-35.02"/>
</g>
<!-- Lou -->
<g id="node16" class="node">
<title>Lou</title>
<ellipse fill="none" stroke="black" cx="1030.25" cy="-162" rx="27.9" ry="18"/>
<text text-anchor="middle" x="1030.25" y="-158.3" font-family="Times,serif" font-size="14.00">Lou</text>
</g>
<!-- Lou&#45;&gt;Anna -->
<g id="edge9" class="edge">
<title>Lou&#45;&gt;Anna</title>
<path fill="none" stroke="black" d="M1030.25,-143.7C1030.25,-135.98 1030.25,-126.71 1030.25,-118.11"/>
<polygon fill="black" stroke="black" points="1033.75,-118.1 1030.25,-108.1 1026.75,-118.1 1033.75,-118.1"/>
</g>
<!-- Mia -->
<g id="node17" class="node">
<title>Mia</title>
<ellipse fill="none" stroke="black" cx="1105.25" cy="-162" rx="28.7" ry="18"/>
<text text-anchor="middle" x="1105.25" y="-158.3" font-family="Times,serif" font-size="14.00">Mia</text>
</g>
<!-- Iris -->
<g id="node18" class="node">
<title>Iris</title>
<ellipse fill="none" stroke="black" cx="1179.25" cy="-162" rx="27" ry="18"/>
<text text-anchor="middle" x="1179.25" y="-158.3" font-family="Times,serif" font-size="14.00">Iris</text>
</g>
<!-- Aude -->
<g id="node20" class="node">
<title>Aude</title>
<ellipse fill="none" stroke="black" cx="1258.25" cy="-162" rx="34.39" ry="18"/>
<text text-anchor="middle" x="1258.25" y="-158.3" font-family="Times,serif" font-size="14.00">Aude</text>
</g>
<!-- Veronique -->
<g id="node21" class="node">
<title>Veronique</title>
<ellipse fill="none" stroke="black" cx="1362.25" cy="-90" rx="57.69" ry="18"/>
<text text-anchor="middle" x="1362.25" y="-86.3" font-family="Times,serif" font-size="14.00">Veronique</text>
</g>
<!-- Soukaina -->
<g id="node22" class="node">
<title>Soukaina</title>
<ellipse fill="none" stroke="black" cx="1485.25" cy="-162" rx="53.09" ry="18"/>
<text text-anchor="middle" x="1485.25" y="-158.3" font-family="Times,serif" font-size="14.00">Soukaina</text>
</g>
<!-- Lamia -->
<g id="node23" class="node">
<title>Lamia</title>
<ellipse fill="none" stroke="black" cx="1595.25" cy="-162" rx="38.99" ry="18"/>
<text text-anchor="middle" x="1595.25" y="-158.3" font-family="Times,serif" font-size="14.00">Lamia</text>
</g>
<!-- Chloe -->
<g id="node24" class="node">
<title>Chloe</title>
<ellipse fill="none" stroke="black" cx="1689.25" cy="-162" rx="37.09" ry="18"/>
<text text-anchor="middle" x="1689.25" y="-158.3" font-family="Times,serif" font-size="14.00">Chloe</text>
</g>
<!-- Camille -->
<g id="node25" class="node">
<title>Camille</title>
<ellipse fill="none" stroke="black" cx="1790.25" cy="-162" rx="46.29" ry="18"/>
<text text-anchor="middle" x="1790.25" y="-158.3" font-family="Times,serif" font-size="14.00">Camille</text>
</g>
<!-- Marcelin -->
<g id="node26" class="node">
<title>Marcelin</title>
<ellipse fill="none" stroke="black" cx="1362.25" cy="-162" rx="51.99" ry="18"/>
<text text-anchor="middle" x="1362.25" y="-158.3" font-family="Times,serif" font-size="14.00">Marcelin</text>
</g>
<!-- Marcelin&#45;&gt;Veronique -->
<g id="edge6" class="edge">
<title>Marcelin&#45;&gt;Veronique</title>
<path fill="none" stroke="black" d="M1362.25,-143.7C1362.25,-135.98 1362.25,-126.71 1362.25,-118.11"/>
<polygon fill="black" stroke="black" points="1365.75,-118.1 1362.25,-108.1 1358.75,-118.1 1365.75,-118.1"/>
</g>
<!-- Valerie -->
<g id="node27" class="node">
<title>Valerie</title>
<ellipse fill="none" stroke="black" cx="1897.25" cy="-162" rx="42.79" ry="18"/>
<text text-anchor="middle" x="1897.25" y="-158.3" font-family="Times,serif" font-size="14.00">Valerie</text>
</g>
<!-- Lena -->
<g id="node28" class="node">
<title>Lena</title>
<ellipse fill="none" stroke="black" cx="1991.25" cy="-162" rx="33.29" ry="18"/>
<text text-anchor="middle" x="1991.25" y="-158.3" font-family="Times,serif" font-size="14.00">Lena</text>
</g>
<!-- Marie -->
<g id="node29" class="node">
<title>Marie</title>
<ellipse fill="none" stroke="black" cx="2080.25" cy="-162" rx="38.19" ry="18"/>
<text text-anchor="middle" x="2080.25" y="-158.3" font-family="Times,serif" font-size="14.00">Marie</text>
</g>
<!-- Delphine -->
<g id="node30" class="node">
<title>Delphine</title>
<ellipse fill="none" stroke="black" cx="411.25" cy="-162" rx="51.99" ry="18"/>
<text text-anchor="middle" x="411.25" y="-158.3" font-family="Times,serif" font-size="14.00">Delphine</text>
</g>
<!-- Delphine&#45;&gt;Caroline -->
<g id="edge7" class="edge">
<title>Delphine&#45;&gt;Caroline</title>
<path fill="none" stroke="black" d="M389.27,-145.46C375.47,-135.7 357.46,-122.97 342.34,-112.28"/>
<polygon fill="black" stroke="black" points="344,-109.17 333.82,-106.25 339.96,-114.88 344,-109.17"/>
</g>
<!-- Manon -->
<g id="node34" class="node">
<title>Manon</title>
<ellipse fill="none" stroke="black" cx="422.25" cy="-90" rx="42.49" ry="18"/>
<text text-anchor="middle" x="422.25" y="-86.3" font-family="Times,serif" font-size="14.00">Manon</text>
</g>
<!-- Delphine&#45;&gt;Manon -->
<g id="edge10" class="edge">
<title>Delphine&#45;&gt;Manon</title>
<path fill="none" stroke="black" d="M413.97,-143.7C415.18,-135.98 416.63,-126.71 417.99,-118.11"/>
<polygon fill="black" stroke="black" points="421.46,-118.53 419.56,-108.1 414.55,-117.44 421.46,-118.53"/>
</g>
<!-- Charlotte -->
<g id="node31" class="node">
<title>Charlotte</title>
<ellipse fill="none" stroke="black" cx="2191.25" cy="-162" rx="54.69" ry="18"/>
<text text-anchor="middle" x="2191.25" y="-158.3" font-family="Times,serif" font-size="14.00">Charlotte</text>
</g>
<!-- Ghita -->
<g id="node32" class="node">
<title>Ghita</title>
<ellipse fill="none" stroke="black" cx="2302.25" cy="-18" rx="36.29" ry="18"/>
<text text-anchor="middle" x="2302.25" y="-14.3" font-family="Times,serif" font-size="14.00">Ghita</text>
</g>
<!-- Jade -->
<g id="node33" class="node">
<title>Jade</title>
<ellipse fill="none" stroke="black" cx="2389.25" cy="-162" rx="30.59" ry="18"/>
<text text-anchor="middle" x="2389.25" y="-158.3" font-family="Times,serif" font-size="14.00">Jade</text>
</g>
<!-- Mila -->
<g id="node35" class="node">
<title>Mila</title>
<ellipse fill="none" stroke="black" cx="2302.25" cy="-90" rx="31.4" ry="18"/>
<text text-anchor="middle" x="2302.25" y="-86.3" font-family="Times,serif" font-size="14.00">Mila</text>
</g>
<!-- Mila&#45;&gt;Ghita -->
<g id="edge11" class="edge">
<title>Mila&#45;&gt;Ghita</title>
<path fill="none" stroke="black" d="M2302.25,-71.7C2302.25,-63.98 2302.25,-54.71 2302.25,-46.11"/>
<polygon fill="black" stroke="black" points="2305.75,-46.1 2302.25,-36.1 2298.75,-46.1 2305.75,-46.1"/>
</g>
<!-- Helene -->
<g id="node36" class="node">
<title>Helene</title>
<ellipse fill="none" stroke="black" cx="2481.25" cy="-162" rx="43.59" ry="18"/>
<text text-anchor="middle" x="2481.25" y="-158.3" font-family="Times,serif" font-size="14.00">Helene</text>
</g>
<!-- Louise -->
<g id="node37" class="node">
<title>Louise</title>
<ellipse fill="none" stroke="black" cx="2583.25" cy="-162" rx="40.89" ry="18"/>
<text text-anchor="middle" x="2583.25" y="-158.3" font-family="Times,serif" font-size="14.00">Louise</text>
</g>
<!-- Aaron -->
<g id="node38" class="node">
<title>Aaron</title>
<ellipse fill="none" stroke="black" cx="2302.25" cy="-162" rx="38.19" ry="18"/>
<text text-anchor="middle" x="2302.25" y="-158.3" font-family="Times,serif" font-size="14.00">Aaron</text>
</g>
<!-- Aaron&#45;&gt;Mila -->
<g id="edge12" class="edge">
<title>Aaron&#45;&gt;Mila</title>
<path fill="none" stroke="black" d="M2302.25,-143.7C2302.25,-135.98 2302.25,-126.71 2302.25,-118.11"/>
<polygon fill="black" stroke="black" points="2305.75,-118.1 2302.25,-108.1 2298.75,-118.1 2305.75,-118.1"/>
</g>
</g>
</svg>
