<?xml version="1.0" encoding="UTF-8" standalone="no"?>
<!DOCTYPE svg PUBLIC "-//W3C//DTD SVG 1.1//EN"
 "http://www.w3.org/Graphics/SVG/1.1/DTD/svg11.dtd">
<!-- Generated by graphviz version 3.0.0 (0)
 -->
<!-- Title: G Pages: 1 -->
<svg width="492pt" height="116pt"
 viewBox="0.00 0.00 491.84 116.00" xmlns="http://www.w3.org/2000/svg" xmlns:xlink="http://www.w3.org/1999/xlink">
<g id="graph0" class="graph" transform="scale(1 1) rotate(0) translate(4 112)">
<title>G</title>
<polygon fill="white" stroke="transparent" points="-4,4 -4,-112 487.84,-112 487.84,4 -4,4"/>
<!-- Alain -->
<g id="node1" class="node">
<title>Alain</title>
<ellipse fill="none" stroke="black" cx="38.6" cy="-90" rx="34.39" ry="18"/>
<text text-anchor="middle" x="38.6" y="-86.3" font-family="Times,serif" font-size="14.00">Alain</text>
</g>
<!-- Ambre -->
<g id="node2" class="node">
<title>Ambre</title>
<ellipse fill="none" stroke="black" cx="41.6" cy="-18" rx="41.69" ry="18"/>
<text text-anchor="middle" x="41.6" y="-14.3" font-family="Times,serif" font-size="14.00">Ambre</text>
</g>
<!-- Alain&#45;&gt;Ambre -->
<g id="edge1" class="edge">
<title>Alain&#45;&gt;Ambre</title>
<path fill="none" stroke="black" d="M39.34,-71.7C39.67,-63.98 40.07,-54.71 40.43,-46.11"/>
<polygon fill="black" stroke="black" points="43.93,-46.25 40.86,-36.1 36.94,-45.95 43.93,-46.25"/>
</g>
<!-- Didier -->
<g id="node3" class="node">
<title>Didier</title>
<ellipse fill="none" stroke="black" cx="130.6" cy="-90" rx="39.79" ry="18"/>
<text text-anchor="middle" x="130.6" y="-86.3" font-family="Times,serif" font-size="14.00">Didier</text>
</g>
<!-- Didier&#45;&gt;Ambre -->
<g id="edge2" class="edge">
<title>Didier&#45;&gt;Ambre</title>
<path fill="none" stroke="black" d="M111.72,-74.15C99.3,-64.38 82.83,-51.43 68.98,-40.54"/>
<polygon fill="black" stroke="black" points="70.77,-37.5 60.75,-34.07 66.45,-43 70.77,-37.5"/>
</g>
<!-- Lea -->
<g id="node8" class="node">
<title>Lea</title>
<ellipse fill="none" stroke="black" cx="130.6" cy="-18" rx="27.1" ry="18"/>
<text text-anchor="middle" x="130.6" y="-14.3" font-family="Times,serif" font-size="14.00">Lea</text>
</g>
<!-- Didier&#45;&gt;Lea -->
<g id="edge5" class="edge">
<title>Didier&#45;&gt;Lea</title>
<path fill="none" stroke="black" d="M130.6,-71.7C130.6,-63.98 130.6,-54.71 130.6,-46.11"/>
<polygon fill="black" stroke="black" points="134.1,-46.1 130.6,-36.1 127.1,-46.1 134.1,-46.1"/>
</g>
<!-- Anna -->
<g id="node4" class="node">
<title>Anna</title>
<ellipse fill="none" stroke="black" cx="225.6" cy="-18" rx="34.39" ry="18"/>
<text text-anchor="middle" x="225.6" y="-14.3" font-family="Times,serif" font-size="14.00">Anna</text>
</g>
<!-- David -->
<g id="node5" class="node">
<title>David</title>
<ellipse fill="none" stroke="black" cx="225.6" cy="-90" rx="37.89" ry="18"/>
<text text-anchor="middle" x="225.6" y="-86.3" font-family="Times,serif" font-size="14.00">David</text>
</g>
<!-- David&#45;&gt;Anna -->
<g id="edge3" class="edge">
<title>David&#45;&gt;Anna</title>
<path fill="none" stroke="black" d="M225.6,-71.7C225.6,-63.98 225.6,-54.71 225.6,-46.11"/>
<polygon fill="black" stroke="black" points="229.1,-46.1 225.6,-36.1 222.1,-46.1 229.1,-46.1"/>
</g>
<!-- Marcelin -->
<g id="node6" class="node">
<title>Marcelin</title>
<ellipse fill="none" stroke="black" cx="333.6" cy="-90" rx="51.99" ry="18"/>
<text text-anchor="middle" x="333.6" y="-86.3" font-family="Times,serif" font-size="14.00">Marcelin</text>
</g>
<!-- Ghita -->
<g id="node7" class="node">
<title>Ghita</title>
<ellipse fill="none" stroke="black" cx="333.6" cy="-18" rx="36.29" ry="18"/>
<text text-anchor="middle" x="333.6" y="-14.3" font-family="Times,serif" font-size="14.00">Ghita</text>
</g>
<!-- Marcelin&#45;&gt;Ghita -->
<g id="edge4" class="edge">
<title>Marcelin&#45;&gt;Ghita</title>
<path fill="none" stroke="black" d="M333.6,-71.7C333.6,-63.98 333.6,-54.71 333.6,-46.11"/>
<polygon fill="black" stroke="black" points="337.1,-46.1 333.6,-36.1 330.1,-46.1 337.1,-46.1"/>
</g>
<!-- Sophie -->
<g id="node9" class="node">
<title>Sophie</title>
<ellipse fill="none" stroke="black" cx="441.6" cy="-18" rx="42.49" ry="18"/>
<text text-anchor="middle" x="441.6" y="-14.3" font-family="Times,serif" font-size="14.00">Sophie</text>
</g>
<!-- Aaron -->
<g id="node10" class="node">
<title>Aaron</title>
<ellipse fill="none" stroke="black" cx="441.6" cy="-90" rx="38.19" ry="18"/>
<text text-anchor="middle" x="441.6" y="-86.3" font-family="Times,serif" font-size="14.00">Aaron</text>
</g>
<!-- Aaron&#45;&gt;Sophie -->
<g id="edge6" class="edge">
<title>Aaron&#45;&gt;Sophie</title>
<path fill="none" stroke="black" d="M441.6,-71.7C441.6,-63.98 441.6,-54.71 441.6,-46.11"/>
<polygon fill="black" stroke="black" points="445.1,-46.1 441.6,-36.1 438.1,-46.1 445.1,-46.1"/>
</g>
</g>
</svg>
