<?xml version="1.0" encoding="UTF-8" standalone="no"?>
<!DOCTYPE svg PUBLIC "-//W3C//DTD SVG 1.1//EN"
 "http://www.w3.org/Graphics/SVG/1.1/DTD/svg11.dtd">
<!-- Generated by graphviz version 3.0.0 (0)
 -->
<!-- Title: G Pages: 1 -->
<svg width="1618pt" height="116pt"
 viewBox="0.00 0.00 1618.09 116.00" xmlns="http://www.w3.org/2000/svg" xmlns:xlink="http://www.w3.org/1999/xlink">
<g id="graph0" class="graph" transform="scale(1 1) rotate(0) translate(4 112)">
<title>G</title>
<polygon fill="white" stroke="transparent" points="-4,4 -4,-112 1614.09,-112 1614.09,4 -4,4"/>
<!-- Ines -->
<g id="node1" class="node">
<title>Ines</title>
<ellipse fill="none" stroke="black" cx="30.55" cy="-90" rx="30.59" ry="18"/>
<text text-anchor="middle" x="30.55" y="-86.3" font-family="Times,serif" font-size="14.00">Ines</text>
</g>
<!-- Ambre -->
<g id="node2" class="node">
<title>Ambre</title>
<ellipse fill="none" stroke="black" cx="75.55" cy="-18" rx="41.69" ry="18"/>
<text text-anchor="middle" x="75.55" y="-14.3" font-family="Times,serif" font-size="14.00">Ambre</text>
</g>
<!-- Julie -->
<g id="node3" class="node">
<title>Julie</title>
<ellipse fill="none" stroke="black" cx="298.55" cy="-18" rx="31.4" ry="18"/>
<text text-anchor="middle" x="298.55" y="-14.3" font-family="Times,serif" font-size="14.00">Julie</text>
</g>
<!-- Lalie -->
<g id="node4" class="node">
<title>Lalie</title>
<ellipse fill="none" stroke="black" cx="417.55" cy="-90" rx="33.29" ry="18"/>
<text text-anchor="middle" x="417.55" y="-86.3" font-family="Times,serif" font-size="14.00">Lalie</text>
</g>
<!-- Alice -->
<g id="node5" class="node">
<title>Alice</title>
<ellipse fill="none" stroke="black" cx="501.55" cy="-90" rx="33.29" ry="18"/>
<text text-anchor="middle" x="501.55" y="-86.3" font-family="Times,serif" font-size="14.00">Alice</text>
</g>
<!-- Alain -->
<g id="node6" class="node">
<title>Alain</title>
<ellipse fill="none" stroke="black" cx="210.55" cy="-90" rx="34.39" ry="18"/>
<text text-anchor="middle" x="210.55" y="-86.3" font-family="Times,serif" font-size="14.00">Alain</text>
</g>
<!-- Alain&#45;&gt;Julie -->
<g id="edge1" class="edge">
<title>Alain&#45;&gt;Julie</title>
<path fill="none" stroke="black" d="M228.78,-74.5C241.57,-64.32 258.86,-50.57 273.02,-39.31"/>
<polygon fill="black" stroke="black" points="275.29,-41.97 280.94,-33.01 270.93,-36.49 275.29,-41.97"/>
</g>
<!-- Agathe -->
<g id="node7" class="node">
<title>Agathe</title>
<ellipse fill="none" stroke="black" cx="596.55" cy="-90" rx="43.59" ry="18"/>
<text text-anchor="middle" x="596.55" y="-86.3" font-family="Times,serif" font-size="14.00">Agathe</text>
</g>
<!-- Lea -->
<g id="node8" class="node">
<title>Lea</title>
<ellipse fill="none" stroke="black" cx="162.55" cy="-18" rx="27.1" ry="18"/>
<text text-anchor="middle" x="162.55" y="-14.3" font-family="Times,serif" font-size="14.00">Lea</text>
</g>
<!-- Didier -->
<g id="node9" class="node">
<title>Didier</title>
<ellipse fill="none" stroke="black" cx="118.55" cy="-90" rx="39.79" ry="18"/>
<text text-anchor="middle" x="118.55" y="-86.3" font-family="Times,serif" font-size="14.00">Didier</text>
</g>
<!-- Didier&#45;&gt;Ambre -->
<g id="edge2" class="edge">
<title>Didier&#45;&gt;Ambre</title>
<path fill="none" stroke="black" d="M108.36,-72.41C103.16,-63.95 96.74,-53.49 90.95,-44.08"/>
<polygon fill="black" stroke="black" points="93.88,-42.16 85.66,-35.47 87.92,-45.82 93.88,-42.16"/>
</g>
<!-- Didier&#45;&gt;Lea -->
<g id="edge4" class="edge">
<title>Didier&#45;&gt;Lea</title>
<path fill="none" stroke="black" d="M128.97,-72.41C134.37,-63.83 141.06,-53.19 147.04,-43.67"/>
<polygon fill="black" stroke="black" points="150.14,-45.32 152.5,-34.99 144.21,-41.59 150.14,-45.32"/>
</g>
<!-- Lou -->
<g id="node10" class="node">
<title>Lou</title>
<ellipse fill="none" stroke="black" cx="685.55" cy="-90" rx="27.9" ry="18"/>
<text text-anchor="middle" x="685.55" y="-86.3" font-family="Times,serif" font-size="14.00">Lou</text>
</g>
<!-- Camille -->
<g id="node11" class="node">
<title>Camille</title>
<ellipse fill="none" stroke="black" cx="777.55" cy="-90" rx="46.29" ry="18"/>
<text text-anchor="middle" x="777.55" y="-86.3" font-family="Times,serif" font-size="14.00">Camille</text>
</g>
<!-- Marcelin -->
<g id="node12" class="node">
<title>Marcelin</title>
<ellipse fill="none" stroke="black" cx="314.55" cy="-90" rx="51.99" ry="18"/>
<text text-anchor="middle" x="314.55" y="-86.3" font-family="Times,serif" font-size="14.00">Marcelin</text>
</g>
<!-- Marcelin&#45;&gt;Julie -->
<g id="edge3" class="edge">
<title>Marcelin&#45;&gt;Julie</title>
<path fill="none" stroke="black" d="M310.59,-71.7C308.83,-63.98 306.71,-54.71 304.74,-46.11"/>
<polygon fill="black" stroke="black" points="308.1,-45.07 302.46,-36.1 301.27,-46.63 308.1,-45.07"/>
</g>
<!-- Veronique -->
<g id="node13" class="node">
<title>Veronique</title>
<ellipse fill="none" stroke="black" cx="899.55" cy="-90" rx="57.69" ry="18"/>
<text text-anchor="middle" x="899.55" y="-86.3" font-family="Times,serif" font-size="14.00">Veronique</text>
</g>
<!-- Ange -->
<g id="node14" class="node">
<title>Ange</title>
<ellipse fill="none" stroke="black" cx="1009.55" cy="-90" rx="34.39" ry="18"/>
<text text-anchor="middle" x="1009.55" y="-86.3" font-family="Times,serif" font-size="14.00">Ange</text>
</g>
<!-- Delphine -->
<g id="node15" class="node">
<title>Delphine</title>
<ellipse fill="none" stroke="black" cx="1113.55" cy="-90" rx="51.99" ry="18"/>
<text text-anchor="middle" x="1113.55" y="-86.3" font-family="Times,serif" font-size="14.00">Delphine</text>
</g>
<!-- Aude -->
<g id="node16" class="node">
<title>Aude</title>
<ellipse fill="none" stroke="black" cx="1217.55" cy="-90" rx="34.39" ry="18"/>
<text text-anchor="middle" x="1217.55" y="-86.3" font-family="Times,serif" font-size="14.00">Aude</text>
</g>
<!-- Sophie -->
<g id="node17" class="node">
<title>Sophie</title>
<ellipse fill="none" stroke="black" cx="1308.55" cy="-18" rx="42.49" ry="18"/>
<text text-anchor="middle" x="1308.55" y="-14.3" font-family="Times,serif" font-size="14.00">Sophie</text>
</g>
<!-- Iris -->
<g id="node18" class="node">
<title>Iris</title>
<ellipse fill="none" stroke="black" cx="1391.55" cy="-90" rx="27" ry="18"/>
<text text-anchor="middle" x="1391.55" y="-86.3" font-family="Times,serif" font-size="14.00">Iris</text>
</g>
<!-- Anna -->
<g id="node19" class="node">
<title>Anna</title>
<ellipse fill="none" stroke="black" cx="1470.55" cy="-90" rx="34.39" ry="18"/>
<text text-anchor="middle" x="1470.55" y="-86.3" font-family="Times,serif" font-size="14.00">Anna</text>
</g>
<!-- Helene -->
<g id="node20" class="node">
<title>Helene</title>
<ellipse fill="none" stroke="black" cx="1566.55" cy="-90" rx="43.59" ry="18"/>
<text text-anchor="middle" x="1566.55" y="-86.3" font-family="Times,serif" font-size="14.00">Helene</text>
</g>
<!-- Aaron -->
<g id="node21" class="node">
<title>Aaron</title>
<ellipse fill="none" stroke="black" cx="1308.55" cy="-90" rx="38.19" ry="18"/>
<text text-anchor="middle" x="1308.55" y="-86.3" font-family="Times,serif" font-size="14.00">Aaron</text>
</g>
<!-- Aaron&#45;&gt;Sophie -->
<g id="edge5" class="edge">
<title>Aaron&#45;&gt;Sophie</title>
<path fill="none" stroke="black" d="M1308.55,-71.7C1308.55,-63.98 1308.55,-54.71 1308.55,-46.11"/>
<polygon fill="black" stroke="black" points="1312.05,-46.1 1308.55,-36.1 1305.05,-46.1 1312.05,-46.1"/>
</g>
</g>
</svg>
