<?xml version="1.0" encoding="UTF-8" standalone="no"?>
<!DOCTYPE svg PUBLIC "-//W3C//DTD SVG 1.1//EN"
 "http://www.w3.org/Graphics/SVG/1.1/DTD/svg11.dtd">
<!-- Generated by graphviz version 3.0.0 (0)
 -->
<!-- Title: G Pages: 1 -->
<svg width="1796pt" height="116pt"
 viewBox="0.00 0.00 1796.49 116.00" xmlns="http://www.w3.org/2000/svg" xmlns:xlink="http://www.w3.org/1999/xlink">
<g id="graph0" class="graph" transform="scale(1 1) rotate(0) translate(4 112)">
<title>G</title>
<polygon fill="white" stroke="transparent" points="-4,4 -4,-112 1792.49,-112 1792.49,4 -4,4"/>
<!-- Ines -->
<g id="node1" class="node">
<title>Ines</title>
<ellipse fill="none" stroke="black" cx="30.55" cy="-90" rx="30.59" ry="18"/>
<text text-anchor="middle" x="30.55" y="-86.3" font-family="Times,serif" font-size="14.00">Ines</text>
</g>
<!-- Julie -->
<g id="node2" class="node">
<title>Julie</title>
<ellipse fill="none" stroke="black" cx="110.55" cy="-90" rx="31.4" ry="18"/>
<text text-anchor="middle" x="110.55" y="-86.3" font-family="Times,serif" font-size="14.00">Julie</text>
</g>
<!-- Caroline -->
<g id="node3" class="node">
<title>Caroline</title>
<ellipse fill="none" stroke="black" cx="209.55" cy="-90" rx="50.09" ry="18"/>
<text text-anchor="middle" x="209.55" y="-86.3" font-family="Times,serif" font-size="14.00">Caroline</text>
</g>
<!-- Lina -->
<g id="node4" class="node">
<title>Lina</title>
<ellipse fill="none" stroke="black" cx="308.55" cy="-90" rx="30.59" ry="18"/>
<text text-anchor="middle" x="308.55" y="-86.3" font-family="Times,serif" font-size="14.00">Lina</text>
</g>
<!-- Ambre -->
<g id="node5" class="node">
<title>Ambre</title>
<ellipse fill="none" stroke="black" cx="398.55" cy="-90" rx="41.69" ry="18"/>
<text text-anchor="middle" x="398.55" y="-86.3" font-family="Times,serif" font-size="14.00">Ambre</text>
</g>
<!-- Agathe -->
<g id="node6" class="node">
<title>Agathe</title>
<ellipse fill="none" stroke="black" cx="398.55" cy="-18" rx="43.59" ry="18"/>
<text text-anchor="middle" x="398.55" y="-14.3" font-family="Times,serif" font-size="14.00">Agathe</text>
</g>
<!-- Ambre&#45;&gt;Agathe -->
<g id="edge1" class="edge">
<title>Ambre&#45;&gt;Agathe</title>
<path fill="none" stroke="black" d="M398.55,-71.7C398.55,-63.98 398.55,-54.71 398.55,-46.11"/>
<polygon fill="black" stroke="black" points="402.05,-46.1 398.55,-36.1 395.05,-46.1 402.05,-46.1"/>
</g>
<!-- Pauline -->
<g id="node7" class="node">
<title>Pauline</title>
<ellipse fill="none" stroke="black" cx="502.55" cy="-90" rx="44.69" ry="18"/>
<text text-anchor="middle" x="502.55" y="-86.3" font-family="Times,serif" font-size="14.00">Pauline</text>
</g>
<!-- Lea -->
<g id="node8" class="node">
<title>Lea</title>
<ellipse fill="none" stroke="black" cx="592.55" cy="-90" rx="27.1" ry="18"/>
<text text-anchor="middle" x="592.55" y="-86.3" font-family="Times,serif" font-size="14.00">Lea</text>
</g>
<!-- Didier -->
<g id="node21" class="node">
<title>Didier</title>
<ellipse fill="none" stroke="black" cx="592.55" cy="-18" rx="39.79" ry="18"/>
<text text-anchor="middle" x="592.55" y="-14.3" font-family="Times,serif" font-size="14.00">Didier</text>
</g>
<!-- Lea&#45;&gt;Didier -->
<g id="edge4" class="edge">
<title>Lea&#45;&gt;Didier</title>
<path fill="none" stroke="black" d="M592.55,-71.7C592.55,-63.98 592.55,-54.71 592.55,-46.11"/>
<polygon fill="black" stroke="black" points="596.05,-46.1 592.55,-36.1 589.05,-46.1 596.05,-46.1"/>
</g>
<!-- Soukaina -->
<g id="node9" class="node">
<title>Soukaina</title>
<ellipse fill="none" stroke="black" cx="691.55" cy="-90" rx="53.09" ry="18"/>
<text text-anchor="middle" x="691.55" y="-86.3" font-family="Times,serif" font-size="14.00">Soukaina</text>
</g>
<!-- Anna -->
<g id="node10" class="node">
<title>Anna</title>
<ellipse fill="none" stroke="black" cx="797.55" cy="-90" rx="34.39" ry="18"/>
<text text-anchor="middle" x="797.55" y="-86.3" font-family="Times,serif" font-size="14.00">Anna</text>
</g>
<!-- Jade -->
<g id="node11" class="node">
<title>Jade</title>
<ellipse fill="none" stroke="black" cx="880.55" cy="-90" rx="30.59" ry="18"/>
<text text-anchor="middle" x="880.55" y="-86.3" font-family="Times,serif" font-size="14.00">Jade</text>
</g>
<!-- Lamia -->
<g id="node12" class="node">
<title>Lamia</title>
<ellipse fill="none" stroke="black" cx="968.55" cy="-90" rx="38.99" ry="18"/>
<text text-anchor="middle" x="968.55" y="-86.3" font-family="Times,serif" font-size="14.00">Lamia</text>
</g>
<!-- Camille -->
<g id="node13" class="node">
<title>Camille</title>
<ellipse fill="none" stroke="black" cx="1071.55" cy="-90" rx="46.29" ry="18"/>
<text text-anchor="middle" x="1071.55" y="-86.3" font-family="Times,serif" font-size="14.00">Camille</text>
</g>
<!-- Zoe -->
<g id="node14" class="node">
<title>Zoe</title>
<ellipse fill="none" stroke="black" cx="1163.55" cy="-90" rx="27.9" ry="18"/>
<text text-anchor="middle" x="1163.55" y="-86.3" font-family="Times,serif" font-size="14.00">Zoe</text>
</g>
<!-- Marcelin -->
<g id="node15" class="node">
<title>Marcelin</title>
<ellipse fill="none" stroke="black" cx="1261.55" cy="-90" rx="51.99" ry="18"/>
<text text-anchor="middle" x="1261.55" y="-86.3" font-family="Times,serif" font-size="14.00">Marcelin</text>
</g>
<!-- Valerie -->
<g id="node17" class="node">
<title>Valerie</title>
<ellipse fill="none" stroke="black" cx="1261.55" cy="-18" rx="42.79" ry="18"/>
<text text-anchor="middle" x="1261.55" y="-14.3" font-family="Times,serif" font-size="14.00">Valerie</text>
</g>
<!-- Marcelin&#45;&gt;Valerie -->
<g id="edge2" class="edge">
<title>Marcelin&#45;&gt;Valerie</title>
<path fill="none" stroke="black" d="M1261.55,-71.7C1261.55,-63.98 1261.55,-54.71 1261.55,-46.11"/>
<polygon fill="black" stroke="black" points="1265.05,-46.1 1261.55,-36.1 1258.05,-46.1 1265.05,-46.1"/>
</g>
<!-- Veronique -->
<g id="node16" class="node">
<title>Veronique</title>
<ellipse fill="none" stroke="black" cx="1389.55" cy="-90" rx="57.69" ry="18"/>
<text text-anchor="middle" x="1389.55" y="-86.3" font-family="Times,serif" font-size="14.00">Veronique</text>
</g>
<!-- Delphine -->
<g id="node18" class="node">
<title>Delphine</title>
<ellipse fill="none" stroke="black" cx="1493.55" cy="-18" rx="51.99" ry="18"/>
<text text-anchor="middle" x="1493.55" y="-14.3" font-family="Times,serif" font-size="14.00">Delphine</text>
</g>
<!-- Mila -->
<g id="node19" class="node">
<title>Mila</title>
<ellipse fill="none" stroke="black" cx="1570.55" cy="-90" rx="31.4" ry="18"/>
<text text-anchor="middle" x="1570.55" y="-86.3" font-family="Times,serif" font-size="14.00">Mila</text>
</g>
<!-- Lou -->
<g id="node20" class="node">
<title>Lou</title>
<ellipse fill="none" stroke="black" cx="1493.55" cy="-90" rx="27.9" ry="18"/>
<text text-anchor="middle" x="1493.55" y="-86.3" font-family="Times,serif" font-size="14.00">Lou</text>
</g>
<!-- Lou&#45;&gt;Delphine -->
<g id="edge3" class="edge">
<title>Lou&#45;&gt;Delphine</title>
<path fill="none" stroke="black" d="M1493.55,-71.7C1493.55,-63.98 1493.55,-54.71 1493.55,-46.11"/>
<polygon fill="black" stroke="black" points="1497.05,-46.1 1493.55,-36.1 1490.05,-46.1 1497.05,-46.1"/>
</g>
<!-- Aude -->
<g id="node22" class="node">
<title>Aude</title>
<ellipse fill="none" stroke="black" cx="1654.55" cy="-90" rx="34.39" ry="18"/>
<text text-anchor="middle" x="1654.55" y="-86.3" font-family="Times,serif" font-size="14.00">Aude</text>
</g>
<!-- Louise -->
<g id="node23" class="node">
<title>Louise</title>
<ellipse fill="none" stroke="black" cx="1747.55" cy="-90" rx="40.89" ry="18"/>
<text text-anchor="middle" x="1747.55" y="-86.3" font-family="Times,serif" font-size="14.00">Louise</text>
</g>
</g>
</svg>
