<?xml version="1.0" encoding="UTF-8" standalone="no"?>
<!DOCTYPE svg PUBLIC "-//W3C//DTD SVG 1.1//EN"
 "http://www.w3.org/Graphics/SVG/1.1/DTD/svg11.dtd">
<!-- Generated by graphviz version 3.0.0 (0)
 -->
<!-- Title: G Pages: 1 -->
<svg width="1825pt" height="116pt"
 viewBox="0.00 0.00 1825.20 116.00" xmlns="http://www.w3.org/2000/svg" xmlns:xlink="http://www.w3.org/1999/xlink">
<g id="graph0" class="graph" transform="scale(1 1) rotate(0) translate(4 112)">
<title>G</title>
<polygon fill="white" stroke="transparent" points="-4,4 -4,-112 1821.2,-112 1821.2,4 -4,4"/>
<!-- Julie -->
<g id="node1" class="node">
<title>Julie</title>
<ellipse fill="none" stroke="black" cx="31.2" cy="-90" rx="31.4" ry="18"/>
<text text-anchor="middle" x="31.2" y="-86.3" font-family="Times,serif" font-size="14.00">Julie</text>
</g>
<!-- Alice -->
<g id="node2" class="node">
<title>Alice</title>
<ellipse fill="none" stroke="black" cx="115.2" cy="-18" rx="33.29" ry="18"/>
<text text-anchor="middle" x="115.2" y="-14.3" font-family="Times,serif" font-size="14.00">Alice</text>
</g>
<!-- Lina -->
<g id="node3" class="node">
<title>Lina</title>
<ellipse fill="none" stroke="black" cx="198.2" cy="-90" rx="30.59" ry="18"/>
<text text-anchor="middle" x="198.2" y="-86.3" font-family="Times,serif" font-size="14.00">Lina</text>
</g>
<!-- Ambre -->
<g id="node4" class="node">
<title>Ambre</title>
<ellipse fill="none" stroke="black" cx="288.2" cy="-90" rx="41.69" ry="18"/>
<text text-anchor="middle" x="288.2" y="-86.3" font-family="Times,serif" font-size="14.00">Ambre</text>
</g>
<!-- Ines -->
<g id="node8" class="node">
<title>Ines</title>
<ellipse fill="none" stroke="black" cx="288.2" cy="-18" rx="30.59" ry="18"/>
<text text-anchor="middle" x="288.2" y="-14.3" font-family="Times,serif" font-size="14.00">Ines</text>
</g>
<!-- Ambre&#45;&gt;Ines -->
<g id="edge2" class="edge">
<title>Ambre&#45;&gt;Ines</title>
<path fill="none" stroke="black" d="M288.2,-71.7C288.2,-63.98 288.2,-54.71 288.2,-46.11"/>
<polygon fill="black" stroke="black" points="291.7,-46.1 288.2,-36.1 284.7,-46.1 291.7,-46.1"/>
</g>
<!-- Alain -->
<g id="node5" class="node">
<title>Alain</title>
<ellipse fill="none" stroke="black" cx="115.2" cy="-90" rx="34.39" ry="18"/>
<text text-anchor="middle" x="115.2" y="-86.3" font-family="Times,serif" font-size="14.00">Alain</text>
</g>
<!-- Alain&#45;&gt;Alice -->
<g id="edge1" class="edge">
<title>Alain&#45;&gt;Alice</title>
<path fill="none" stroke="black" d="M115.2,-71.7C115.2,-63.98 115.2,-54.71 115.2,-46.11"/>
<polygon fill="black" stroke="black" points="118.7,-46.1 115.2,-36.1 111.7,-46.1 118.7,-46.1"/>
</g>
<!-- Caroline -->
<g id="node6" class="node">
<title>Caroline</title>
<ellipse fill="none" stroke="black" cx="470.2" cy="-90" rx="50.09" ry="18"/>
<text text-anchor="middle" x="470.2" y="-86.3" font-family="Times,serif" font-size="14.00">Caroline</text>
</g>
<!-- Lea -->
<g id="node7" class="node">
<title>Lea</title>
<ellipse fill="none" stroke="black" cx="375.2" cy="-90" rx="27.1" ry="18"/>
<text text-anchor="middle" x="375.2" y="-86.3" font-family="Times,serif" font-size="14.00">Lea</text>
</g>
<!-- Lea&#45;&gt;Ines -->
<g id="edge3" class="edge">
<title>Lea&#45;&gt;Ines</title>
<path fill="none" stroke="black" d="M358.42,-75.5C345.71,-65.27 328.02,-51.04 313.58,-39.42"/>
<polygon fill="black" stroke="black" points="315.5,-36.48 305.52,-32.93 311.11,-41.93 315.5,-36.48"/>
</g>
<!-- Didier -->
<g id="node21" class="node">
<title>Didier</title>
<ellipse fill="none" stroke="black" cx="376.2" cy="-18" rx="39.79" ry="18"/>
<text text-anchor="middle" x="376.2" y="-14.3" font-family="Times,serif" font-size="14.00">Didier</text>
</g>
<!-- Lea&#45;&gt;Didier -->
<g id="edge5" class="edge">
<title>Lea&#45;&gt;Didier</title>
<path fill="none" stroke="black" d="M375.44,-71.7C375.55,-63.98 375.69,-54.71 375.81,-46.11"/>
<polygon fill="black" stroke="black" points="379.31,-46.15 375.95,-36.1 372.31,-46.05 379.31,-46.15"/>
</g>
<!-- Lou -->
<g id="node9" class="node">
<title>Lou</title>
<ellipse fill="none" stroke="black" cx="566.2" cy="-90" rx="27.9" ry="18"/>
<text text-anchor="middle" x="566.2" y="-86.3" font-family="Times,serif" font-size="14.00">Lou</text>
</g>
<!-- Delphine -->
<g id="node18" class="node">
<title>Delphine</title>
<ellipse fill="none" stroke="black" cx="566.2" cy="-18" rx="51.99" ry="18"/>
<text text-anchor="middle" x="566.2" y="-14.3" font-family="Times,serif" font-size="14.00">Delphine</text>
</g>
<!-- Lou&#45;&gt;Delphine -->
<g id="edge4" class="edge">
<title>Lou&#45;&gt;Delphine</title>
<path fill="none" stroke="black" d="M566.2,-71.7C566.2,-63.98 566.2,-54.71 566.2,-46.11"/>
<polygon fill="black" stroke="black" points="569.7,-46.1 566.2,-36.1 562.7,-46.1 569.7,-46.1"/>
</g>
<!-- Anna -->
<g id="node10" class="node">
<title>Anna</title>
<ellipse fill="none" stroke="black" cx="646.2" cy="-90" rx="34.39" ry="18"/>
<text text-anchor="middle" x="646.2" y="-86.3" font-family="Times,serif" font-size="14.00">Anna</text>
</g>
<!-- Lamia -->
<g id="node11" class="node">
<title>Lamia</title>
<ellipse fill="none" stroke="black" cx="737.2" cy="-90" rx="38.99" ry="18"/>
<text text-anchor="middle" x="737.2" y="-86.3" font-family="Times,serif" font-size="14.00">Lamia</text>
</g>
<!-- Chloe -->
<g id="node12" class="node">
<title>Chloe</title>
<ellipse fill="none" stroke="black" cx="831.2" cy="-90" rx="37.09" ry="18"/>
<text text-anchor="middle" x="831.2" y="-86.3" font-family="Times,serif" font-size="14.00">Chloe</text>
</g>
<!-- Zoe -->
<g id="node13" class="node">
<title>Zoe</title>
<ellipse fill="none" stroke="black" cx="914.2" cy="-90" rx="27.9" ry="18"/>
<text text-anchor="middle" x="914.2" y="-86.3" font-family="Times,serif" font-size="14.00">Zoe</text>
</g>
<!-- Valerie -->
<g id="node14" class="node">
<title>Valerie</title>
<ellipse fill="none" stroke="black" cx="1003.2" cy="-90" rx="42.79" ry="18"/>
<text text-anchor="middle" x="1003.2" y="-86.3" font-family="Times,serif" font-size="14.00">Valerie</text>
</g>
<!-- Camille -->
<g id="node15" class="node">
<title>Camille</title>
<ellipse fill="none" stroke="black" cx="1110.2" cy="-90" rx="46.29" ry="18"/>
<text text-anchor="middle" x="1110.2" y="-86.3" font-family="Times,serif" font-size="14.00">Camille</text>
</g>
<!-- Veronique -->
<g id="node16" class="node">
<title>Veronique</title>
<ellipse fill="none" stroke="black" cx="1232.2" cy="-90" rx="57.69" ry="18"/>
<text text-anchor="middle" x="1232.2" y="-86.3" font-family="Times,serif" font-size="14.00">Veronique</text>
</g>
<!-- Ange -->
<g id="node17" class="node">
<title>Ange</title>
<ellipse fill="none" stroke="black" cx="1342.2" cy="-90" rx="34.39" ry="18"/>
<text text-anchor="middle" x="1342.2" y="-86.3" font-family="Times,serif" font-size="14.00">Ange</text>
</g>
<!-- Mila -->
<g id="node19" class="node">
<title>Mila</title>
<ellipse fill="none" stroke="black" cx="1426.2" cy="-90" rx="31.4" ry="18"/>
<text text-anchor="middle" x="1426.2" y="-86.3" font-family="Times,serif" font-size="14.00">Mila</text>
</g>
<!-- Sophie -->
<g id="node20" class="node">
<title>Sophie</title>
<ellipse fill="none" stroke="black" cx="1514.2" cy="-18" rx="42.49" ry="18"/>
<text text-anchor="middle" x="1514.2" y="-14.3" font-family="Times,serif" font-size="14.00">Sophie</text>
</g>
<!-- Aude -->
<g id="node22" class="node">
<title>Aude</title>
<ellipse fill="none" stroke="black" cx="1605.2" cy="-90" rx="34.39" ry="18"/>
<text text-anchor="middle" x="1605.2" y="-86.3" font-family="Times,serif" font-size="14.00">Aude</text>
</g>
<!-- Helene -->
<g id="node23" class="node">
<title>Helene</title>
<ellipse fill="none" stroke="black" cx="1701.2" cy="-90" rx="43.59" ry="18"/>
<text text-anchor="middle" x="1701.2" y="-86.3" font-family="Times,serif" font-size="14.00">Helene</text>
</g>
<!-- Iris -->
<g id="node24" class="node">
<title>Iris</title>
<ellipse fill="none" stroke="black" cx="1790.2" cy="-90" rx="27" ry="18"/>
<text text-anchor="middle" x="1790.2" y="-86.3" font-family="Times,serif" font-size="14.00">Iris</text>
</g>
<!-- Aaron -->
<g id="node25" class="node">
<title>Aaron</title>
<ellipse fill="none" stroke="black" cx="1514.2" cy="-90" rx="38.19" ry="18"/>
<text text-anchor="middle" x="1514.2" y="-86.3" font-family="Times,serif" font-size="14.00">Aaron</text>
</g>
<!-- Aaron&#45;&gt;Sophie -->
<g id="edge6" class="edge">
<title>Aaron&#45;&gt;Sophie</title>
<path fill="none" stroke="black" d="M1514.2,-71.7C1514.2,-63.98 1514.2,-54.71 1514.2,-46.11"/>
<polygon fill="black" stroke="black" points="1517.7,-46.1 1514.2,-36.1 1510.7,-46.1 1517.7,-46.1"/>
</g>
</g>
</svg>
