<?xml version="1.0" encoding="UTF-8" standalone="no"?>
<!DOCTYPE svg PUBLIC "-//W3C//DTD SVG 1.1//EN"
 "http://www.w3.org/Graphics/SVG/1.1/DTD/svg11.dtd">
<!-- Generated by graphviz version 3.0.0 (0)
 -->
<!-- Title: G Pages: 1 -->
<svg width="1816pt" height="116pt"
 viewBox="0.00 0.00 1816.09 116.00" xmlns="http://www.w3.org/2000/svg" xmlns:xlink="http://www.w3.org/1999/xlink">
<g id="graph0" class="graph" transform="scale(1 1) rotate(0) translate(4 112)">
<title>G</title>
<polygon fill="white" stroke="transparent" points="-4,4 -4,-112 1812.09,-112 1812.09,4 -4,4"/>
<!-- Ines -->
<g id="node1" class="node">
<title>Ines</title>
<ellipse fill="none" stroke="black" cx="30.55" cy="-90" rx="30.59" ry="18"/>
<text text-anchor="middle" x="30.55" y="-86.3" font-family="Times,serif" font-size="14.00">Ines</text>
</g>
<!-- Lalie -->
<g id="node2" class="node">
<title>Lalie</title>
<ellipse fill="none" stroke="black" cx="112.55" cy="-90" rx="33.29" ry="18"/>
<text text-anchor="middle" x="112.55" y="-86.3" font-family="Times,serif" font-size="14.00">Lalie</text>
</g>
<!-- Caroline -->
<g id="node3" class="node">
<title>Caroline</title>
<ellipse fill="none" stroke="black" cx="213.55" cy="-90" rx="50.09" ry="18"/>
<text text-anchor="middle" x="213.55" y="-86.3" font-family="Times,serif" font-size="14.00">Caroline</text>
</g>
<!-- Lina -->
<g id="node4" class="node">
<title>Lina</title>
<ellipse fill="none" stroke="black" cx="312.55" cy="-90" rx="30.59" ry="18"/>
<text text-anchor="middle" x="312.55" y="-86.3" font-family="Times,serif" font-size="14.00">Lina</text>
</g>
<!-- Zoe -->
<g id="node5" class="node">
<title>Zoe</title>
<ellipse fill="none" stroke="black" cx="388.55" cy="-90" rx="27.9" ry="18"/>
<text text-anchor="middle" x="388.55" y="-86.3" font-family="Times,serif" font-size="14.00">Zoe</text>
</g>
<!-- Pauline -->
<g id="node6" class="node">
<title>Pauline</title>
<ellipse fill="none" stroke="black" cx="479.55" cy="-90" rx="44.69" ry="18"/>
<text text-anchor="middle" x="479.55" y="-86.3" font-family="Times,serif" font-size="14.00">Pauline</text>
</g>
<!-- Soukaina -->
<g id="node7" class="node">
<title>Soukaina</title>
<ellipse fill="none" stroke="black" cx="595.55" cy="-90" rx="53.09" ry="18"/>
<text text-anchor="middle" x="595.55" y="-86.3" font-family="Times,serif" font-size="14.00">Soukaina</text>
</g>
<!-- Lou -->
<g id="node8" class="node">
<title>Lou</title>
<ellipse fill="none" stroke="black" cx="694.55" cy="-90" rx="27.9" ry="18"/>
<text text-anchor="middle" x="694.55" y="-86.3" font-family="Times,serif" font-size="14.00">Lou</text>
</g>
<!-- Jade -->
<g id="node9" class="node">
<title>Jade</title>
<ellipse fill="none" stroke="black" cx="778.55" cy="-18" rx="30.59" ry="18"/>
<text text-anchor="middle" x="778.55" y="-14.3" font-family="Times,serif" font-size="14.00">Jade</text>
</g>
<!-- David -->
<g id="node10" class="node">
<title>David</title>
<ellipse fill="none" stroke="black" cx="778.55" cy="-90" rx="37.89" ry="18"/>
<text text-anchor="middle" x="778.55" y="-86.3" font-family="Times,serif" font-size="14.00">David</text>
</g>
<!-- David&#45;&gt;Jade -->
<g id="edge1" class="edge">
<title>David&#45;&gt;Jade</title>
<path fill="none" stroke="black" d="M778.55,-71.7C778.55,-63.98 778.55,-54.71 778.55,-46.11"/>
<polygon fill="black" stroke="black" points="782.05,-46.1 778.55,-36.1 775.05,-46.1 782.05,-46.1"/>
</g>
<!-- Camille -->
<g id="node11" class="node">
<title>Camille</title>
<ellipse fill="none" stroke="black" cx="886.55" cy="-18" rx="46.29" ry="18"/>
<text text-anchor="middle" x="886.55" y="-14.3" font-family="Times,serif" font-size="14.00">Camille</text>
</g>
<!-- Marcelin -->
<g id="node12" class="node">
<title>Marcelin</title>
<ellipse fill="none" stroke="black" cx="886.55" cy="-90" rx="51.99" ry="18"/>
<text text-anchor="middle" x="886.55" y="-86.3" font-family="Times,serif" font-size="14.00">Marcelin</text>
</g>
<!-- Marcelin&#45;&gt;Camille -->
<g id="edge2" class="edge">
<title>Marcelin&#45;&gt;Camille</title>
<path fill="none" stroke="black" d="M886.55,-71.7C886.55,-63.98 886.55,-54.71 886.55,-46.11"/>
<polygon fill="black" stroke="black" points="890.05,-46.1 886.55,-36.1 883.05,-46.1 890.05,-46.1"/>
</g>
<!-- Veronique -->
<g id="node13" class="node">
<title>Veronique</title>
<ellipse fill="none" stroke="black" cx="1014.55" cy="-90" rx="57.69" ry="18"/>
<text text-anchor="middle" x="1014.55" y="-86.3" font-family="Times,serif" font-size="14.00">Veronique</text>
</g>
<!-- Julie -->
<g id="node14" class="node">
<title>Julie</title>
<ellipse fill="none" stroke="black" cx="1121.55" cy="-90" rx="31.4" ry="18"/>
<text text-anchor="middle" x="1121.55" y="-86.3" font-family="Times,serif" font-size="14.00">Julie</text>
</g>
<!-- Mila -->
<g id="node15" class="node">
<title>Mila</title>
<ellipse fill="none" stroke="black" cx="1201.55" cy="-90" rx="31.4" ry="18"/>
<text text-anchor="middle" x="1201.55" y="-86.3" font-family="Times,serif" font-size="14.00">Mila</text>
</g>
<!-- Valerie -->
<g id="node16" class="node">
<title>Valerie</title>
<ellipse fill="none" stroke="black" cx="1293.55" cy="-90" rx="42.79" ry="18"/>
<text text-anchor="middle" x="1293.55" y="-86.3" font-family="Times,serif" font-size="14.00">Valerie</text>
</g>
<!-- Didier -->
<g id="node17" class="node">
<title>Didier</title>
<ellipse fill="none" stroke="black" cx="1394.55" cy="-90" rx="39.79" ry="18"/>
<text text-anchor="middle" x="1394.55" y="-86.3" font-family="Times,serif" font-size="14.00">Didier</text>
</g>
<!-- Sophie -->
<g id="node18" class="node">
<title>Sophie</title>
<ellipse fill="none" stroke="black" cx="1494.55" cy="-90" rx="42.49" ry="18"/>
<text text-anchor="middle" x="1494.55" y="-86.3" font-family="Times,serif" font-size="14.00">Sophie</text>
</g>
<!-- Iris -->
<g id="node19" class="node">
<title>Iris</title>
<ellipse fill="none" stroke="black" cx="1581.55" cy="-90" rx="27" ry="18"/>
<text text-anchor="middle" x="1581.55" y="-86.3" font-family="Times,serif" font-size="14.00">Iris</text>
</g>
<!-- Anna -->
<g id="node20" class="node">
<title>Anna</title>
<ellipse fill="none" stroke="black" cx="1664.55" cy="-18" rx="34.39" ry="18"/>
<text text-anchor="middle" x="1664.55" y="-14.3" font-family="Times,serif" font-size="14.00">Anna</text>
</g>
<!-- Helene -->
<g id="node21" class="node">
<title>Helene</title>
<ellipse fill="none" stroke="black" cx="1764.55" cy="-90" rx="43.59" ry="18"/>
<text text-anchor="middle" x="1764.55" y="-86.3" font-family="Times,serif" font-size="14.00">Helene</text>
</g>
<!-- Aaron -->
<g id="node22" class="node">
<title>Aaron</title>
<ellipse fill="none" stroke="black" cx="1664.55" cy="-90" rx="38.19" ry="18"/>
<text text-anchor="middle" x="1664.55" y="-86.3" font-family="Times,serif" font-size="14.00">Aaron</text>
</g>
<!-- Aaron&#45;&gt;Anna -->
<g id="edge3" class="edge">
<title>Aaron&#45;&gt;Anna</title>
<path fill="none" stroke="black" d="M1664.55,-71.7C1664.55,-63.98 1664.55,-54.71 1664.55,-46.11"/>
<polygon fill="black" stroke="black" points="1668.05,-46.1 1664.55,-36.1 1661.05,-46.1 1668.05,-46.1"/>
</g>
</g>
</svg>
