<?xml version="1.0" encoding="UTF-8" standalone="no"?>
<!DOCTYPE svg PUBLIC "-//W3C//DTD SVG 1.1//EN"
 "http://www.w3.org/Graphics/SVG/1.1/DTD/svg11.dtd">
<!-- Generated by graphviz version 3.0.0 (0)
 -->
<!-- Title: G Pages: 1 -->
<svg width="2592pt" height="260pt"
 viewBox="0.00 0.00 2591.79 260.00" xmlns="http://www.w3.org/2000/svg" xmlns:xlink="http://www.w3.org/1999/xlink">
<g id="graph0" class="graph" transform="scale(1 1) rotate(0) translate(4 256)">
<title>G</title>
<polygon fill="white" stroke="transparent" points="-4,4 -4,-256 2587.79,-256 2587.79,4 -4,4"/>
<!-- Ines -->
<g id="node1" class="node">
<title>Ines</title>
<ellipse fill="none" stroke="black" cx="137.85" cy="-162" rx="30.59" ry="18"/>
<text text-anchor="middle" x="137.85" y="-158.3" font-family="Times,serif" font-size="14.00">Ines</text>
</g>
<!-- Valerie -->
<g id="node11" class="node">
<title>Valerie</title>
<ellipse fill="none" stroke="black" cx="90.85" cy="-90" rx="42.79" ry="18"/>
<text text-anchor="middle" x="90.85" y="-86.3" font-family="Times,serif" font-size="14.00">Valerie</text>
</g>
<!-- Ines&#45;&gt;Valerie -->
<g id="edge4" class="edge">
<title>Ines&#45;&gt;Valerie</title>
<path fill="none" stroke="black" d="M127.18,-145.12C121.46,-136.59 114.27,-125.89 107.8,-116.25"/>
<polygon fill="black" stroke="black" points="110.6,-114.15 102.12,-107.8 104.79,-118.05 110.6,-114.15"/>
</g>
<!-- Julie -->
<g id="node2" class="node">
<title>Julie</title>
<ellipse fill="none" stroke="black" cx="221.85" cy="-234" rx="31.4" ry="18"/>
<text text-anchor="middle" x="221.85" y="-230.3" font-family="Times,serif" font-size="14.00">Julie</text>
</g>
<!-- Lalie -->
<g id="node3" class="node">
<title>Lalie</title>
<ellipse fill="none" stroke="black" cx="303.85" cy="-234" rx="33.29" ry="18"/>
<text text-anchor="middle" x="303.85" y="-230.3" font-family="Times,serif" font-size="14.00">Lalie</text>
</g>
<!-- Alice -->
<g id="node4" class="node">
<title>Alice</title>
<ellipse fill="none" stroke="black" cx="387.85" cy="-234" rx="33.29" ry="18"/>
<text text-anchor="middle" x="387.85" y="-230.3" font-family="Times,serif" font-size="14.00">Alice</text>
</g>
<!-- Lamia -->
<g id="node5" class="node">
<title>Lamia</title>
<ellipse fill="none" stroke="black" cx="477.85" cy="-234" rx="38.99" ry="18"/>
<text text-anchor="middle" x="477.85" y="-230.3" font-family="Times,serif" font-size="14.00">Lamia</text>
</g>
<!-- Alain -->
<g id="node6" class="node">
<title>Alain</title>
<ellipse fill="none" stroke="black" cx="137.85" cy="-234" rx="34.39" ry="18"/>
<text text-anchor="middle" x="137.85" y="-230.3" font-family="Times,serif" font-size="14.00">Alain</text>
</g>
<!-- Alain&#45;&gt;Ines -->
<g id="edge1" class="edge">
<title>Alain&#45;&gt;Ines</title>
<path fill="none" stroke="black" d="M137.85,-215.7C137.85,-207.98 137.85,-198.71 137.85,-190.11"/>
<polygon fill="black" stroke="black" points="141.35,-190.1 137.85,-180.1 134.35,-190.1 141.35,-190.1"/>
</g>
<!-- Caroline -->
<g id="node7" class="node">
<title>Caroline</title>
<ellipse fill="none" stroke="black" cx="578.85" cy="-162" rx="50.09" ry="18"/>
<text text-anchor="middle" x="578.85" y="-158.3" font-family="Times,serif" font-size="14.00">Caroline</text>
</g>
<!-- Jeanne -->
<g id="node8" class="node">
<title>Jeanne</title>
<ellipse fill="none" stroke="black" cx="682.85" cy="-234" rx="42.49" ry="18"/>
<text text-anchor="middle" x="682.85" y="-230.3" font-family="Times,serif" font-size="14.00">Jeanne</text>
</g>
<!-- Zoe -->
<g id="node9" class="node">
<title>Zoe</title>
<ellipse fill="none" stroke="black" cx="770.85" cy="-234" rx="27.9" ry="18"/>
<text text-anchor="middle" x="770.85" y="-230.3" font-family="Times,serif" font-size="14.00">Zoe</text>
</g>
<!-- Mathilde -->
<g id="node18" class="node">
<title>Mathilde</title>
<ellipse fill="none" stroke="black" cx="770.85" cy="-162" rx="51.99" ry="18"/>
<text text-anchor="middle" x="770.85" y="-158.3" font-family="Times,serif" font-size="14.00">Mathilde</text>
</g>
<!-- Zoe&#45;&gt;Mathilde -->
<g id="edge2" class="edge">
<title>Zoe&#45;&gt;Mathilde</title>
<path fill="none" stroke="black" d="M770.85,-215.7C770.85,-207.98 770.85,-198.71 770.85,-190.11"/>
<polygon fill="black" stroke="black" points="774.35,-190.1 770.85,-180.1 767.35,-190.1 774.35,-190.1"/>
</g>
<!-- Agathe -->
<g id="node10" class="node">
<title>Agathe</title>
<ellipse fill="none" stroke="black" cx="578.85" cy="-234" rx="43.59" ry="18"/>
<text text-anchor="middle" x="578.85" y="-230.3" font-family="Times,serif" font-size="14.00">Agathe</text>
</g>
<!-- Agathe&#45;&gt;Caroline -->
<g id="edge3" class="edge">
<title>Agathe&#45;&gt;Caroline</title>
<path fill="none" stroke="black" d="M578.85,-215.7C578.85,-207.98 578.85,-198.71 578.85,-190.11"/>
<polygon fill="black" stroke="black" points="582.35,-190.1 578.85,-180.1 575.35,-190.1 582.35,-190.1"/>
</g>
<!-- Aude -->
<g id="node30" class="node">
<title>Aude</title>
<ellipse fill="none" stroke="black" cx="90.85" cy="-18" rx="34.39" ry="18"/>
<text text-anchor="middle" x="90.85" y="-14.3" font-family="Times,serif" font-size="14.00">Aude</text>
</g>
<!-- Valerie&#45;&gt;Aude -->
<g id="edge7" class="edge">
<title>Valerie&#45;&gt;Aude</title>
<path fill="none" stroke="black" d="M90.85,-71.7C90.85,-63.98 90.85,-54.71 90.85,-46.11"/>
<polygon fill="black" stroke="black" points="94.35,-46.1 90.85,-36.1 87.35,-46.1 94.35,-46.1"/>
</g>
<!-- Didier -->
<g id="node12" class="node">
<title>Didier</title>
<ellipse fill="none" stroke="black" cx="880.85" cy="-162" rx="39.79" ry="18"/>
<text text-anchor="middle" x="880.85" y="-158.3" font-family="Times,serif" font-size="14.00">Didier</text>
</g>
<!-- Chloe -->
<g id="node13" class="node">
<title>Chloe</title>
<ellipse fill="none" stroke="black" cx="987.85" cy="-234" rx="37.09" ry="18"/>
<text text-anchor="middle" x="987.85" y="-230.3" font-family="Times,serif" font-size="14.00">Chloe</text>
</g>
<!-- Julia -->
<g id="node14" class="node">
<title>Julia</title>
<ellipse fill="none" stroke="black" cx="1073.85" cy="-234" rx="31.4" ry="18"/>
<text text-anchor="middle" x="1073.85" y="-230.3" font-family="Times,serif" font-size="14.00">Julia</text>
</g>
<!-- Pauline -->
<g id="node15" class="node">
<title>Pauline</title>
<ellipse fill="none" stroke="black" cx="44.85" cy="-162" rx="44.69" ry="18"/>
<text text-anchor="middle" x="44.85" y="-158.3" font-family="Times,serif" font-size="14.00">Pauline</text>
</g>
<!-- Pauline&#45;&gt;Valerie -->
<g id="edge5" class="edge">
<title>Pauline&#45;&gt;Valerie</title>
<path fill="none" stroke="black" d="M55.75,-144.41C61.3,-135.95 68.18,-125.49 74.37,-116.08"/>
<polygon fill="black" stroke="black" points="77.46,-117.75 80.02,-107.47 71.61,-113.9 77.46,-117.75"/>
</g>
<!-- Juliette -->
<g id="node16" class="node">
<title>Juliette</title>
<ellipse fill="none" stroke="black" cx="1166.85" cy="-234" rx="44.39" ry="18"/>
<text text-anchor="middle" x="1166.85" y="-230.3" font-family="Times,serif" font-size="14.00">Juliette</text>
</g>
<!-- Camille -->
<g id="node17" class="node">
<title>Camille</title>
<ellipse fill="none" stroke="black" cx="1274.85" cy="-234" rx="46.29" ry="18"/>
<text text-anchor="middle" x="1274.85" y="-230.3" font-family="Times,serif" font-size="14.00">Camille</text>
</g>
<!-- Lou -->
<g id="node19" class="node">
<title>Lou</title>
<ellipse fill="none" stroke="black" cx="1366.85" cy="-234" rx="27.9" ry="18"/>
<text text-anchor="middle" x="1366.85" y="-230.3" font-family="Times,serif" font-size="14.00">Lou</text>
</g>
<!-- Marcelin -->
<g id="node20" class="node">
<title>Marcelin</title>
<ellipse fill="none" stroke="black" cx="1464.85" cy="-234" rx="51.99" ry="18"/>
<text text-anchor="middle" x="1464.85" y="-230.3" font-family="Times,serif" font-size="14.00">Marcelin</text>
</g>
<!-- Emma -->
<g id="node23" class="node">
<title>Emma</title>
<ellipse fill="none" stroke="black" cx="1464.85" cy="-162" rx="40.09" ry="18"/>
<text text-anchor="middle" x="1464.85" y="-158.3" font-family="Times,serif" font-size="14.00">Emma</text>
</g>
<!-- Marcelin&#45;&gt;Emma -->
<g id="edge6" class="edge">
<title>Marcelin&#45;&gt;Emma</title>
<path fill="none" stroke="black" d="M1464.85,-215.7C1464.85,-207.98 1464.85,-198.71 1464.85,-190.11"/>
<polygon fill="black" stroke="black" points="1468.35,-190.1 1464.85,-180.1 1461.35,-190.1 1468.35,-190.1"/>
</g>
<!-- Lena -->
<g id="node21" class="node">
<title>Lena</title>
<ellipse fill="none" stroke="black" cx="1567.85" cy="-234" rx="33.29" ry="18"/>
<text text-anchor="middle" x="1567.85" y="-230.3" font-family="Times,serif" font-size="14.00">Lena</text>
</g>
<!-- Jade -->
<g id="node22" class="node">
<title>Jade</title>
<ellipse fill="none" stroke="black" cx="1649.85" cy="-234" rx="30.59" ry="18"/>
<text text-anchor="middle" x="1649.85" y="-230.3" font-family="Times,serif" font-size="14.00">Jade</text>
</g>
<!-- Ghita -->
<g id="node24" class="node">
<title>Ghita</title>
<ellipse fill="none" stroke="black" cx="1734.85" cy="-234" rx="36.29" ry="18"/>
<text text-anchor="middle" x="1734.85" y="-230.3" font-family="Times,serif" font-size="14.00">Ghita</text>
</g>
<!-- Delphine -->
<g id="node25" class="node">
<title>Delphine</title>
<ellipse fill="none" stroke="black" cx="880.85" cy="-234" rx="51.99" ry="18"/>
<text text-anchor="middle" x="880.85" y="-230.3" font-family="Times,serif" font-size="14.00">Delphine</text>
</g>
<!-- Delphine&#45;&gt;Didier -->
<g id="edge8" class="edge">
<title>Delphine&#45;&gt;Didier</title>
<path fill="none" stroke="black" d="M880.85,-215.7C880.85,-207.98 880.85,-198.71 880.85,-190.11"/>
<polygon fill="black" stroke="black" points="884.35,-190.1 880.85,-180.1 877.35,-190.1 884.35,-190.1"/>
</g>
<!-- Manon -->
<g id="node26" class="node">
<title>Manon</title>
<ellipse fill="none" stroke="black" cx="1831.85" cy="-234" rx="42.49" ry="18"/>
<text text-anchor="middle" x="1831.85" y="-230.3" font-family="Times,serif" font-size="14.00">Manon</text>
</g>
<!-- Mila -->
<g id="node27" class="node">
<title>Mila</title>
<ellipse fill="none" stroke="black" cx="1922.85" cy="-234" rx="31.4" ry="18"/>
<text text-anchor="middle" x="1922.85" y="-230.3" font-family="Times,serif" font-size="14.00">Mila</text>
</g>
<!-- Helene -->
<g id="node28" class="node">
<title>Helene</title>
<ellipse fill="none" stroke="black" cx="2015.85" cy="-234" rx="43.59" ry="18"/>
<text text-anchor="middle" x="2015.85" y="-230.3" font-family="Times,serif" font-size="14.00">Helene</text>
</g>
<!-- Sophie -->
<g id="node29" class="node">
<title>Sophie</title>
<ellipse fill="none" stroke="black" cx="2119.85" cy="-234" rx="42.49" ry="18"/>
<text text-anchor="middle" x="2119.85" y="-230.3" font-family="Times,serif" font-size="14.00">Sophie</text>
</g>
<!-- Anna -->
<g id="node31" class="node">
<title>Anna</title>
<ellipse fill="none" stroke="black" cx="2218.85" cy="-162" rx="34.39" ry="18"/>
<text text-anchor="middle" x="2218.85" y="-158.3" font-family="Times,serif" font-size="14.00">Anna</text>
</g>
<!-- Lina -->
<g id="node32" class="node">
<title>Lina</title>
<ellipse fill="none" stroke="black" cx="2305.85" cy="-234" rx="30.59" ry="18"/>
<text text-anchor="middle" x="2305.85" y="-230.3" font-family="Times,serif" font-size="14.00">Lina</text>
</g>
<!-- Mia -->
<g id="node33" class="node">
<title>Mia</title>
<ellipse fill="none" stroke="black" cx="2382.85" cy="-234" rx="28.7" ry="18"/>
<text text-anchor="middle" x="2382.85" y="-230.3" font-family="Times,serif" font-size="14.00">Mia</text>
</g>
<!-- Iris -->
<g id="node34" class="node">
<title>Iris</title>
<ellipse fill="none" stroke="black" cx="2456.85" cy="-234" rx="27" ry="18"/>
<text text-anchor="middle" x="2456.85" y="-230.3" font-family="Times,serif" font-size="14.00">Iris</text>
</g>
<!-- Louise -->
<g id="node35" class="node">
<title>Louise</title>
<ellipse fill="none" stroke="black" cx="2542.85" cy="-234" rx="40.89" ry="18"/>
<text text-anchor="middle" x="2542.85" y="-230.3" font-family="Times,serif" font-size="14.00">Louise</text>
</g>
<!-- Aaron -->
<g id="node36" class="node">
<title>Aaron</title>
<ellipse fill="none" stroke="black" cx="2218.85" cy="-234" rx="38.19" ry="18"/>
<text text-anchor="middle" x="2218.85" y="-230.3" font-family="Times,serif" font-size="14.00">Aaron</text>
</g>
<!-- Aaron&#45;&gt;Anna -->
<g id="edge9" class="edge">
<title>Aaron&#45;&gt;Anna</title>
<path fill="none" stroke="black" d="M2218.85,-215.7C2218.85,-207.98 2218.85,-198.71 2218.85,-190.11"/>
<polygon fill="black" stroke="black" points="2222.35,-190.1 2218.85,-180.1 2215.35,-190.1 2222.35,-190.1"/>
</g>
</g>
</svg>
