<?xml version="1.0" encoding="UTF-8" standalone="no"?>
<!DOCTYPE svg PUBLIC "-//W3C//DTD SVG 1.1//EN"
 "http://www.w3.org/Graphics/SVG/1.1/DTD/svg11.dtd">
<!-- Generated by graphviz version 3.0.0 (0)
 -->
<!-- Title: G Pages: 1 -->
<svg width="1933pt" height="116pt"
 viewBox="0.00 0.00 1932.74 116.00" xmlns="http://www.w3.org/2000/svg" xmlns:xlink="http://www.w3.org/1999/xlink">
<g id="graph0" class="graph" transform="scale(1 1) rotate(0) translate(4 112)">
<title>G</title>
<polygon fill="white" stroke="transparent" points="-4,4 -4,-112 1928.74,-112 1928.74,4 -4,4"/>
<!-- Ines -->
<g id="node1" class="node">
<title>Ines</title>
<ellipse fill="none" stroke="black" cx="30.55" cy="-90" rx="30.59" ry="18"/>
<text text-anchor="middle" x="30.55" y="-86.3" font-family="Times,serif" font-size="14.00">Ines</text>
</g>
<!-- Lalie -->
<g id="node2" class="node">
<title>Lalie</title>
<ellipse fill="none" stroke="black" cx="112.55" cy="-90" rx="33.29" ry="18"/>
<text text-anchor="middle" x="112.55" y="-86.3" font-family="Times,serif" font-size="14.00">Lalie</text>
</g>
<!-- Ambre -->
<g id="node3" class="node">
<title>Ambre</title>
<ellipse fill="none" stroke="black" cx="205.55" cy="-90" rx="41.69" ry="18"/>
<text text-anchor="middle" x="205.55" y="-86.3" font-family="Times,serif" font-size="14.00">Ambre</text>
</g>
<!-- Valerie -->
<g id="node8" class="node">
<title>Valerie</title>
<ellipse fill="none" stroke="black" cx="281.55" cy="-18" rx="42.79" ry="18"/>
<text text-anchor="middle" x="281.55" y="-14.3" font-family="Times,serif" font-size="14.00">Valerie</text>
</g>
<!-- Ambre&#45;&gt;Valerie -->
<g id="edge2" class="edge">
<title>Ambre&#45;&gt;Valerie</title>
<path fill="none" stroke="black" d="M222.41,-73.46C232.58,-64.11 245.69,-52.02 256.99,-41.62"/>
<polygon fill="black" stroke="black" points="259.48,-44.08 264.46,-34.73 254.74,-38.93 259.48,-44.08"/>
</g>
<!-- Alain -->
<g id="node4" class="node">
<title>Alain</title>
<ellipse fill="none" stroke="black" cx="433.55" cy="-90" rx="34.39" ry="18"/>
<text text-anchor="middle" x="433.55" y="-86.3" font-family="Times,serif" font-size="14.00">Alain</text>
</g>
<!-- Jeanne -->
<g id="node5" class="node">
<title>Jeanne</title>
<ellipse fill="none" stroke="black" cx="433.55" cy="-18" rx="42.49" ry="18"/>
<text text-anchor="middle" x="433.55" y="-14.3" font-family="Times,serif" font-size="14.00">Jeanne</text>
</g>
<!-- Alain&#45;&gt;Jeanne -->
<g id="edge1" class="edge">
<title>Alain&#45;&gt;Jeanne</title>
<path fill="none" stroke="black" d="M433.55,-71.7C433.55,-63.98 433.55,-54.71 433.55,-46.11"/>
<polygon fill="black" stroke="black" points="437.05,-46.1 433.55,-36.1 430.05,-46.1 437.05,-46.1"/>
</g>
<!-- Agathe -->
<g id="node6" class="node">
<title>Agathe</title>
<ellipse fill="none" stroke="black" cx="537.55" cy="-90" rx="43.59" ry="18"/>
<text text-anchor="middle" x="537.55" y="-86.3" font-family="Times,serif" font-size="14.00">Agathe</text>
</g>
<!-- Juliette -->
<g id="node11" class="node">
<title>Juliette</title>
<ellipse fill="none" stroke="black" cx="537.55" cy="-18" rx="44.39" ry="18"/>
<text text-anchor="middle" x="537.55" y="-14.3" font-family="Times,serif" font-size="14.00">Juliette</text>
</g>
<!-- Agathe&#45;&gt;Juliette -->
<g id="edge3" class="edge">
<title>Agathe&#45;&gt;Juliette</title>
<path fill="none" stroke="black" d="M537.55,-71.7C537.55,-63.98 537.55,-54.71 537.55,-46.11"/>
<polygon fill="black" stroke="black" points="541.05,-46.1 537.55,-36.1 534.05,-46.1 541.05,-46.1"/>
</g>
<!-- Lea -->
<g id="node7" class="node">
<title>Lea</title>
<ellipse fill="none" stroke="black" cx="639.55" cy="-90" rx="27.1" ry="18"/>
<text text-anchor="middle" x="639.55" y="-86.3" font-family="Times,serif" font-size="14.00">Lea</text>
</g>
<!-- Didier -->
<g id="node9" class="node">
<title>Didier</title>
<ellipse fill="none" stroke="black" cx="639.55" cy="-18" rx="39.79" ry="18"/>
<text text-anchor="middle" x="639.55" y="-14.3" font-family="Times,serif" font-size="14.00">Didier</text>
</g>
<!-- Lea&#45;&gt;Didier -->
<g id="edge4" class="edge">
<title>Lea&#45;&gt;Didier</title>
<path fill="none" stroke="black" d="M639.55,-71.7C639.55,-63.98 639.55,-54.71 639.55,-46.11"/>
<polygon fill="black" stroke="black" points="643.05,-46.1 639.55,-36.1 636.05,-46.1 643.05,-46.1"/>
</g>
<!-- Pauline -->
<g id="node10" class="node">
<title>Pauline</title>
<ellipse fill="none" stroke="black" cx="309.55" cy="-90" rx="44.69" ry="18"/>
<text text-anchor="middle" x="309.55" y="-86.3" font-family="Times,serif" font-size="14.00">Pauline</text>
</g>
<!-- Pauline&#45;&gt;Valerie -->
<g id="edge5" class="edge">
<title>Pauline&#45;&gt;Valerie</title>
<path fill="none" stroke="black" d="M302.77,-72.05C299.54,-63.97 295.6,-54.12 291.99,-45.11"/>
<polygon fill="black" stroke="black" points="295.23,-43.77 288.26,-35.79 288.73,-46.37 295.23,-43.77"/>
</g>
<!-- Soukaina -->
<g id="node12" class="node">
<title>Soukaina</title>
<ellipse fill="none" stroke="black" cx="738.55" cy="-90" rx="53.09" ry="18"/>
<text text-anchor="middle" x="738.55" y="-86.3" font-family="Times,serif" font-size="14.00">Soukaina</text>
</g>
<!-- Anna -->
<g id="node13" class="node">
<title>Anna</title>
<ellipse fill="none" stroke="black" cx="813.55" cy="-18" rx="34.39" ry="18"/>
<text text-anchor="middle" x="813.55" y="-14.3" font-family="Times,serif" font-size="14.00">Anna</text>
</g>
<!-- Lamia -->
<g id="node14" class="node">
<title>Lamia</title>
<ellipse fill="none" stroke="black" cx="970.55" cy="-90" rx="38.99" ry="18"/>
<text text-anchor="middle" x="970.55" y="-86.3" font-family="Times,serif" font-size="14.00">Lamia</text>
</g>
<!-- Chloe -->
<g id="node15" class="node">
<title>Chloe</title>
<ellipse fill="none" stroke="black" cx="1079.55" cy="-18" rx="37.09" ry="18"/>
<text text-anchor="middle" x="1079.55" y="-14.3" font-family="Times,serif" font-size="14.00">Chloe</text>
</g>
<!-- Marcelin -->
<g id="node16" class="node">
<title>Marcelin</title>
<ellipse fill="none" stroke="black" cx="1079.55" cy="-90" rx="51.99" ry="18"/>
<text text-anchor="middle" x="1079.55" y="-86.3" font-family="Times,serif" font-size="14.00">Marcelin</text>
</g>
<!-- Marcelin&#45;&gt;Chloe -->
<g id="edge6" class="edge">
<title>Marcelin&#45;&gt;Chloe</title>
<path fill="none" stroke="black" d="M1079.55,-71.7C1079.55,-63.98 1079.55,-54.71 1079.55,-46.11"/>
<polygon fill="black" stroke="black" points="1083.05,-46.1 1079.55,-36.1 1076.05,-46.1 1083.05,-46.1"/>
</g>
<!-- Camille -->
<g id="node17" class="node">
<title>Camille</title>
<ellipse fill="none" stroke="black" cx="1195.55" cy="-90" rx="46.29" ry="18"/>
<text text-anchor="middle" x="1195.55" y="-86.3" font-family="Times,serif" font-size="14.00">Camille</text>
</g>
<!-- Veronique -->
<g id="node18" class="node">
<title>Veronique</title>
<ellipse fill="none" stroke="black" cx="1317.55" cy="-90" rx="57.69" ry="18"/>
<text text-anchor="middle" x="1317.55" y="-86.3" font-family="Times,serif" font-size="14.00">Veronique</text>
</g>
<!-- Emma -->
<g id="node19" class="node">
<title>Emma</title>
<ellipse fill="none" stroke="black" cx="1433.55" cy="-90" rx="40.09" ry="18"/>
<text text-anchor="middle" x="1433.55" y="-86.3" font-family="Times,serif" font-size="14.00">Emma</text>
</g>
<!-- Ange -->
<g id="node20" class="node">
<title>Ange</title>
<ellipse fill="none" stroke="black" cx="1526.55" cy="-90" rx="34.39" ry="18"/>
<text text-anchor="middle" x="1526.55" y="-86.3" font-family="Times,serif" font-size="14.00">Ange</text>
</g>
<!-- Ghita -->
<g id="node21" class="node">
<title>Ghita</title>
<ellipse fill="none" stroke="black" cx="1615.55" cy="-90" rx="36.29" ry="18"/>
<text text-anchor="middle" x="1615.55" y="-86.3" font-family="Times,serif" font-size="14.00">Ghita</text>
</g>
<!-- Delphine -->
<g id="node22" class="node">
<title>Delphine</title>
<ellipse fill="none" stroke="black" cx="861.55" cy="-90" rx="51.99" ry="18"/>
<text text-anchor="middle" x="861.55" y="-86.3" font-family="Times,serif" font-size="14.00">Delphine</text>
</g>
<!-- Delphine&#45;&gt;Anna -->
<g id="edge7" class="edge">
<title>Delphine&#45;&gt;Anna</title>
<path fill="none" stroke="black" d="M850.17,-72.41C844.31,-63.87 837.05,-53.28 830.54,-43.79"/>
<polygon fill="black" stroke="black" points="833.38,-41.74 824.84,-35.47 827.61,-45.7 833.38,-41.74"/>
</g>
<!-- Manon -->
<g id="node23" class="node">
<title>Manon</title>
<ellipse fill="none" stroke="black" cx="908.55" cy="-18" rx="42.49" ry="18"/>
<text text-anchor="middle" x="908.55" y="-14.3" font-family="Times,serif" font-size="14.00">Manon</text>
</g>
<!-- Delphine&#45;&gt;Manon -->
<g id="edge8" class="edge">
<title>Delphine&#45;&gt;Manon</title>
<path fill="none" stroke="black" d="M872.69,-72.41C878.42,-63.87 885.53,-53.28 891.9,-43.79"/>
<polygon fill="black" stroke="black" points="894.82,-45.72 897.49,-35.47 889.01,-41.82 894.82,-45.72"/>
</g>
<!-- Helene -->
<g id="node24" class="node">
<title>Helene</title>
<ellipse fill="none" stroke="black" cx="1713.55" cy="-90" rx="43.59" ry="18"/>
<text text-anchor="middle" x="1713.55" y="-86.3" font-family="Times,serif" font-size="14.00">Helene</text>
</g>
<!-- Aude -->
<g id="node25" class="node">
<title>Aude</title>
<ellipse fill="none" stroke="black" cx="1809.55" cy="-90" rx="34.39" ry="18"/>
<text text-anchor="middle" x="1809.55" y="-86.3" font-family="Times,serif" font-size="14.00">Aude</text>
</g>
<!-- Mila -->
<g id="node26" class="node">
<title>Mila</title>
<ellipse fill="none" stroke="black" cx="1893.55" cy="-90" rx="31.4" ry="18"/>
<text text-anchor="middle" x="1893.55" y="-86.3" font-family="Times,serif" font-size="14.00">Mila</text>
</g>
</g>
</svg>
