<?xml version="1.0" encoding="UTF-8" standalone="no"?>
<!DOCTYPE svg PUBLIC "-//W3C//DTD SVG 1.1//EN"
 "http://www.w3.org/Graphics/SVG/1.1/DTD/svg11.dtd">
<!-- Generated by graphviz version 3.0.0 (0)
 -->
<!-- Title: G Pages: 1 -->
<svg width="2692pt" height="116pt"
 viewBox="0.00 0.00 2691.99 116.00" xmlns="http://www.w3.org/2000/svg" xmlns:xlink="http://www.w3.org/1999/xlink">
<g id="graph0" class="graph" transform="scale(1 1) rotate(0) translate(4 112)">
<title>G</title>
<polygon fill="white" stroke="transparent" points="-4,4 -4,-112 2687.99,-112 2687.99,4 -4,4"/>
<!-- Ines -->
<g id="node1" class="node">
<title>Ines</title>
<ellipse fill="none" stroke="black" cx="30.55" cy="-90" rx="30.59" ry="18"/>
<text text-anchor="middle" x="30.55" y="-86.3" font-family="Times,serif" font-size="14.00">Ines</text>
</g>
<!-- Julie -->
<g id="node2" class="node">
<title>Julie</title>
<ellipse fill="none" stroke="black" cx="181.55" cy="-18" rx="31.4" ry="18"/>
<text text-anchor="middle" x="181.55" y="-14.3" font-family="Times,serif" font-size="14.00">Julie</text>
</g>
<!-- Lalie -->
<g id="node3" class="node">
<title>Lalie</title>
<ellipse fill="none" stroke="black" cx="359.55" cy="-90" rx="33.29" ry="18"/>
<text text-anchor="middle" x="359.55" y="-86.3" font-family="Times,serif" font-size="14.00">Lalie</text>
</g>
<!-- Alice -->
<g id="node4" class="node">
<title>Alice</title>
<ellipse fill="none" stroke="black" cx="443.55" cy="-90" rx="33.29" ry="18"/>
<text text-anchor="middle" x="443.55" y="-86.3" font-family="Times,serif" font-size="14.00">Alice</text>
</g>
<!-- Lina -->
<g id="node5" class="node">
<title>Lina</title>
<ellipse fill="none" stroke="black" cx="529.55" cy="-18" rx="30.59" ry="18"/>
<text text-anchor="middle" x="529.55" y="-14.3" font-family="Times,serif" font-size="14.00">Lina</text>
</g>
<!-- Lamia -->
<g id="node6" class="node">
<title>Lamia</title>
<ellipse fill="none" stroke="black" cx="619.55" cy="-18" rx="38.99" ry="18"/>
<text text-anchor="middle" x="619.55" y="-14.3" font-family="Times,serif" font-size="14.00">Lamia</text>
</g>
<!-- Emma -->
<g id="node7" class="node">
<title>Emma</title>
<ellipse fill="none" stroke="black" cx="715.55" cy="-90" rx="40.09" ry="18"/>
<text text-anchor="middle" x="715.55" y="-86.3" font-family="Times,serif" font-size="14.00">Emma</text>
</g>
<!-- Alain -->
<g id="node8" class="node">
<title>Alain</title>
<ellipse fill="none" stroke="black" cx="529.55" cy="-90" rx="34.39" ry="18"/>
<text text-anchor="middle" x="529.55" y="-86.3" font-family="Times,serif" font-size="14.00">Alain</text>
</g>
<!-- Alain&#45;&gt;Lina -->
<g id="edge1" class="edge">
<title>Alain&#45;&gt;Lina</title>
<path fill="none" stroke="black" d="M529.55,-71.7C529.55,-63.98 529.55,-54.71 529.55,-46.11"/>
<polygon fill="black" stroke="black" points="533.05,-46.1 529.55,-36.1 526.05,-46.1 533.05,-46.1"/>
</g>
<!-- Caroline -->
<g id="node9" class="node">
<title>Caroline</title>
<ellipse fill="none" stroke="black" cx="823.55" cy="-90" rx="50.09" ry="18"/>
<text text-anchor="middle" x="823.55" y="-86.3" font-family="Times,serif" font-size="14.00">Caroline</text>
</g>
<!-- Ambre -->
<g id="node10" class="node">
<title>Ambre</title>
<ellipse fill="none" stroke="black" cx="933.55" cy="-90" rx="41.69" ry="18"/>
<text text-anchor="middle" x="933.55" y="-86.3" font-family="Times,serif" font-size="14.00">Ambre</text>
</g>
<!-- Chloe -->
<g id="node14" class="node">
<title>Chloe</title>
<ellipse fill="none" stroke="black" cx="933.55" cy="-18" rx="37.09" ry="18"/>
<text text-anchor="middle" x="933.55" y="-14.3" font-family="Times,serif" font-size="14.00">Chloe</text>
</g>
<!-- Ambre&#45;&gt;Chloe -->
<g id="edge2" class="edge">
<title>Ambre&#45;&gt;Chloe</title>
<path fill="none" stroke="black" d="M933.55,-71.7C933.55,-63.98 933.55,-54.71 933.55,-46.11"/>
<polygon fill="black" stroke="black" points="937.05,-46.1 933.55,-36.1 930.05,-46.1 937.05,-46.1"/>
</g>
<!-- Agathe -->
<g id="node11" class="node">
<title>Agathe</title>
<ellipse fill="none" stroke="black" cx="1036.55" cy="-90" rx="43.59" ry="18"/>
<text text-anchor="middle" x="1036.55" y="-86.3" font-family="Times,serif" font-size="14.00">Agathe</text>
</g>
<!-- Mia -->
<g id="node19" class="node">
<title>Mia</title>
<ellipse fill="none" stroke="black" cx="1036.55" cy="-18" rx="28.7" ry="18"/>
<text text-anchor="middle" x="1036.55" y="-14.3" font-family="Times,serif" font-size="14.00">Mia</text>
</g>
<!-- Agathe&#45;&gt;Mia -->
<g id="edge3" class="edge">
<title>Agathe&#45;&gt;Mia</title>
<path fill="none" stroke="black" d="M1036.55,-71.7C1036.55,-63.98 1036.55,-54.71 1036.55,-46.11"/>
<polygon fill="black" stroke="black" points="1040.05,-46.1 1036.55,-36.1 1033.05,-46.1 1040.05,-46.1"/>
</g>
<!-- Mathilde -->
<g id="node12" class="node">
<title>Mathilde</title>
<ellipse fill="none" stroke="black" cx="1150.55" cy="-90" rx="51.99" ry="18"/>
<text text-anchor="middle" x="1150.55" y="-86.3" font-family="Times,serif" font-size="14.00">Mathilde</text>
</g>
<!-- Didier -->
<g id="node13" class="node">
<title>Didier</title>
<ellipse fill="none" stroke="black" cx="1260.55" cy="-90" rx="39.79" ry="18"/>
<text text-anchor="middle" x="1260.55" y="-86.3" font-family="Times,serif" font-size="14.00">Didier</text>
</g>
<!-- Anna -->
<g id="node15" class="node">
<title>Anna</title>
<ellipse fill="none" stroke="black" cx="1352.55" cy="-90" rx="34.39" ry="18"/>
<text text-anchor="middle" x="1352.55" y="-86.3" font-family="Times,serif" font-size="14.00">Anna</text>
</g>
<!-- Pauline -->
<g id="node16" class="node">
<title>Pauline</title>
<ellipse fill="none" stroke="black" cx="123.55" cy="-90" rx="44.69" ry="18"/>
<text text-anchor="middle" x="123.55" y="-86.3" font-family="Times,serif" font-size="14.00">Pauline</text>
</g>
<!-- Pauline&#45;&gt;Julie -->
<g id="edge4" class="edge">
<title>Pauline&#45;&gt;Julie</title>
<path fill="none" stroke="black" d="M137,-72.76C144.42,-63.8 153.78,-52.51 162,-42.59"/>
<polygon fill="black" stroke="black" points="164.88,-44.6 168.57,-34.67 159.49,-40.13 164.88,-44.6"/>
</g>
<!-- Juliette -->
<g id="node17" class="node">
<title>Juliette</title>
<ellipse fill="none" stroke="black" cx="1449.55" cy="-90" rx="44.39" ry="18"/>
<text text-anchor="middle" x="1449.55" y="-86.3" font-family="Times,serif" font-size="14.00">Juliette</text>
</g>
<!-- Camille -->
<g id="node18" class="node">
<title>Camille</title>
<ellipse fill="none" stroke="black" cx="1557.55" cy="-90" rx="46.29" ry="18"/>
<text text-anchor="middle" x="1557.55" y="-86.3" font-family="Times,serif" font-size="14.00">Camille</text>
</g>
<!-- David -->
<g id="node20" class="node">
<title>David</title>
<ellipse fill="none" stroke="black" cx="619.55" cy="-90" rx="37.89" ry="18"/>
<text text-anchor="middle" x="619.55" y="-86.3" font-family="Times,serif" font-size="14.00">David</text>
</g>
<!-- David&#45;&gt;Lamia -->
<g id="edge5" class="edge">
<title>David&#45;&gt;Lamia</title>
<path fill="none" stroke="black" d="M619.55,-71.7C619.55,-63.98 619.55,-54.71 619.55,-46.11"/>
<polygon fill="black" stroke="black" points="623.05,-46.1 619.55,-36.1 616.05,-46.1 623.05,-46.1"/>
</g>
<!-- Lou -->
<g id="node21" class="node">
<title>Lou</title>
<ellipse fill="none" stroke="black" cx="1649.55" cy="-90" rx="27.9" ry="18"/>
<text text-anchor="middle" x="1649.55" y="-86.3" font-family="Times,serif" font-size="14.00">Lou</text>
</g>
<!-- Ghita -->
<g id="node28" class="node">
<title>Ghita</title>
<ellipse fill="none" stroke="black" cx="1685.55" cy="-18" rx="36.29" ry="18"/>
<text text-anchor="middle" x="1685.55" y="-14.3" font-family="Times,serif" font-size="14.00">Ghita</text>
</g>
<!-- Lou&#45;&gt;Ghita -->
<g id="edge7" class="edge">
<title>Lou&#45;&gt;Ghita</title>
<path fill="none" stroke="black" d="M1657.9,-72.76C1662.2,-64.4 1667.54,-54.02 1672.38,-44.61"/>
<polygon fill="black" stroke="black" points="1675.53,-46.13 1676.99,-35.63 1669.31,-42.93 1675.53,-46.13"/>
</g>
<!-- Iris -->
<g id="node22" class="node">
<title>Iris</title>
<ellipse fill="none" stroke="black" cx="1794.55" cy="-90" rx="27" ry="18"/>
<text text-anchor="middle" x="1794.55" y="-86.3" font-family="Times,serif" font-size="14.00">Iris</text>
</g>
<!-- Valerie -->
<g id="node23" class="node">
<title>Valerie</title>
<ellipse fill="none" stroke="black" cx="1882.55" cy="-90" rx="42.79" ry="18"/>
<text text-anchor="middle" x="1882.55" y="-86.3" font-family="Times,serif" font-size="14.00">Valerie</text>
</g>
<!-- Lena -->
<g id="node24" class="node">
<title>Lena</title>
<ellipse fill="none" stroke="black" cx="1976.55" cy="-90" rx="33.29" ry="18"/>
<text text-anchor="middle" x="1976.55" y="-86.3" font-family="Times,serif" font-size="14.00">Lena</text>
</g>
<!-- Jade -->
<g id="node25" class="node">
<title>Jade</title>
<ellipse fill="none" stroke="black" cx="2058.55" cy="-90" rx="30.59" ry="18"/>
<text text-anchor="middle" x="2058.55" y="-86.3" font-family="Times,serif" font-size="14.00">Jade</text>
</g>
<!-- Veronique -->
<g id="node26" class="node">
<title>Veronique</title>
<ellipse fill="none" stroke="black" cx="2164.55" cy="-90" rx="57.69" ry="18"/>
<text text-anchor="middle" x="2164.55" y="-86.3" font-family="Times,serif" font-size="14.00">Veronique</text>
</g>
<!-- Ange -->
<g id="node27" class="node">
<title>Ange</title>
<ellipse fill="none" stroke="black" cx="2274.55" cy="-90" rx="34.39" ry="18"/>
<text text-anchor="middle" x="2274.55" y="-86.3" font-family="Times,serif" font-size="14.00">Ange</text>
</g>
<!-- Delphine -->
<g id="node29" class="node">
<title>Delphine</title>
<ellipse fill="none" stroke="black" cx="238.55" cy="-90" rx="51.99" ry="18"/>
<text text-anchor="middle" x="238.55" y="-86.3" font-family="Times,serif" font-size="14.00">Delphine</text>
</g>
<!-- Delphine&#45;&gt;Julie -->
<g id="edge9" class="edge">
<title>Delphine&#45;&gt;Julie</title>
<path fill="none" stroke="black" d="M225.04,-72.41C217.73,-63.44 208.59,-52.21 200.58,-42.37"/>
<polygon fill="black" stroke="black" points="203.21,-40.06 194.18,-34.51 197.78,-44.48 203.21,-40.06"/>
</g>
<!-- Delphine&#45;&gt;Delphine -->
<g id="edge6" class="edge">
<title>Delphine&#45;&gt;Delphine</title>
<path fill="none" stroke="black" d="M274.56,-103.1C292.52,-104.91 308.54,-100.55 308.54,-90 308.54,-81.51 298.17,-77.03 284.76,-76.54"/>
<polygon fill="black" stroke="black" points="284.43,-73.05 274.56,-76.9 284.68,-80.05 284.43,-73.05"/>
</g>
<!-- Lea -->
<g id="node30" class="node">
<title>Lea</title>
<ellipse fill="none" stroke="black" cx="1722.55" cy="-90" rx="27.1" ry="18"/>
<text text-anchor="middle" x="1722.55" y="-86.3" font-family="Times,serif" font-size="14.00">Lea</text>
</g>
<!-- Lea&#45;&gt;Ghita -->
<g id="edge8" class="edge">
<title>Lea&#45;&gt;Ghita</title>
<path fill="none" stroke="black" d="M1713.97,-72.76C1709.55,-64.4 1704.06,-54.02 1699.08,-44.61"/>
<polygon fill="black" stroke="black" points="1702.11,-42.84 1694.34,-35.63 1695.92,-46.11 1702.11,-42.84"/>
</g>
<!-- Manon -->
<g id="node31" class="node">
<title>Manon</title>
<ellipse fill="none" stroke="black" cx="2369.55" cy="-90" rx="42.49" ry="18"/>
<text text-anchor="middle" x="2369.55" y="-86.3" font-family="Times,serif" font-size="14.00">Manon</text>
</g>
<!-- Mila -->
<g id="node32" class="node">
<title>Mila</title>
<ellipse fill="none" stroke="black" cx="2460.55" cy="-90" rx="31.4" ry="18"/>
<text text-anchor="middle" x="2460.55" y="-86.3" font-family="Times,serif" font-size="14.00">Mila</text>
</g>
<!-- Helene -->
<g id="node33" class="node">
<title>Helene</title>
<ellipse fill="none" stroke="black" cx="2553.55" cy="-90" rx="43.59" ry="18"/>
<text text-anchor="middle" x="2553.55" y="-86.3" font-family="Times,serif" font-size="14.00">Helene</text>
</g>
<!-- Aude -->
<g id="node34" class="node">
<title>Aude</title>
<ellipse fill="none" stroke="black" cx="2649.55" cy="-90" rx="34.39" ry="18"/>
<text text-anchor="middle" x="2649.55" y="-86.3" font-family="Times,serif" font-size="14.00">Aude</text>
</g>
</g>
</svg>
