<?xml version="1.0" encoding="UTF-8" standalone="no"?>
<!DOCTYPE svg PUBLIC "-//W3C//DTD SVG 1.1//EN"
 "http://www.w3.org/Graphics/SVG/1.1/DTD/svg11.dtd">
<!-- Generated by graphviz version 3.0.0 (0)
 -->
<!-- Title: G Pages: 1 -->
<svg width="1968pt" height="188pt"
 viewBox="0.00 0.00 1968.49 188.00" xmlns="http://www.w3.org/2000/svg" xmlns:xlink="http://www.w3.org/1999/xlink">
<g id="graph0" class="graph" transform="scale(1 1) rotate(0) translate(4 184)">
<title>G</title>
<polygon fill="white" stroke="transparent" points="-4,4 -4,-184 1964.49,-184 1964.49,4 -4,4"/>
<!-- Ines -->
<g id="node1" class="node">
<title>Ines</title>
<ellipse fill="none" stroke="black" cx="30.55" cy="-90" rx="30.59" ry="18"/>
<text text-anchor="middle" x="30.55" y="-86.3" font-family="Times,serif" font-size="14.00">Ines</text>
</g>
<!-- Julie -->
<g id="node2" class="node">
<title>Julie</title>
<ellipse fill="none" stroke="black" cx="107.55" cy="-162" rx="31.4" ry="18"/>
<text text-anchor="middle" x="107.55" y="-158.3" font-family="Times,serif" font-size="14.00">Julie</text>
</g>
<!-- Lalie -->
<g id="node3" class="node">
<title>Lalie</title>
<ellipse fill="none" stroke="black" cx="189.55" cy="-162" rx="33.29" ry="18"/>
<text text-anchor="middle" x="189.55" y="-158.3" font-family="Times,serif" font-size="14.00">Lalie</text>
</g>
<!-- Alice -->
<g id="node4" class="node">
<title>Alice</title>
<ellipse fill="none" stroke="black" cx="273.55" cy="-162" rx="33.29" ry="18"/>
<text text-anchor="middle" x="273.55" y="-158.3" font-family="Times,serif" font-size="14.00">Alice</text>
</g>
<!-- Lina -->
<g id="node5" class="node">
<title>Lina</title>
<ellipse fill="none" stroke="black" cx="355.55" cy="-162" rx="30.59" ry="18"/>
<text text-anchor="middle" x="355.55" y="-158.3" font-family="Times,serif" font-size="14.00">Lina</text>
</g>
<!-- Ambre -->
<g id="node6" class="node">
<title>Ambre</title>
<ellipse fill="none" stroke="black" cx="445.55" cy="-162" rx="41.69" ry="18"/>
<text text-anchor="middle" x="445.55" y="-158.3" font-family="Times,serif" font-size="14.00">Ambre</text>
</g>
<!-- Caroline -->
<g id="node7" class="node">
<title>Caroline</title>
<ellipse fill="none" stroke="black" cx="555.55" cy="-162" rx="50.09" ry="18"/>
<text text-anchor="middle" x="555.55" y="-158.3" font-family="Times,serif" font-size="14.00">Caroline</text>
</g>
<!-- Jeanne -->
<g id="node8" class="node">
<title>Jeanne</title>
<ellipse fill="none" stroke="black" cx="665.55" cy="-162" rx="42.49" ry="18"/>
<text text-anchor="middle" x="665.55" y="-158.3" font-family="Times,serif" font-size="14.00">Jeanne</text>
</g>
<!-- Zoe -->
<g id="node9" class="node">
<title>Zoe</title>
<ellipse fill="none" stroke="black" cx="30.55" cy="-162" rx="27.9" ry="18"/>
<text text-anchor="middle" x="30.55" y="-158.3" font-family="Times,serif" font-size="14.00">Zoe</text>
</g>
<!-- Zoe&#45;&gt;Ines -->
<g id="edge1" class="edge">
<title>Zoe&#45;&gt;Ines</title>
<path fill="none" stroke="black" d="M30.55,-143.7C30.55,-135.98 30.55,-126.71 30.55,-118.11"/>
<polygon fill="black" stroke="black" points="34.05,-118.1 30.55,-108.1 27.05,-118.1 34.05,-118.1"/>
</g>
<!-- Valerie -->
<g id="node10" class="node">
<title>Valerie</title>
<ellipse fill="none" stroke="black" cx="756.55" cy="-18" rx="42.79" ry="18"/>
<text text-anchor="middle" x="756.55" y="-14.3" font-family="Times,serif" font-size="14.00">Valerie</text>
</g>
<!-- Didier -->
<g id="node11" class="node">
<title>Didier</title>
<ellipse fill="none" stroke="black" cx="839.55" cy="-162" rx="39.79" ry="18"/>
<text text-anchor="middle" x="839.55" y="-158.3" font-family="Times,serif" font-size="14.00">Didier</text>
</g>
<!-- Pauline -->
<g id="node12" class="node">
<title>Pauline</title>
<ellipse fill="none" stroke="black" cx="941.55" cy="-162" rx="44.69" ry="18"/>
<text text-anchor="middle" x="941.55" y="-158.3" font-family="Times,serif" font-size="14.00">Pauline</text>
</g>
<!-- Lou -->
<g id="node13" class="node">
<title>Lou</title>
<ellipse fill="none" stroke="black" cx="753.55" cy="-162" rx="27.9" ry="18"/>
<text text-anchor="middle" x="753.55" y="-158.3" font-family="Times,serif" font-size="14.00">Lou</text>
</g>
<!-- Delphine -->
<g id="node20" class="node">
<title>Delphine</title>
<ellipse fill="none" stroke="black" cx="753.55" cy="-90" rx="51.99" ry="18"/>
<text text-anchor="middle" x="753.55" y="-86.3" font-family="Times,serif" font-size="14.00">Delphine</text>
</g>
<!-- Lou&#45;&gt;Delphine -->
<g id="edge4" class="edge">
<title>Lou&#45;&gt;Delphine</title>
<path fill="none" stroke="black" d="M753.55,-143.7C753.55,-135.98 753.55,-126.71 753.55,-118.11"/>
<polygon fill="black" stroke="black" points="757.05,-118.1 753.55,-108.1 750.05,-118.1 757.05,-118.1"/>
</g>
<!-- Soukaina -->
<g id="node14" class="node">
<title>Soukaina</title>
<ellipse fill="none" stroke="black" cx="1057.55" cy="-162" rx="53.09" ry="18"/>
<text text-anchor="middle" x="1057.55" y="-158.3" font-family="Times,serif" font-size="14.00">Soukaina</text>
</g>
<!-- Lamia -->
<g id="node15" class="node">
<title>Lamia</title>
<ellipse fill="none" stroke="black" cx="1167.55" cy="-162" rx="38.99" ry="18"/>
<text text-anchor="middle" x="1167.55" y="-158.3" font-family="Times,serif" font-size="14.00">Lamia</text>
</g>
<!-- Chloe -->
<g id="node16" class="node">
<title>Chloe</title>
<ellipse fill="none" stroke="black" cx="1261.55" cy="-162" rx="37.09" ry="18"/>
<text text-anchor="middle" x="1261.55" y="-158.3" font-family="Times,serif" font-size="14.00">Chloe</text>
</g>
<!-- Marcelin -->
<g id="node17" class="node">
<title>Marcelin</title>
<ellipse fill="none" stroke="black" cx="1368.55" cy="-162" rx="51.99" ry="18"/>
<text text-anchor="middle" x="1368.55" y="-158.3" font-family="Times,serif" font-size="14.00">Marcelin</text>
</g>
<!-- Camille -->
<g id="node18" class="node">
<title>Camille</title>
<ellipse fill="none" stroke="black" cx="1368.55" cy="-90" rx="46.29" ry="18"/>
<text text-anchor="middle" x="1368.55" y="-86.3" font-family="Times,serif" font-size="14.00">Camille</text>
</g>
<!-- Marcelin&#45;&gt;Camille -->
<g id="edge2" class="edge">
<title>Marcelin&#45;&gt;Camille</title>
<path fill="none" stroke="black" d="M1368.55,-143.7C1368.55,-135.98 1368.55,-126.71 1368.55,-118.11"/>
<polygon fill="black" stroke="black" points="1372.05,-118.1 1368.55,-108.1 1365.05,-118.1 1372.05,-118.1"/>
</g>
<!-- Ange -->
<g id="node19" class="node">
<title>Ange</title>
<ellipse fill="none" stroke="black" cx="1472.55" cy="-162" rx="34.39" ry="18"/>
<text text-anchor="middle" x="1472.55" y="-158.3" font-family="Times,serif" font-size="14.00">Ange</text>
</g>
<!-- Delphine&#45;&gt;Valerie -->
<g id="edge6" class="edge">
<title>Delphine&#45;&gt;Valerie</title>
<path fill="none" stroke="black" d="M754.29,-71.7C754.62,-63.98 755.02,-54.71 755.39,-46.11"/>
<polygon fill="black" stroke="black" points="758.88,-46.25 755.81,-36.1 751.89,-45.95 758.88,-46.25"/>
</g>
<!-- Sophie -->
<g id="node24" class="node">
<title>Sophie</title>
<ellipse fill="none" stroke="black" cx="653.55" cy="-18" rx="42.49" ry="18"/>
<text text-anchor="middle" x="653.55" y="-14.3" font-family="Times,serif" font-size="14.00">Sophie</text>
</g>
<!-- Delphine&#45;&gt;Sophie -->
<g id="edge3" class="edge">
<title>Delphine&#45;&gt;Sophie</title>
<path fill="none" stroke="black" d="M731.35,-73.46C717.08,-63.47 698.37,-50.38 682.88,-39.53"/>
<polygon fill="black" stroke="black" points="684.85,-36.64 674.65,-33.77 680.84,-42.38 684.85,-36.64"/>
</g>
<!-- Lea -->
<g id="node21" class="node">
<title>Lea</title>
<ellipse fill="none" stroke="black" cx="653.55" cy="-90" rx="27.1" ry="18"/>
<text text-anchor="middle" x="653.55" y="-86.3" font-family="Times,serif" font-size="14.00">Lea</text>
</g>
<!-- Lea&#45;&gt;Sophie -->
<g id="edge5" class="edge">
<title>Lea&#45;&gt;Sophie</title>
<path fill="none" stroke="black" d="M653.55,-71.7C653.55,-63.98 653.55,-54.71 653.55,-46.11"/>
<polygon fill="black" stroke="black" points="657.05,-46.1 653.55,-36.1 650.05,-46.1 657.05,-46.1"/>
</g>
<!-- Mila -->
<g id="node22" class="node">
<title>Mila</title>
<ellipse fill="none" stroke="black" cx="1556.55" cy="-162" rx="31.4" ry="18"/>
<text text-anchor="middle" x="1556.55" y="-158.3" font-family="Times,serif" font-size="14.00">Mila</text>
</g>
<!-- Ghita -->
<g id="node23" class="node">
<title>Ghita</title>
<ellipse fill="none" stroke="black" cx="1642.55" cy="-162" rx="36.29" ry="18"/>
<text text-anchor="middle" x="1642.55" y="-158.3" font-family="Times,serif" font-size="14.00">Ghita</text>
</g>
<!-- Anna -->
<g id="node25" class="node">
<title>Anna</title>
<ellipse fill="none" stroke="black" cx="1731.55" cy="-162" rx="34.39" ry="18"/>
<text text-anchor="middle" x="1731.55" y="-158.3" font-family="Times,serif" font-size="14.00">Anna</text>
</g>
<!-- Iris -->
<g id="node26" class="node">
<title>Iris</title>
<ellipse fill="none" stroke="black" cx="1822.55" cy="-90" rx="27" ry="18"/>
<text text-anchor="middle" x="1822.55" y="-86.3" font-family="Times,serif" font-size="14.00">Iris</text>
</g>
<!-- Louise -->
<g id="node27" class="node">
<title>Louise</title>
<ellipse fill="none" stroke="black" cx="1919.55" cy="-162" rx="40.89" ry="18"/>
<text text-anchor="middle" x="1919.55" y="-158.3" font-family="Times,serif" font-size="14.00">Louise</text>
</g>
<!-- Aaron -->
<g id="node28" class="node">
<title>Aaron</title>
<ellipse fill="none" stroke="black" cx="1822.55" cy="-162" rx="38.19" ry="18"/>
<text text-anchor="middle" x="1822.55" y="-158.3" font-family="Times,serif" font-size="14.00">Aaron</text>
</g>
<!-- Aaron&#45;&gt;Iris -->
<g id="edge7" class="edge">
<title>Aaron&#45;&gt;Iris</title>
<path fill="none" stroke="black" d="M1822.55,-143.7C1822.55,-135.98 1822.55,-126.71 1822.55,-118.11"/>
<polygon fill="black" stroke="black" points="1826.05,-118.1 1822.55,-108.1 1819.05,-118.1 1826.05,-118.1"/>
</g>
</g>
</svg>
