<?xml version="1.0" encoding="UTF-8" standalone="no"?>
<!DOCTYPE svg PUBLIC "-//W3C//DTD SVG 1.1//EN"
 "http://www.w3.org/Graphics/SVG/1.1/DTD/svg11.dtd">
<!-- Generated by graphviz version 3.0.0 (0)
 -->
<!-- Title: G Pages: 1 -->
<svg width="1254pt" height="116pt"
 viewBox="0.00 0.00 1253.60 116.00" xmlns="http://www.w3.org/2000/svg" xmlns:xlink="http://www.w3.org/1999/xlink">
<g id="graph0" class="graph" transform="scale(1 1) rotate(0) translate(4 112)">
<title>G</title>
<polygon fill="white" stroke="transparent" points="-4,4 -4,-112 1249.6,-112 1249.6,4 -4,4"/>
<!-- Ambre -->
<g id="node1" class="node">
<title>Ambre</title>
<ellipse fill="none" stroke="black" cx="41.6" cy="-18" rx="41.69" ry="18"/>
<text text-anchor="middle" x="41.6" y="-14.3" font-family="Times,serif" font-size="14.00">Ambre</text>
</g>
<!-- Julie -->
<g id="node2" class="node">
<title>Julie</title>
<ellipse fill="none" stroke="black" cx="125.6" cy="-90" rx="31.4" ry="18"/>
<text text-anchor="middle" x="125.6" y="-86.3" font-family="Times,serif" font-size="14.00">Julie</text>
</g>
<!-- Alain -->
<g id="node3" class="node">
<title>Alain</title>
<ellipse fill="none" stroke="black" cx="41.6" cy="-90" rx="34.39" ry="18"/>
<text text-anchor="middle" x="41.6" y="-86.3" font-family="Times,serif" font-size="14.00">Alain</text>
</g>
<!-- Alain&#45;&gt;Ambre -->
<g id="edge1" class="edge">
<title>Alain&#45;&gt;Ambre</title>
<path fill="none" stroke="black" d="M41.6,-71.7C41.6,-63.98 41.6,-54.71 41.6,-46.11"/>
<polygon fill="black" stroke="black" points="45.1,-46.1 41.6,-36.1 38.1,-46.1 45.1,-46.1"/>
</g>
<!-- Lina -->
<g id="node4" class="node">
<title>Lina</title>
<ellipse fill="none" stroke="black" cx="205.6" cy="-90" rx="30.59" ry="18"/>
<text text-anchor="middle" x="205.6" y="-86.3" font-family="Times,serif" font-size="14.00">Lina</text>
</g>
<!-- Pauline -->
<g id="node5" class="node">
<title>Pauline</title>
<ellipse fill="none" stroke="black" cx="293.6" cy="-18" rx="44.69" ry="18"/>
<text text-anchor="middle" x="293.6" y="-14.3" font-family="Times,serif" font-size="14.00">Pauline</text>
</g>
<!-- Lea -->
<g id="node6" class="node">
<title>Lea</title>
<ellipse fill="none" stroke="black" cx="378.6" cy="-90" rx="27.1" ry="18"/>
<text text-anchor="middle" x="378.6" y="-86.3" font-family="Times,serif" font-size="14.00">Lea</text>
</g>
<!-- Didier -->
<g id="node7" class="node">
<title>Didier</title>
<ellipse fill="none" stroke="black" cx="293.6" cy="-90" rx="39.79" ry="18"/>
<text text-anchor="middle" x="293.6" y="-86.3" font-family="Times,serif" font-size="14.00">Didier</text>
</g>
<!-- Didier&#45;&gt;Pauline -->
<g id="edge2" class="edge">
<title>Didier&#45;&gt;Pauline</title>
<path fill="none" stroke="black" d="M293.6,-71.7C293.6,-63.98 293.6,-54.71 293.6,-46.11"/>
<polygon fill="black" stroke="black" points="297.1,-46.1 293.6,-36.1 290.1,-46.1 297.1,-46.1"/>
</g>
<!-- Anna -->
<g id="node8" class="node">
<title>Anna</title>
<ellipse fill="none" stroke="black" cx="458.6" cy="-90" rx="34.39" ry="18"/>
<text text-anchor="middle" x="458.6" y="-86.3" font-family="Times,serif" font-size="14.00">Anna</text>
</g>
<!-- Lou -->
<g id="node9" class="node">
<title>Lou</title>
<ellipse fill="none" stroke="black" cx="538.6" cy="-90" rx="27.9" ry="18"/>
<text text-anchor="middle" x="538.6" y="-86.3" font-family="Times,serif" font-size="14.00">Lou</text>
</g>
<!-- Jade -->
<g id="node10" class="node">
<title>Jade</title>
<ellipse fill="none" stroke="black" cx="614.6" cy="-90" rx="30.59" ry="18"/>
<text text-anchor="middle" x="614.6" y="-86.3" font-family="Times,serif" font-size="14.00">Jade</text>
</g>
<!-- Agathe -->
<g id="node11" class="node">
<title>Agathe</title>
<ellipse fill="none" stroke="black" cx="706.6" cy="-90" rx="43.59" ry="18"/>
<text text-anchor="middle" x="706.6" y="-86.3" font-family="Times,serif" font-size="14.00">Agathe</text>
</g>
<!-- Delphine -->
<g id="node12" class="node">
<title>Delphine</title>
<ellipse fill="none" stroke="black" cx="820.6" cy="-90" rx="51.99" ry="18"/>
<text text-anchor="middle" x="820.6" y="-86.3" font-family="Times,serif" font-size="14.00">Delphine</text>
</g>
<!-- Valerie -->
<g id="node13" class="node">
<title>Valerie</title>
<ellipse fill="none" stroke="black" cx="933.6" cy="-90" rx="42.79" ry="18"/>
<text text-anchor="middle" x="933.6" y="-86.3" font-family="Times,serif" font-size="14.00">Valerie</text>
</g>
<!-- Aude -->
<g id="node14" class="node">
<title>Aude</title>
<ellipse fill="none" stroke="black" cx="1032.6" cy="-18" rx="34.39" ry="18"/>
<text text-anchor="middle" x="1032.6" y="-14.3" font-family="Times,serif" font-size="14.00">Aude</text>
</g>
<!-- Sophie -->
<g id="node15" class="node">
<title>Sophie</title>
<ellipse fill="none" stroke="black" cx="1131.6" cy="-90" rx="42.49" ry="18"/>
<text text-anchor="middle" x="1131.6" y="-86.3" font-family="Times,serif" font-size="14.00">Sophie</text>
</g>
<!-- Iris -->
<g id="node16" class="node">
<title>Iris</title>
<ellipse fill="none" stroke="black" cx="1218.6" cy="-90" rx="27" ry="18"/>
<text text-anchor="middle" x="1218.6" y="-86.3" font-family="Times,serif" font-size="14.00">Iris</text>
</g>
<!-- Aaron -->
<g id="node17" class="node">
<title>Aaron</title>
<ellipse fill="none" stroke="black" cx="1032.6" cy="-90" rx="38.19" ry="18"/>
<text text-anchor="middle" x="1032.6" y="-86.3" font-family="Times,serif" font-size="14.00">Aaron</text>
</g>
<!-- Aaron&#45;&gt;Aude -->
<g id="edge3" class="edge">
<title>Aaron&#45;&gt;Aude</title>
<path fill="none" stroke="black" d="M1032.6,-71.7C1032.6,-63.98 1032.6,-54.71 1032.6,-46.11"/>
<polygon fill="black" stroke="black" points="1036.1,-46.1 1032.6,-36.1 1029.1,-46.1 1036.1,-46.1"/>
</g>
</g>
</svg>
