<?xml version="1.0" encoding="UTF-8" standalone="no"?>
<!DOCTYPE svg PUBLIC "-//W3C//DTD SVG 1.1//EN"
 "http://www.w3.org/Graphics/SVG/1.1/DTD/svg11.dtd">
<!-- Generated by graphviz version 3.0.0 (0)
 -->
<!-- Title: G Pages: 1 -->
<svg width="1663pt" height="116pt"
 viewBox="0.00 0.00 1662.94 116.00" xmlns="http://www.w3.org/2000/svg" xmlns:xlink="http://www.w3.org/1999/xlink">
<g id="graph0" class="graph" transform="scale(1 1) rotate(0) translate(4 112)">
<title>G</title>
<polygon fill="white" stroke="transparent" points="-4,4 -4,-112 1658.94,-112 1658.94,4 -4,4"/>
<!-- Ambre -->
<g id="node1" class="node">
<title>Ambre</title>
<ellipse fill="none" stroke="black" cx="41.6" cy="-90" rx="41.69" ry="18"/>
<text text-anchor="middle" x="41.6" y="-86.3" font-family="Times,serif" font-size="14.00">Ambre</text>
</g>
<!-- Julie -->
<g id="node2" class="node">
<title>Julie</title>
<ellipse fill="none" stroke="black" cx="135.6" cy="-18" rx="31.4" ry="18"/>
<text text-anchor="middle" x="135.6" y="-14.3" font-family="Times,serif" font-size="14.00">Julie</text>
</g>
<!-- Alice -->
<g id="node3" class="node">
<title>Alice</title>
<ellipse fill="none" stroke="black" cx="221.6" cy="-90" rx="33.29" ry="18"/>
<text text-anchor="middle" x="221.6" y="-86.3" font-family="Times,serif" font-size="14.00">Alice</text>
</g>
<!-- Alain -->
<g id="node4" class="node">
<title>Alain</title>
<ellipse fill="none" stroke="black" cx="135.6" cy="-90" rx="34.39" ry="18"/>
<text text-anchor="middle" x="135.6" y="-86.3" font-family="Times,serif" font-size="14.00">Alain</text>
</g>
<!-- Alain&#45;&gt;Julie -->
<g id="edge1" class="edge">
<title>Alain&#45;&gt;Julie</title>
<path fill="none" stroke="black" d="M135.6,-71.7C135.6,-63.98 135.6,-54.71 135.6,-46.11"/>
<polygon fill="black" stroke="black" points="139.1,-46.1 135.6,-36.1 132.1,-46.1 139.1,-46.1"/>
</g>
<!-- Pauline -->
<g id="node5" class="node">
<title>Pauline</title>
<ellipse fill="none" stroke="black" cx="317.6" cy="-90" rx="44.69" ry="18"/>
<text text-anchor="middle" x="317.6" y="-86.3" font-family="Times,serif" font-size="14.00">Pauline</text>
</g>
<!-- Zoe -->
<g id="node6" class="node">
<title>Zoe</title>
<ellipse fill="none" stroke="black" cx="408.6" cy="-90" rx="27.9" ry="18"/>
<text text-anchor="middle" x="408.6" y="-86.3" font-family="Times,serif" font-size="14.00">Zoe</text>
</g>
<!-- Agathe -->
<g id="node7" class="node">
<title>Agathe</title>
<ellipse fill="none" stroke="black" cx="449.6" cy="-18" rx="43.59" ry="18"/>
<text text-anchor="middle" x="449.6" y="-14.3" font-family="Times,serif" font-size="14.00">Agathe</text>
</g>
<!-- Lea -->
<g id="node8" class="node">
<title>Lea</title>
<ellipse fill="none" stroke="black" cx="538.6" cy="-18" rx="27.1" ry="18"/>
<text text-anchor="middle" x="538.6" y="-14.3" font-family="Times,serif" font-size="14.00">Lea</text>
</g>
<!-- Didier -->
<g id="node9" class="node">
<title>Didier</title>
<ellipse fill="none" stroke="black" cx="494.6" cy="-90" rx="39.79" ry="18"/>
<text text-anchor="middle" x="494.6" y="-86.3" font-family="Times,serif" font-size="14.00">Didier</text>
</g>
<!-- Didier&#45;&gt;Agathe -->
<g id="edge2" class="edge">
<title>Didier&#45;&gt;Agathe</title>
<path fill="none" stroke="black" d="M483.93,-72.41C478.5,-63.95 471.77,-53.49 465.72,-44.08"/>
<polygon fill="black" stroke="black" points="468.54,-41.99 460.18,-35.47 462.65,-45.77 468.54,-41.99"/>
</g>
<!-- Didier&#45;&gt;Lea -->
<g id="edge5" class="edge">
<title>Didier&#45;&gt;Lea</title>
<path fill="none" stroke="black" d="M505.02,-72.41C510.42,-63.83 517.1,-53.19 523.09,-43.67"/>
<polygon fill="black" stroke="black" points="526.19,-45.32 528.55,-34.99 520.26,-41.59 526.19,-45.32"/>
</g>
<!-- Soukaina -->
<g id="node10" class="node">
<title>Soukaina</title>
<ellipse fill="none" stroke="black" cx="605.6" cy="-90" rx="53.09" ry="18"/>
<text text-anchor="middle" x="605.6" y="-86.3" font-family="Times,serif" font-size="14.00">Soukaina</text>
</g>
<!-- Anna -->
<g id="node11" class="node">
<title>Anna</title>
<ellipse fill="none" stroke="black" cx="714.6" cy="-18" rx="34.39" ry="18"/>
<text text-anchor="middle" x="714.6" y="-14.3" font-family="Times,serif" font-size="14.00">Anna</text>
</g>
<!-- Lou -->
<g id="node12" class="node">
<title>Lou</title>
<ellipse fill="none" stroke="black" cx="798.6" cy="-90" rx="27.9" ry="18"/>
<text text-anchor="middle" x="798.6" y="-86.3" font-family="Times,serif" font-size="14.00">Lou</text>
</g>
<!-- David -->
<g id="node13" class="node">
<title>David</title>
<ellipse fill="none" stroke="black" cx="714.6" cy="-90" rx="37.89" ry="18"/>
<text text-anchor="middle" x="714.6" y="-86.3" font-family="Times,serif" font-size="14.00">David</text>
</g>
<!-- David&#45;&gt;Anna -->
<g id="edge3" class="edge">
<title>David&#45;&gt;Anna</title>
<path fill="none" stroke="black" d="M714.6,-71.7C714.6,-63.98 714.6,-54.71 714.6,-46.11"/>
<polygon fill="black" stroke="black" points="718.1,-46.1 714.6,-36.1 711.1,-46.1 718.1,-46.1"/>
</g>
<!-- Camille -->
<g id="node14" class="node">
<title>Camille</title>
<ellipse fill="none" stroke="black" cx="890.6" cy="-90" rx="46.29" ry="18"/>
<text text-anchor="middle" x="890.6" y="-86.3" font-family="Times,serif" font-size="14.00">Camille</text>
</g>
<!-- Marcelin -->
<g id="node15" class="node">
<title>Marcelin</title>
<ellipse fill="none" stroke="black" cx="1006.6" cy="-90" rx="51.99" ry="18"/>
<text text-anchor="middle" x="1006.6" y="-86.3" font-family="Times,serif" font-size="14.00">Marcelin</text>
</g>
<!-- Ghita -->
<g id="node17" class="node">
<title>Ghita</title>
<ellipse fill="none" stroke="black" cx="1006.6" cy="-18" rx="36.29" ry="18"/>
<text text-anchor="middle" x="1006.6" y="-14.3" font-family="Times,serif" font-size="14.00">Ghita</text>
</g>
<!-- Marcelin&#45;&gt;Ghita -->
<g id="edge4" class="edge">
<title>Marcelin&#45;&gt;Ghita</title>
<path fill="none" stroke="black" d="M1006.6,-71.7C1006.6,-63.98 1006.6,-54.71 1006.6,-46.11"/>
<polygon fill="black" stroke="black" points="1010.1,-46.1 1006.6,-36.1 1003.1,-46.1 1010.1,-46.1"/>
</g>
<!-- Ange -->
<g id="node16" class="node">
<title>Ange</title>
<ellipse fill="none" stroke="black" cx="1110.6" cy="-90" rx="34.39" ry="18"/>
<text text-anchor="middle" x="1110.6" y="-86.3" font-family="Times,serif" font-size="14.00">Ange</text>
</g>
<!-- Delphine -->
<g id="node18" class="node">
<title>Delphine</title>
<ellipse fill="none" stroke="black" cx="1214.6" cy="-90" rx="51.99" ry="18"/>
<text text-anchor="middle" x="1214.6" y="-86.3" font-family="Times,serif" font-size="14.00">Delphine</text>
</g>
<!-- Valerie -->
<g id="node19" class="node">
<title>Valerie</title>
<ellipse fill="none" stroke="black" cx="1327.6" cy="-90" rx="42.79" ry="18"/>
<text text-anchor="middle" x="1327.6" y="-86.3" font-family="Times,serif" font-size="14.00">Valerie</text>
</g>
<!-- Aude -->
<g id="node20" class="node">
<title>Aude</title>
<ellipse fill="none" stroke="black" cx="1422.6" cy="-90" rx="34.39" ry="18"/>
<text text-anchor="middle" x="1422.6" y="-86.3" font-family="Times,serif" font-size="14.00">Aude</text>
</g>
<!-- Sophie -->
<g id="node21" class="node">
<title>Sophie</title>
<ellipse fill="none" stroke="black" cx="1517.6" cy="-90" rx="42.49" ry="18"/>
<text text-anchor="middle" x="1517.6" y="-86.3" font-family="Times,serif" font-size="14.00">Sophie</text>
</g>
<!-- Iris -->
<g id="node22" class="node">
<title>Iris</title>
<ellipse fill="none" stroke="black" cx="1616.6" cy="-18" rx="27" ry="18"/>
<text text-anchor="middle" x="1616.6" y="-14.3" font-family="Times,serif" font-size="14.00">Iris</text>
</g>
<!-- Aaron -->
<g id="node23" class="node">
<title>Aaron</title>
<ellipse fill="none" stroke="black" cx="1616.6" cy="-90" rx="38.19" ry="18"/>
<text text-anchor="middle" x="1616.6" y="-86.3" font-family="Times,serif" font-size="14.00">Aaron</text>
</g>
<!-- Aaron&#45;&gt;Iris -->
<g id="edge6" class="edge">
<title>Aaron&#45;&gt;Iris</title>
<path fill="none" stroke="black" d="M1616.6,-71.7C1616.6,-63.98 1616.6,-54.71 1616.6,-46.11"/>
<polygon fill="black" stroke="black" points="1620.1,-46.1 1616.6,-36.1 1613.1,-46.1 1620.1,-46.1"/>
</g>
</g>
</svg>
