<?xml version="1.0" encoding="UTF-8" standalone="no"?>
<!DOCTYPE svg PUBLIC "-//W3C//DTD SVG 1.1//EN"
 "http://www.w3.org/Graphics/SVG/1.1/DTD/svg11.dtd">
<!-- Generated by graphviz version 3.0.0 (0)
 -->
<!-- Title: G Pages: 1 -->
<svg width="2104pt" height="188pt"
 viewBox="0.00 0.00 2104.14 188.00" xmlns="http://www.w3.org/2000/svg" xmlns:xlink="http://www.w3.org/1999/xlink">
<g id="graph0" class="graph" transform="scale(1 1) rotate(0) translate(4 184)">
<title>G</title>
<polygon fill="white" stroke="transparent" points="-4,4 -4,-184 2100.14,-184 2100.14,4 -4,4"/>
<!-- Julie -->
<g id="node1" class="node">
<title>Julie</title>
<ellipse fill="none" stroke="black" cx="31.2" cy="-162" rx="31.4" ry="18"/>
<text text-anchor="middle" x="31.2" y="-158.3" font-family="Times,serif" font-size="14.00">Julie</text>
</g>
<!-- Alice -->
<g id="node2" class="node">
<title>Alice</title>
<ellipse fill="none" stroke="black" cx="113.2" cy="-162" rx="33.29" ry="18"/>
<text text-anchor="middle" x="113.2" y="-158.3" font-family="Times,serif" font-size="14.00">Alice</text>
</g>
<!-- Ambre -->
<g id="node3" class="node">
<title>Ambre</title>
<ellipse fill="none" stroke="black" cx="199.2" cy="-90" rx="41.69" ry="18"/>
<text text-anchor="middle" x="199.2" y="-86.3" font-family="Times,serif" font-size="14.00">Ambre</text>
</g>
<!-- Chloe -->
<g id="node11" class="node">
<title>Chloe</title>
<ellipse fill="none" stroke="black" cx="199.2" cy="-18" rx="37.09" ry="18"/>
<text text-anchor="middle" x="199.2" y="-14.3" font-family="Times,serif" font-size="14.00">Chloe</text>
</g>
<!-- Ambre&#45;&gt;Chloe -->
<g id="edge3" class="edge">
<title>Ambre&#45;&gt;Chloe</title>
<path fill="none" stroke="black" d="M199.2,-71.7C199.2,-63.98 199.2,-54.71 199.2,-46.11"/>
<polygon fill="black" stroke="black" points="202.7,-46.1 199.2,-36.1 195.7,-46.1 202.7,-46.1"/>
</g>
<!-- Lamia -->
<g id="node4" class="node">
<title>Lamia</title>
<ellipse fill="none" stroke="black" cx="290.2" cy="-162" rx="38.99" ry="18"/>
<text text-anchor="middle" x="290.2" y="-158.3" font-family="Times,serif" font-size="14.00">Lamia</text>
</g>
<!-- Alain -->
<g id="node5" class="node">
<title>Alain</title>
<ellipse fill="none" stroke="black" cx="199.2" cy="-162" rx="34.39" ry="18"/>
<text text-anchor="middle" x="199.2" y="-158.3" font-family="Times,serif" font-size="14.00">Alain</text>
</g>
<!-- Alain&#45;&gt;Ambre -->
<g id="edge1" class="edge">
<title>Alain&#45;&gt;Ambre</title>
<path fill="none" stroke="black" d="M199.2,-143.7C199.2,-135.98 199.2,-126.71 199.2,-118.11"/>
<polygon fill="black" stroke="black" points="202.7,-118.1 199.2,-108.1 195.7,-118.1 202.7,-118.1"/>
</g>
<!-- Jeanne -->
<g id="node6" class="node">
<title>Jeanne</title>
<ellipse fill="none" stroke="black" cx="389.2" cy="-162" rx="42.49" ry="18"/>
<text text-anchor="middle" x="389.2" y="-158.3" font-family="Times,serif" font-size="14.00">Jeanne</text>
</g>
<!-- Zoe -->
<g id="node7" class="node">
<title>Zoe</title>
<ellipse fill="none" stroke="black" cx="477.2" cy="-162" rx="27.9" ry="18"/>
<text text-anchor="middle" x="477.2" y="-158.3" font-family="Times,serif" font-size="14.00">Zoe</text>
</g>
<!-- Camille -->
<g id="node13" class="node">
<title>Camille</title>
<ellipse fill="none" stroke="black" cx="490.2" cy="-90" rx="46.29" ry="18"/>
<text text-anchor="middle" x="490.2" y="-86.3" font-family="Times,serif" font-size="14.00">Camille</text>
</g>
<!-- Zoe&#45;&gt;Camille -->
<g id="edge2" class="edge">
<title>Zoe&#45;&gt;Camille</title>
<path fill="none" stroke="black" d="M480.34,-144.05C481.78,-136.35 483.51,-127.03 485.12,-118.36"/>
<polygon fill="black" stroke="black" points="488.6,-118.75 486.99,-108.28 481.72,-117.47 488.6,-118.75"/>
</g>
<!-- Lea -->
<g id="node8" class="node">
<title>Lea</title>
<ellipse fill="none" stroke="black" cx="550.2" cy="-162" rx="27.1" ry="18"/>
<text text-anchor="middle" x="550.2" y="-158.3" font-family="Times,serif" font-size="14.00">Lea</text>
</g>
<!-- Lea&#45;&gt;Camille -->
<g id="edge4" class="edge">
<title>Lea&#45;&gt;Camille</title>
<path fill="none" stroke="black" d="M537.18,-145.81C529.56,-136.93 519.77,-125.5 511.1,-115.39"/>
<polygon fill="black" stroke="black" points="513.62,-112.94 504.45,-107.63 508.3,-117.5 513.62,-112.94"/>
</g>
<!-- Helene -->
<g id="node23" class="node">
<title>Helene</title>
<ellipse fill="none" stroke="black" cx="612.2" cy="-90" rx="43.59" ry="18"/>
<text text-anchor="middle" x="612.2" y="-86.3" font-family="Times,serif" font-size="14.00">Helene</text>
</g>
<!-- Lea&#45;&gt;Helene -->
<g id="edge9" class="edge">
<title>Lea&#45;&gt;Helene</title>
<path fill="none" stroke="black" d="M563.35,-146.15C571.39,-137.07 581.87,-125.24 591.06,-114.87"/>
<polygon fill="black" stroke="black" points="593.76,-117.1 597.77,-107.29 588.52,-112.46 593.76,-117.1"/>
</g>
<!-- Valerie -->
<g id="node9" class="node">
<title>Valerie</title>
<ellipse fill="none" stroke="black" cx="638.2" cy="-162" rx="42.79" ry="18"/>
<text text-anchor="middle" x="638.2" y="-158.3" font-family="Times,serif" font-size="14.00">Valerie</text>
</g>
<!-- Valerie&#45;&gt;Helene -->
<g id="edge8" class="edge">
<title>Valerie&#45;&gt;Helene</title>
<path fill="none" stroke="black" d="M631.9,-144.05C628.98,-136.18 625.43,-126.62 622.15,-117.79"/>
<polygon fill="black" stroke="black" points="625.38,-116.43 618.61,-108.28 618.81,-118.87 625.38,-116.43"/>
</g>
<!-- Ines -->
<g id="node10" class="node">
<title>Ines</title>
<ellipse fill="none" stroke="black" cx="729.2" cy="-162" rx="30.59" ry="18"/>
<text text-anchor="middle" x="729.2" y="-158.3" font-family="Times,serif" font-size="14.00">Ines</text>
</g>
<!-- Juliette -->
<g id="node12" class="node">
<title>Juliette</title>
<ellipse fill="none" stroke="black" cx="822.2" cy="-162" rx="44.39" ry="18"/>
<text text-anchor="middle" x="822.2" y="-158.3" font-family="Times,serif" font-size="14.00">Juliette</text>
</g>
<!-- Lou -->
<g id="node14" class="node">
<title>Lou</title>
<ellipse fill="none" stroke="black" cx="912.2" cy="-162" rx="27.9" ry="18"/>
<text text-anchor="middle" x="912.2" y="-158.3" font-family="Times,serif" font-size="14.00">Lou</text>
</g>
<!-- Didier -->
<g id="node25" class="node">
<title>Didier</title>
<ellipse fill="none" stroke="black" cx="912.2" cy="-90" rx="39.79" ry="18"/>
<text text-anchor="middle" x="912.2" y="-86.3" font-family="Times,serif" font-size="14.00">Didier</text>
</g>
<!-- Lou&#45;&gt;Didier -->
<g id="edge7" class="edge">
<title>Lou&#45;&gt;Didier</title>
<path fill="none" stroke="black" d="M912.2,-143.7C912.2,-135.98 912.2,-126.71 912.2,-118.11"/>
<polygon fill="black" stroke="black" points="915.7,-118.1 912.2,-108.1 908.7,-118.1 915.7,-118.1"/>
</g>
<!-- David -->
<g id="node15" class="node">
<title>David</title>
<ellipse fill="none" stroke="black" cx="1000.2" cy="-162" rx="37.89" ry="18"/>
<text text-anchor="middle" x="1000.2" y="-158.3" font-family="Times,serif" font-size="14.00">David</text>
</g>
<!-- Jade -->
<g id="node17" class="node">
<title>Jade</title>
<ellipse fill="none" stroke="black" cx="1000.2" cy="-90" rx="30.59" ry="18"/>
<text text-anchor="middle" x="1000.2" y="-86.3" font-family="Times,serif" font-size="14.00">Jade</text>
</g>
<!-- David&#45;&gt;Jade -->
<g id="edge5" class="edge">
<title>David&#45;&gt;Jade</title>
<path fill="none" stroke="black" d="M1000.2,-143.7C1000.2,-135.98 1000.2,-126.71 1000.2,-118.11"/>
<polygon fill="black" stroke="black" points="1003.7,-118.1 1000.2,-108.1 996.7,-118.1 1003.7,-118.1"/>
</g>
<!-- Anna -->
<g id="node16" class="node">
<title>Anna</title>
<ellipse fill="none" stroke="black" cx="1090.2" cy="-162" rx="34.39" ry="18"/>
<text text-anchor="middle" x="1090.2" y="-158.3" font-family="Times,serif" font-size="14.00">Anna</text>
</g>
<!-- Marcelin -->
<g id="node18" class="node">
<title>Marcelin</title>
<ellipse fill="none" stroke="black" cx="1194.2" cy="-162" rx="51.99" ry="18"/>
<text text-anchor="middle" x="1194.2" y="-158.3" font-family="Times,serif" font-size="14.00">Marcelin</text>
</g>
<!-- Ange -->
<g id="node20" class="node">
<title>Ange</title>
<ellipse fill="none" stroke="black" cx="1194.2" cy="-90" rx="34.39" ry="18"/>
<text text-anchor="middle" x="1194.2" y="-86.3" font-family="Times,serif" font-size="14.00">Ange</text>
</g>
<!-- Marcelin&#45;&gt;Ange -->
<g id="edge6" class="edge">
<title>Marcelin&#45;&gt;Ange</title>
<path fill="none" stroke="black" d="M1194.2,-143.7C1194.2,-135.98 1194.2,-126.71 1194.2,-118.11"/>
<polygon fill="black" stroke="black" points="1197.7,-118.1 1194.2,-108.1 1190.7,-118.1 1197.7,-118.1"/>
</g>
<!-- Emma -->
<g id="node19" class="node">
<title>Emma</title>
<ellipse fill="none" stroke="black" cx="1304.2" cy="-162" rx="40.09" ry="18"/>
<text text-anchor="middle" x="1304.2" y="-158.3" font-family="Times,serif" font-size="14.00">Emma</text>
</g>
<!-- Ghita -->
<g id="node21" class="node">
<title>Ghita</title>
<ellipse fill="none" stroke="black" cx="1399.2" cy="-162" rx="36.29" ry="18"/>
<text text-anchor="middle" x="1399.2" y="-158.3" font-family="Times,serif" font-size="14.00">Ghita</text>
</g>
<!-- Manon -->
<g id="node22" class="node">
<title>Manon</title>
<ellipse fill="none" stroke="black" cx="1496.2" cy="-162" rx="42.49" ry="18"/>
<text text-anchor="middle" x="1496.2" y="-158.3" font-family="Times,serif" font-size="14.00">Manon</text>
</g>
<!-- Sophie -->
<g id="node24" class="node">
<title>Sophie</title>
<ellipse fill="none" stroke="black" cx="1598.2" cy="-162" rx="42.49" ry="18"/>
<text text-anchor="middle" x="1598.2" y="-158.3" font-family="Times,serif" font-size="14.00">Sophie</text>
</g>
<!-- Aude -->
<g id="node26" class="node">
<title>Aude</title>
<ellipse fill="none" stroke="black" cx="1697.2" cy="-90" rx="34.39" ry="18"/>
<text text-anchor="middle" x="1697.2" y="-86.3" font-family="Times,serif" font-size="14.00">Aude</text>
</g>
<!-- Mila -->
<g id="node27" class="node">
<title>Mila</title>
<ellipse fill="none" stroke="black" cx="1785.2" cy="-162" rx="31.4" ry="18"/>
<text text-anchor="middle" x="1785.2" y="-158.3" font-family="Times,serif" font-size="14.00">Mila</text>
</g>
<!-- Pauline -->
<g id="node28" class="node">
<title>Pauline</title>
<ellipse fill="none" stroke="black" cx="1879.2" cy="-162" rx="44.69" ry="18"/>
<text text-anchor="middle" x="1879.2" y="-158.3" font-family="Times,serif" font-size="14.00">Pauline</text>
</g>
<!-- Iris -->
<g id="node29" class="node">
<title>Iris</title>
<ellipse fill="none" stroke="black" cx="1969.2" cy="-162" rx="27" ry="18"/>
<text text-anchor="middle" x="1969.2" y="-158.3" font-family="Times,serif" font-size="14.00">Iris</text>
</g>
<!-- Louise -->
<g id="node30" class="node">
<title>Louise</title>
<ellipse fill="none" stroke="black" cx="2055.2" cy="-162" rx="40.89" ry="18"/>
<text text-anchor="middle" x="2055.2" y="-158.3" font-family="Times,serif" font-size="14.00">Louise</text>
</g>
<!-- Aaron -->
<g id="node31" class="node">
<title>Aaron</title>
<ellipse fill="none" stroke="black" cx="1697.2" cy="-162" rx="38.19" ry="18"/>
<text text-anchor="middle" x="1697.2" y="-158.3" font-family="Times,serif" font-size="14.00">Aaron</text>
</g>
<!-- Aaron&#45;&gt;Aude -->
<g id="edge10" class="edge">
<title>Aaron&#45;&gt;Aude</title>
<path fill="none" stroke="black" d="M1697.2,-143.7C1697.2,-135.98 1697.2,-126.71 1697.2,-118.11"/>
<polygon fill="black" stroke="black" points="1700.7,-118.1 1697.2,-108.1 1693.7,-118.1 1700.7,-118.1"/>
</g>
</g>
</svg>
