<?xml version="1.0" encoding="UTF-8" standalone="no"?>
<!DOCTYPE svg PUBLIC "-//W3C//DTD SVG 1.1//EN"
 "http://www.w3.org/Graphics/SVG/1.1/DTD/svg11.dtd">
<!-- Generated by graphviz version 3.0.0 (0)
 -->
<!-- Title: G Pages: 1 -->
<svg width="1690pt" height="116pt"
 viewBox="0.00 0.00 1690.09 116.00" xmlns="http://www.w3.org/2000/svg" xmlns:xlink="http://www.w3.org/1999/xlink">
<g id="graph0" class="graph" transform="scale(1 1) rotate(0) translate(4 112)">
<title>G</title>
<polygon fill="white" stroke="transparent" points="-4,4 -4,-112 1686.09,-112 1686.09,4 -4,4"/>
<!-- Ines -->
<g id="node1" class="node">
<title>Ines</title>
<ellipse fill="none" stroke="black" cx="30.55" cy="-90" rx="30.59" ry="18"/>
<text text-anchor="middle" x="30.55" y="-86.3" font-family="Times,serif" font-size="14.00">Ines</text>
</g>
<!-- Ambre -->
<g id="node2" class="node">
<title>Ambre</title>
<ellipse fill="none" stroke="black" cx="120.55" cy="-90" rx="41.69" ry="18"/>
<text text-anchor="middle" x="120.55" y="-86.3" font-family="Times,serif" font-size="14.00">Ambre</text>
</g>
<!-- Lalie -->
<g id="node3" class="node">
<title>Lalie</title>
<ellipse fill="none" stroke="black" cx="213.55" cy="-90" rx="33.29" ry="18"/>
<text text-anchor="middle" x="213.55" y="-86.3" font-family="Times,serif" font-size="14.00">Lalie</text>
</g>
<!-- Lina -->
<g id="node4" class="node">
<title>Lina</title>
<ellipse fill="none" stroke="black" cx="295.55" cy="-90" rx="30.59" ry="18"/>
<text text-anchor="middle" x="295.55" y="-86.3" font-family="Times,serif" font-size="14.00">Lina</text>
</g>
<!-- Zoe -->
<g id="node5" class="node">
<title>Zoe</title>
<ellipse fill="none" stroke="black" cx="371.55" cy="-90" rx="27.9" ry="18"/>
<text text-anchor="middle" x="371.55" y="-86.3" font-family="Times,serif" font-size="14.00">Zoe</text>
</g>
<!-- Agathe -->
<g id="node6" class="node">
<title>Agathe</title>
<ellipse fill="none" stroke="black" cx="460.55" cy="-90" rx="43.59" ry="18"/>
<text text-anchor="middle" x="460.55" y="-86.3" font-family="Times,serif" font-size="14.00">Agathe</text>
</g>
<!-- Pauline -->
<g id="node7" class="node">
<title>Pauline</title>
<ellipse fill="none" stroke="black" cx="566.55" cy="-90" rx="44.69" ry="18"/>
<text text-anchor="middle" x="566.55" y="-86.3" font-family="Times,serif" font-size="14.00">Pauline</text>
</g>
<!-- Lea -->
<g id="node8" class="node">
<title>Lea</title>
<ellipse fill="none" stroke="black" cx="656.55" cy="-90" rx="27.1" ry="18"/>
<text text-anchor="middle" x="656.55" y="-86.3" font-family="Times,serif" font-size="14.00">Lea</text>
</g>
<!-- Soukaina -->
<g id="node9" class="node">
<title>Soukaina</title>
<ellipse fill="none" stroke="black" cx="755.55" cy="-90" rx="53.09" ry="18"/>
<text text-anchor="middle" x="755.55" y="-86.3" font-family="Times,serif" font-size="14.00">Soukaina</text>
</g>
<!-- Jade -->
<g id="node10" class="node">
<title>Jade</title>
<ellipse fill="none" stroke="black" cx="857.55" cy="-90" rx="30.59" ry="18"/>
<text text-anchor="middle" x="857.55" y="-86.3" font-family="Times,serif" font-size="14.00">Jade</text>
</g>
<!-- Camille -->
<g id="node11" class="node">
<title>Camille</title>
<ellipse fill="none" stroke="black" cx="958.55" cy="-18" rx="46.29" ry="18"/>
<text text-anchor="middle" x="958.55" y="-14.3" font-family="Times,serif" font-size="14.00">Camille</text>
</g>
<!-- Marcelin -->
<g id="node12" class="node">
<title>Marcelin</title>
<ellipse fill="none" stroke="black" cx="958.55" cy="-90" rx="51.99" ry="18"/>
<text text-anchor="middle" x="958.55" y="-86.3" font-family="Times,serif" font-size="14.00">Marcelin</text>
</g>
<!-- Marcelin&#45;&gt;Camille -->
<g id="edge1" class="edge">
<title>Marcelin&#45;&gt;Camille</title>
<path fill="none" stroke="black" d="M958.55,-71.7C958.55,-63.98 958.55,-54.71 958.55,-46.11"/>
<polygon fill="black" stroke="black" points="962.05,-46.1 958.55,-36.1 955.05,-46.1 962.05,-46.1"/>
</g>
<!-- Julie -->
<g id="node13" class="node">
<title>Julie</title>
<ellipse fill="none" stroke="black" cx="1059.55" cy="-90" rx="31.4" ry="18"/>
<text text-anchor="middle" x="1059.55" y="-86.3" font-family="Times,serif" font-size="14.00">Julie</text>
</g>
<!-- Ange -->
<g id="node14" class="node">
<title>Ange</title>
<ellipse fill="none" stroke="black" cx="1143.55" cy="-90" rx="34.39" ry="18"/>
<text text-anchor="middle" x="1143.55" y="-86.3" font-family="Times,serif" font-size="14.00">Ange</text>
</g>
<!-- Delphine -->
<g id="node15" class="node">
<title>Delphine</title>
<ellipse fill="none" stroke="black" cx="1247.55" cy="-90" rx="51.99" ry="18"/>
<text text-anchor="middle" x="1247.55" y="-86.3" font-family="Times,serif" font-size="14.00">Delphine</text>
</g>
<!-- Valerie -->
<g id="node16" class="node">
<title>Valerie</title>
<ellipse fill="none" stroke="black" cx="1360.55" cy="-90" rx="42.79" ry="18"/>
<text text-anchor="middle" x="1360.55" y="-86.3" font-family="Times,serif" font-size="14.00">Valerie</text>
</g>
<!-- Aude -->
<g id="node17" class="node">
<title>Aude</title>
<ellipse fill="none" stroke="black" cx="1455.55" cy="-90" rx="34.39" ry="18"/>
<text text-anchor="middle" x="1455.55" y="-86.3" font-family="Times,serif" font-size="14.00">Aude</text>
</g>
<!-- Anna -->
<g id="node18" class="node">
<title>Anna</title>
<ellipse fill="none" stroke="black" cx="1542.55" cy="-90" rx="34.39" ry="18"/>
<text text-anchor="middle" x="1542.55" y="-86.3" font-family="Times,serif" font-size="14.00">Anna</text>
</g>
<!-- Helene -->
<g id="node19" class="node">
<title>Helene</title>
<ellipse fill="none" stroke="black" cx="1638.55" cy="-90" rx="43.59" ry="18"/>
<text text-anchor="middle" x="1638.55" y="-86.3" font-family="Times,serif" font-size="14.00">Helene</text>
</g>
</g>
</svg>
