<?xml version="1.0" encoding="UTF-8" standalone="no"?>
<!DOCTYPE svg PUBLIC "-//W3C//DTD SVG 1.1//EN"
 "http://www.w3.org/Graphics/SVG/1.1/DTD/svg11.dtd">
<!-- Generated by graphviz version 3.0.0 (0)
 -->
<!-- Title: G Pages: 1 -->
<svg width="1390pt" height="116pt"
 viewBox="0.00 0.00 1390.39 116.00" xmlns="http://www.w3.org/2000/svg" xmlns:xlink="http://www.w3.org/1999/xlink">
<g id="graph0" class="graph" transform="scale(1 1) rotate(0) translate(4 112)">
<title>G</title>
<polygon fill="white" stroke="transparent" points="-4,4 -4,-112 1386.39,-112 1386.39,4 -4,4"/>
<!-- Alice -->
<g id="node1" class="node">
<title>Alice</title>
<ellipse fill="none" stroke="black" cx="33.15" cy="-90" rx="33.29" ry="18"/>
<text text-anchor="middle" x="33.15" y="-86.3" font-family="Times,serif" font-size="14.00">Alice</text>
</g>
<!-- Ambre -->
<g id="node2" class="node">
<title>Ambre</title>
<ellipse fill="none" stroke="black" cx="119.15" cy="-18" rx="41.69" ry="18"/>
<text text-anchor="middle" x="119.15" y="-14.3" font-family="Times,serif" font-size="14.00">Ambre</text>
</g>
<!-- Alain -->
<g id="node3" class="node">
<title>Alain</title>
<ellipse fill="none" stroke="black" cx="119.15" cy="-90" rx="34.39" ry="18"/>
<text text-anchor="middle" x="119.15" y="-86.3" font-family="Times,serif" font-size="14.00">Alain</text>
</g>
<!-- Alain&#45;&gt;Ambre -->
<g id="edge1" class="edge">
<title>Alain&#45;&gt;Ambre</title>
<path fill="none" stroke="black" d="M119.15,-71.7C119.15,-63.98 119.15,-54.71 119.15,-46.11"/>
<polygon fill="black" stroke="black" points="122.65,-46.1 119.15,-36.1 115.65,-46.1 122.65,-46.1"/>
</g>
<!-- Julie -->
<g id="node4" class="node">
<title>Julie</title>
<ellipse fill="none" stroke="black" cx="223.15" cy="-18" rx="31.4" ry="18"/>
<text text-anchor="middle" x="223.15" y="-14.3" font-family="Times,serif" font-size="14.00">Julie</text>
</g>
<!-- Zoe -->
<g id="node5" class="node">
<title>Zoe</title>
<ellipse fill="none" stroke="black" cx="317.15" cy="-18" rx="27.9" ry="18"/>
<text text-anchor="middle" x="317.15" y="-14.3" font-family="Times,serif" font-size="14.00">Zoe</text>
</g>
<!-- Lea -->
<g id="node6" class="node">
<title>Lea</title>
<ellipse fill="none" stroke="black" cx="390.15" cy="-18" rx="27.1" ry="18"/>
<text text-anchor="middle" x="390.15" y="-14.3" font-family="Times,serif" font-size="14.00">Lea</text>
</g>
<!-- Didier -->
<g id="node7" class="node">
<title>Didier</title>
<ellipse fill="none" stroke="black" cx="333.15" cy="-90" rx="39.79" ry="18"/>
<text text-anchor="middle" x="333.15" y="-86.3" font-family="Times,serif" font-size="14.00">Didier</text>
</g>
<!-- Didier&#45;&gt;Zoe -->
<g id="edge2" class="edge">
<title>Didier&#45;&gt;Zoe</title>
<path fill="none" stroke="black" d="M329.27,-72.05C327.49,-64.26 325.33,-54.82 323.34,-46.08"/>
<polygon fill="black" stroke="black" points="326.74,-45.24 321.1,-36.28 319.91,-46.8 326.74,-45.24"/>
</g>
<!-- Didier&#45;&gt;Lea -->
<g id="edge5" class="edge">
<title>Didier&#45;&gt;Lea</title>
<path fill="none" stroke="black" d="M346.37,-72.76C353.77,-63.68 363.12,-52.19 371.28,-42.18"/>
<polygon fill="black" stroke="black" points="374.18,-44.15 377.78,-34.19 368.75,-39.73 374.18,-44.15"/>
</g>
<!-- Soukaina -->
<g id="node8" class="node">
<title>Soukaina</title>
<ellipse fill="none" stroke="black" cx="444.15" cy="-90" rx="53.09" ry="18"/>
<text text-anchor="middle" x="444.15" y="-86.3" font-family="Times,serif" font-size="14.00">Soukaina</text>
</g>
<!-- Anna -->
<g id="node9" class="node">
<title>Anna</title>
<ellipse fill="none" stroke="black" cx="553.15" cy="-18" rx="34.39" ry="18"/>
<text text-anchor="middle" x="553.15" y="-14.3" font-family="Times,serif" font-size="14.00">Anna</text>
</g>
<!-- David -->
<g id="node10" class="node">
<title>David</title>
<ellipse fill="none" stroke="black" cx="553.15" cy="-90" rx="37.89" ry="18"/>
<text text-anchor="middle" x="553.15" y="-86.3" font-family="Times,serif" font-size="14.00">David</text>
</g>
<!-- David&#45;&gt;Anna -->
<g id="edge3" class="edge">
<title>David&#45;&gt;Anna</title>
<path fill="none" stroke="black" d="M553.15,-71.7C553.15,-63.98 553.15,-54.71 553.15,-46.11"/>
<polygon fill="black" stroke="black" points="556.65,-46.1 553.15,-36.1 549.65,-46.1 556.65,-46.1"/>
</g>
<!-- Agathe -->
<g id="node11" class="node">
<title>Agathe</title>
<ellipse fill="none" stroke="black" cx="652.15" cy="-90" rx="43.59" ry="18"/>
<text text-anchor="middle" x="652.15" y="-86.3" font-family="Times,serif" font-size="14.00">Agathe</text>
</g>
<!-- Camille -->
<g id="node12" class="node">
<title>Camille</title>
<ellipse fill="none" stroke="black" cx="760.15" cy="-90" rx="46.29" ry="18"/>
<text text-anchor="middle" x="760.15" y="-86.3" font-family="Times,serif" font-size="14.00">Camille</text>
</g>
<!-- Marcelin -->
<g id="node13" class="node">
<title>Marcelin</title>
<ellipse fill="none" stroke="black" cx="223.15" cy="-90" rx="51.99" ry="18"/>
<text text-anchor="middle" x="223.15" y="-86.3" font-family="Times,serif" font-size="14.00">Marcelin</text>
</g>
<!-- Marcelin&#45;&gt;Julie -->
<g id="edge4" class="edge">
<title>Marcelin&#45;&gt;Julie</title>
<path fill="none" stroke="black" d="M223.15,-71.7C223.15,-63.98 223.15,-54.71 223.15,-46.11"/>
<polygon fill="black" stroke="black" points="226.65,-46.1 223.15,-36.1 219.65,-46.1 226.65,-46.1"/>
</g>
<!-- Ghita -->
<g id="node14" class="node">
<title>Ghita</title>
<ellipse fill="none" stroke="black" cx="861.15" cy="-90" rx="36.29" ry="18"/>
<text text-anchor="middle" x="861.15" y="-86.3" font-family="Times,serif" font-size="14.00">Ghita</text>
</g>
<!-- Delphine -->
<g id="node15" class="node">
<title>Delphine</title>
<ellipse fill="none" stroke="black" cx="967.15" cy="-90" rx="51.99" ry="18"/>
<text text-anchor="middle" x="967.15" y="-86.3" font-family="Times,serif" font-size="14.00">Delphine</text>
</g>
<!-- Lou -->
<g id="node16" class="node">
<title>Lou</title>
<ellipse fill="none" stroke="black" cx="1065.15" cy="-90" rx="27.9" ry="18"/>
<text text-anchor="middle" x="1065.15" y="-86.3" font-family="Times,serif" font-size="14.00">Lou</text>
</g>
<!-- Valerie -->
<g id="node17" class="node">
<title>Valerie</title>
<ellipse fill="none" stroke="black" cx="1154.15" cy="-90" rx="42.79" ry="18"/>
<text text-anchor="middle" x="1154.15" y="-86.3" font-family="Times,serif" font-size="14.00">Valerie</text>
</g>
<!-- Aude -->
<g id="node18" class="node">
<title>Aude</title>
<ellipse fill="none" stroke="black" cx="1249.15" cy="-90" rx="34.39" ry="18"/>
<text text-anchor="middle" x="1249.15" y="-86.3" font-family="Times,serif" font-size="14.00">Aude</text>
</g>
<!-- Sophie -->
<g id="node19" class="node">
<title>Sophie</title>
<ellipse fill="none" stroke="black" cx="1340.15" cy="-18" rx="42.49" ry="18"/>
<text text-anchor="middle" x="1340.15" y="-14.3" font-family="Times,serif" font-size="14.00">Sophie</text>
</g>
<!-- Aaron -->
<g id="node20" class="node">
<title>Aaron</title>
<ellipse fill="none" stroke="black" cx="1340.15" cy="-90" rx="38.19" ry="18"/>
<text text-anchor="middle" x="1340.15" y="-86.3" font-family="Times,serif" font-size="14.00">Aaron</text>
</g>
<!-- Aaron&#45;&gt;Sophie -->
<g id="edge6" class="edge">
<title>Aaron&#45;&gt;Sophie</title>
<path fill="none" stroke="black" d="M1340.15,-71.7C1340.15,-63.98 1340.15,-54.71 1340.15,-46.11"/>
<polygon fill="black" stroke="black" points="1343.65,-46.1 1340.15,-36.1 1336.65,-46.1 1343.65,-46.1"/>
</g>
</g>
</svg>
