<?xml version="1.0" encoding="UTF-8" standalone="no"?>
<!DOCTYPE svg PUBLIC "-//W3C//DTD SVG 1.1//EN"
 "http://www.w3.org/Graphics/SVG/1.1/DTD/svg11.dtd">
<!-- Generated by graphviz version 3.0.0 (0)
 -->
<!-- Title: G Pages: 1 -->
<svg width="2561pt" height="188pt"
 viewBox="0.00 0.00 2561.24 188.00" xmlns="http://www.w3.org/2000/svg" xmlns:xlink="http://www.w3.org/1999/xlink">
<g id="graph0" class="graph" transform="scale(1 1) rotate(0) translate(4 184)">
<title>G</title>
<polygon fill="white" stroke="transparent" points="-4,4 -4,-184 2557.24,-184 2557.24,4 -4,4"/>
<!-- Sophie -->
<g id="node1" class="node">
<title>Sophie</title>
<ellipse fill="none" stroke="black" cx="42.25" cy="-162" rx="42.49" ry="18"/>
<text text-anchor="middle" x="42.25" y="-158.3" font-family="Times,serif" font-size="14.00">Sophie</text>
</g>
<!-- Lina -->
<g id="node2" class="node">
<title>Lina</title>
<ellipse fill="none" stroke="black" cx="133.25" cy="-162" rx="30.59" ry="18"/>
<text text-anchor="middle" x="133.25" y="-158.3" font-family="Times,serif" font-size="14.00">Lina</text>
</g>
<!-- Lamia -->
<g id="node3" class="node">
<title>Lamia</title>
<ellipse fill="none" stroke="black" cx="221.25" cy="-162" rx="38.99" ry="18"/>
<text text-anchor="middle" x="221.25" y="-158.3" font-family="Times,serif" font-size="14.00">Lamia</text>
</g>
<!-- Ines -->
<g id="node4" class="node">
<title>Ines</title>
<ellipse fill="none" stroke="black" cx="309.25" cy="-162" rx="30.59" ry="18"/>
<text text-anchor="middle" x="309.25" y="-158.3" font-family="Times,serif" font-size="14.00">Ines</text>
</g>
<!-- Lalie -->
<g id="node5" class="node">
<title>Lalie</title>
<ellipse fill="none" stroke="black" cx="391.25" cy="-162" rx="33.29" ry="18"/>
<text text-anchor="middle" x="391.25" y="-158.3" font-family="Times,serif" font-size="14.00">Lalie</text>
</g>
<!-- Emma -->
<g id="node6" class="node">
<title>Emma</title>
<ellipse fill="none" stroke="black" cx="482.25" cy="-162" rx="40.09" ry="18"/>
<text text-anchor="middle" x="482.25" y="-158.3" font-family="Times,serif" font-size="14.00">Emma</text>
</g>
<!-- Alice -->
<g id="node7" class="node">
<title>Alice</title>
<ellipse fill="none" stroke="black" cx="573.25" cy="-162" rx="33.29" ry="18"/>
<text text-anchor="middle" x="573.25" y="-158.3" font-family="Times,serif" font-size="14.00">Alice</text>
</g>
<!-- Lea -->
<g id="node8" class="node">
<title>Lea</title>
<ellipse fill="none" stroke="black" cx="651.25" cy="-162" rx="27.1" ry="18"/>
<text text-anchor="middle" x="651.25" y="-158.3" font-family="Times,serif" font-size="14.00">Lea</text>
</g>
<!-- Mia -->
<g id="node16" class="node">
<title>Mia</title>
<ellipse fill="none" stroke="black" cx="651.25" cy="-90" rx="28.7" ry="18"/>
<text text-anchor="middle" x="651.25" y="-86.3" font-family="Times,serif" font-size="14.00">Mia</text>
</g>
<!-- Lea&#45;&gt;Mia -->
<g id="edge1" class="edge">
<title>Lea&#45;&gt;Mia</title>
<path fill="none" stroke="black" d="M651.25,-143.7C651.25,-135.98 651.25,-126.71 651.25,-118.11"/>
<polygon fill="black" stroke="black" points="654.75,-118.1 651.25,-108.1 647.75,-118.1 654.75,-118.1"/>
</g>
<!-- Marie -->
<g id="node9" class="node">
<title>Marie</title>
<ellipse fill="none" stroke="black" cx="748.25" cy="-18" rx="38.19" ry="18"/>
<text text-anchor="middle" x="748.25" y="-14.3" font-family="Times,serif" font-size="14.00">Marie</text>
</g>
<!-- Chloe -->
<g id="node10" class="node">
<title>Chloe</title>
<ellipse fill="none" stroke="black" cx="834.25" cy="-162" rx="37.09" ry="18"/>
<text text-anchor="middle" x="834.25" y="-158.3" font-family="Times,serif" font-size="14.00">Chloe</text>
</g>
<!-- Juliette -->
<g id="node11" class="node">
<title>Juliette</title>
<ellipse fill="none" stroke="black" cx="933.25" cy="-162" rx="44.39" ry="18"/>
<text text-anchor="middle" x="933.25" y="-158.3" font-family="Times,serif" font-size="14.00">Juliette</text>
</g>
<!-- Caroline -->
<g id="node12" class="node">
<title>Caroline</title>
<ellipse fill="none" stroke="black" cx="748.25" cy="-90" rx="50.09" ry="18"/>
<text text-anchor="middle" x="748.25" y="-86.3" font-family="Times,serif" font-size="14.00">Caroline</text>
</g>
<!-- Caroline&#45;&gt;Marie -->
<g id="edge2" class="edge">
<title>Caroline&#45;&gt;Marie</title>
<path fill="none" stroke="black" d="M748.25,-71.7C748.25,-63.98 748.25,-54.71 748.25,-46.11"/>
<polygon fill="black" stroke="black" points="751.75,-46.1 748.25,-36.1 744.75,-46.1 751.75,-46.1"/>
</g>
<!-- Anna -->
<g id="node13" class="node">
<title>Anna</title>
<ellipse fill="none" stroke="black" cx="1038.25" cy="-90" rx="34.39" ry="18"/>
<text text-anchor="middle" x="1038.25" y="-86.3" font-family="Times,serif" font-size="14.00">Anna</text>
</g>
<!-- Julia -->
<g id="node14" class="node">
<title>Julia</title>
<ellipse fill="none" stroke="black" cx="1130.25" cy="-162" rx="31.4" ry="18"/>
<text text-anchor="middle" x="1130.25" y="-158.3" font-family="Times,serif" font-size="14.00">Julia</text>
</g>
<!-- Camille -->
<g id="node15" class="node">
<title>Camille</title>
<ellipse fill="none" stroke="black" cx="1225.25" cy="-162" rx="46.29" ry="18"/>
<text text-anchor="middle" x="1225.25" y="-158.3" font-family="Times,serif" font-size="14.00">Camille</text>
</g>
<!-- Iris -->
<g id="node17" class="node">
<title>Iris</title>
<ellipse fill="none" stroke="black" cx="1316.25" cy="-162" rx="27" ry="18"/>
<text text-anchor="middle" x="1316.25" y="-158.3" font-family="Times,serif" font-size="14.00">Iris</text>
</g>
<!-- Julie -->
<g id="node18" class="node">
<title>Julie</title>
<ellipse fill="none" stroke="black" cx="1392.25" cy="-162" rx="31.4" ry="18"/>
<text text-anchor="middle" x="1392.25" y="-158.3" font-family="Times,serif" font-size="14.00">Julie</text>
</g>
<!-- Veronique -->
<g id="node19" class="node">
<title>Veronique</title>
<ellipse fill="none" stroke="black" cx="1499.25" cy="-162" rx="57.69" ry="18"/>
<text text-anchor="middle" x="1499.25" y="-158.3" font-family="Times,serif" font-size="14.00">Veronique</text>
</g>
<!-- Jade -->
<g id="node20" class="node">
<title>Jade</title>
<ellipse fill="none" stroke="black" cx="1605.25" cy="-162" rx="30.59" ry="18"/>
<text text-anchor="middle" x="1605.25" y="-158.3" font-family="Times,serif" font-size="14.00">Jade</text>
</g>
<!-- Pauline -->
<g id="node21" class="node">
<title>Pauline</title>
<ellipse fill="none" stroke="black" cx="1698.25" cy="-162" rx="44.69" ry="18"/>
<text text-anchor="middle" x="1698.25" y="-158.3" font-family="Times,serif" font-size="14.00">Pauline</text>
</g>
<!-- Lou -->
<g id="node22" class="node">
<title>Lou</title>
<ellipse fill="none" stroke="black" cx="1789.25" cy="-162" rx="27.9" ry="18"/>
<text text-anchor="middle" x="1789.25" y="-158.3" font-family="Times,serif" font-size="14.00">Lou</text>
</g>
<!-- Ambre -->
<g id="node23" class="node">
<title>Ambre</title>
<ellipse fill="none" stroke="black" cx="1877.25" cy="-162" rx="41.69" ry="18"/>
<text text-anchor="middle" x="1877.25" y="-158.3" font-family="Times,serif" font-size="14.00">Ambre</text>
</g>
<!-- Helene -->
<g id="node24" class="node">
<title>Helene</title>
<ellipse fill="none" stroke="black" cx="1980.25" cy="-162" rx="43.59" ry="18"/>
<text text-anchor="middle" x="1980.25" y="-158.3" font-family="Times,serif" font-size="14.00">Helene</text>
</g>
<!-- Ghita -->
<g id="node25" class="node">
<title>Ghita</title>
<ellipse fill="none" stroke="black" cx="2078.25" cy="-162" rx="36.29" ry="18"/>
<text text-anchor="middle" x="2078.25" y="-158.3" font-family="Times,serif" font-size="14.00">Ghita</text>
</g>
<!-- Charlotte -->
<g id="node26" class="node">
<title>Charlotte</title>
<ellipse fill="none" stroke="black" cx="2187.25" cy="-162" rx="54.69" ry="18"/>
<text text-anchor="middle" x="2187.25" y="-158.3" font-family="Times,serif" font-size="14.00">Charlotte</text>
</g>
<!-- Aude -->
<g id="node27" class="node">
<title>Aude</title>
<ellipse fill="none" stroke="black" cx="2294.25" cy="-162" rx="34.39" ry="18"/>
<text text-anchor="middle" x="2294.25" y="-158.3" font-family="Times,serif" font-size="14.00">Aude</text>
</g>
<!-- Valerie -->
<g id="node28" class="node">
<title>Valerie</title>
<ellipse fill="none" stroke="black" cx="1038.25" cy="-162" rx="42.79" ry="18"/>
<text text-anchor="middle" x="1038.25" y="-158.3" font-family="Times,serif" font-size="14.00">Valerie</text>
</g>
<!-- Valerie&#45;&gt;Anna -->
<g id="edge3" class="edge">
<title>Valerie&#45;&gt;Anna</title>
<path fill="none" stroke="black" d="M1038.25,-143.7C1038.25,-135.98 1038.25,-126.71 1038.25,-118.11"/>
<polygon fill="black" stroke="black" points="1041.75,-118.1 1038.25,-108.1 1034.75,-118.1 1041.75,-118.1"/>
</g>
<!-- Manon -->
<g id="node29" class="node">
<title>Manon</title>
<ellipse fill="none" stroke="black" cx="2389.25" cy="-162" rx="42.49" ry="18"/>
<text text-anchor="middle" x="2389.25" y="-158.3" font-family="Times,serif" font-size="14.00">Manon</text>
</g>
<!-- Mila -->
<g id="node30" class="node">
<title>Mila</title>
<ellipse fill="none" stroke="black" cx="748.25" cy="-162" rx="31.4" ry="18"/>
<text text-anchor="middle" x="748.25" y="-158.3" font-family="Times,serif" font-size="14.00">Mila</text>
</g>
<!-- Mila&#45;&gt;Caroline -->
<g id="edge4" class="edge">
<title>Mila&#45;&gt;Caroline</title>
<path fill="none" stroke="black" d="M748.25,-143.7C748.25,-135.98 748.25,-126.71 748.25,-118.11"/>
<polygon fill="black" stroke="black" points="751.75,-118.1 748.25,-108.1 744.75,-118.1 751.75,-118.1"/>
</g>
<!-- Mathilde -->
<g id="node31" class="node">
<title>Mathilde</title>
<ellipse fill="none" stroke="black" cx="2501.25" cy="-162" rx="51.99" ry="18"/>
<text text-anchor="middle" x="2501.25" y="-158.3" font-family="Times,serif" font-size="14.00">Mathilde</text>
</g>
</g>
</svg>
