<?xml version="1.0" encoding="UTF-8" standalone="no"?>
<!DOCTYPE svg PUBLIC "-//W3C//DTD SVG 1.1//EN"
 "http://www.w3.org/Graphics/SVG/1.1/DTD/svg11.dtd">
<!-- Generated by graphviz version 3.0.0 (0)
 -->
<!-- Title: G Pages: 1 -->
<svg width="1020pt" height="116pt"
 viewBox="0.00 0.00 1020.39 116.00" xmlns="http://www.w3.org/2000/svg" xmlns:xlink="http://www.w3.org/1999/xlink">
<g id="graph0" class="graph" transform="scale(1 1) rotate(0) translate(4 112)">
<title>G</title>
<polygon fill="white" stroke="transparent" points="-4,4 -4,-112 1016.39,-112 1016.39,4 -4,4"/>
<!-- Alice -->
<g id="node1" class="node">
<title>Alice</title>
<ellipse fill="none" stroke="black" cx="33.15" cy="-90" rx="33.29" ry="18"/>
<text text-anchor="middle" x="33.15" y="-86.3" font-family="Times,serif" font-size="14.00">Alice</text>
</g>
<!-- Ambre -->
<g id="node2" class="node">
<title>Ambre</title>
<ellipse fill="none" stroke="black" cx="119.15" cy="-18" rx="41.69" ry="18"/>
<text text-anchor="middle" x="119.15" y="-14.3" font-family="Times,serif" font-size="14.00">Ambre</text>
</g>
<!-- Alain -->
<g id="node3" class="node">
<title>Alain</title>
<ellipse fill="none" stroke="black" cx="119.15" cy="-90" rx="34.39" ry="18"/>
<text text-anchor="middle" x="119.15" y="-86.3" font-family="Times,serif" font-size="14.00">Alain</text>
</g>
<!-- Alain&#45;&gt;Ambre -->
<g id="edge1" class="edge">
<title>Alain&#45;&gt;Ambre</title>
<path fill="none" stroke="black" d="M119.15,-71.7C119.15,-63.98 119.15,-54.71 119.15,-46.11"/>
<polygon fill="black" stroke="black" points="122.65,-46.1 119.15,-36.1 115.65,-46.1 122.65,-46.1"/>
</g>
<!-- Zoe -->
<g id="node4" class="node">
<title>Zoe</title>
<ellipse fill="none" stroke="black" cx="207.15" cy="-18" rx="27.9" ry="18"/>
<text text-anchor="middle" x="207.15" y="-14.3" font-family="Times,serif" font-size="14.00">Zoe</text>
</g>
<!-- Didier -->
<g id="node5" class="node">
<title>Didier</title>
<ellipse fill="none" stroke="black" cx="246.15" cy="-90" rx="39.79" ry="18"/>
<text text-anchor="middle" x="246.15" y="-86.3" font-family="Times,serif" font-size="14.00">Didier</text>
</g>
<!-- Didier&#45;&gt;Zoe -->
<g id="edge2" class="edge">
<title>Didier&#45;&gt;Zoe</title>
<path fill="none" stroke="black" d="M236.9,-72.41C232.24,-64.04 226.49,-53.71 221.28,-44.37"/>
<polygon fill="black" stroke="black" points="224.25,-42.5 216.32,-35.47 218.13,-45.91 224.25,-42.5"/>
</g>
<!-- Lea -->
<g id="node12" class="node">
<title>Lea</title>
<ellipse fill="none" stroke="black" cx="280.15" cy="-18" rx="27.1" ry="18"/>
<text text-anchor="middle" x="280.15" y="-14.3" font-family="Times,serif" font-size="14.00">Lea</text>
</g>
<!-- Didier&#45;&gt;Lea -->
<g id="edge5" class="edge">
<title>Didier&#45;&gt;Lea</title>
<path fill="none" stroke="black" d="M254.38,-72.05C258.4,-63.77 263.33,-53.62 267.8,-44.42"/>
<polygon fill="black" stroke="black" points="271.01,-45.83 272.23,-35.31 264.71,-42.77 271.01,-45.83"/>
</g>
<!-- Soukaina -->
<g id="node6" class="node">
<title>Soukaina</title>
<ellipse fill="none" stroke="black" cx="379.15" cy="-18" rx="53.09" ry="18"/>
<text text-anchor="middle" x="379.15" y="-14.3" font-family="Times,serif" font-size="14.00">Soukaina</text>
</g>
<!-- Anna -->
<g id="node7" class="node">
<title>Anna</title>
<ellipse fill="none" stroke="black" cx="469.15" cy="-90" rx="34.39" ry="18"/>
<text text-anchor="middle" x="469.15" y="-86.3" font-family="Times,serif" font-size="14.00">Anna</text>
</g>
<!-- David -->
<g id="node8" class="node">
<title>David</title>
<ellipse fill="none" stroke="black" cx="379.15" cy="-90" rx="37.89" ry="18"/>
<text text-anchor="middle" x="379.15" y="-86.3" font-family="Times,serif" font-size="14.00">David</text>
</g>
<!-- David&#45;&gt;Soukaina -->
<g id="edge3" class="edge">
<title>David&#45;&gt;Soukaina</title>
<path fill="none" stroke="black" d="M379.15,-71.7C379.15,-63.98 379.15,-54.71 379.15,-46.11"/>
<polygon fill="black" stroke="black" points="382.65,-46.1 379.15,-36.1 375.65,-46.1 382.65,-46.1"/>
</g>
<!-- Camille -->
<g id="node9" class="node">
<title>Camille</title>
<ellipse fill="none" stroke="black" cx="568.15" cy="-90" rx="46.29" ry="18"/>
<text text-anchor="middle" x="568.15" y="-86.3" font-family="Times,serif" font-size="14.00">Camille</text>
</g>
<!-- Marcelin -->
<g id="node10" class="node">
<title>Marcelin</title>
<ellipse fill="none" stroke="black" cx="684.15" cy="-90" rx="51.99" ry="18"/>
<text text-anchor="middle" x="684.15" y="-86.3" font-family="Times,serif" font-size="14.00">Marcelin</text>
</g>
<!-- Ghita -->
<g id="node11" class="node">
<title>Ghita</title>
<ellipse fill="none" stroke="black" cx="684.15" cy="-18" rx="36.29" ry="18"/>
<text text-anchor="middle" x="684.15" y="-14.3" font-family="Times,serif" font-size="14.00">Ghita</text>
</g>
<!-- Marcelin&#45;&gt;Ghita -->
<g id="edge4" class="edge">
<title>Marcelin&#45;&gt;Ghita</title>
<path fill="none" stroke="black" d="M684.15,-71.7C684.15,-63.98 684.15,-54.71 684.15,-46.11"/>
<polygon fill="black" stroke="black" points="687.65,-46.1 684.15,-36.1 680.65,-46.1 687.65,-46.1"/>
</g>
<!-- Lou -->
<g id="node13" class="node">
<title>Lou</title>
<ellipse fill="none" stroke="black" cx="782.15" cy="-90" rx="27.9" ry="18"/>
<text text-anchor="middle" x="782.15" y="-86.3" font-family="Times,serif" font-size="14.00">Lou</text>
</g>
<!-- Valerie -->
<g id="node14" class="node">
<title>Valerie</title>
<ellipse fill="none" stroke="black" cx="871.15" cy="-90" rx="42.79" ry="18"/>
<text text-anchor="middle" x="871.15" y="-86.3" font-family="Times,serif" font-size="14.00">Valerie</text>
</g>
<!-- Sophie -->
<g id="node15" class="node">
<title>Sophie</title>
<ellipse fill="none" stroke="black" cx="970.15" cy="-18" rx="42.49" ry="18"/>
<text text-anchor="middle" x="970.15" y="-14.3" font-family="Times,serif" font-size="14.00">Sophie</text>
</g>
<!-- Aaron -->
<g id="node16" class="node">
<title>Aaron</title>
<ellipse fill="none" stroke="black" cx="970.15" cy="-90" rx="38.19" ry="18"/>
<text text-anchor="middle" x="970.15" y="-86.3" font-family="Times,serif" font-size="14.00">Aaron</text>
</g>
<!-- Aaron&#45;&gt;Sophie -->
<g id="edge6" class="edge">
<title>Aaron&#45;&gt;Sophie</title>
<path fill="none" stroke="black" d="M970.15,-71.7C970.15,-63.98 970.15,-54.71 970.15,-46.11"/>
<polygon fill="black" stroke="black" points="973.65,-46.1 970.15,-36.1 966.65,-46.1 973.65,-46.1"/>
</g>
</g>
</svg>
